Rosalind Serif-Light.ufo
<glyph name="exclam" format="1">
  <advance width="640"/>
  <unicode hex="0021"/>
  <note>
	exclam
  </note>
  <outline>
    <contour>
      <point x="394" y="1566" type="line"/>
      <point x="356" y="415" type="line"/>
      <point x="265" y="415" type="line"/>
      <point x="224" y="1566" type="line"/>
    </contour>
    <contour>
      <point x="395" y="197"/>
      <point x="429" y="155"/>
      <point x="429" y="98" type="curve" smooth="yes"/>
      <point x="429" y="51"/>
      <point x="404" y="15"/>
      <point x="368" y="-4" type="curve" smooth="yes"/>
      <point x="349" y="-14"/>
      <point x="330" y="-19"/>
      <point x="309" y="-19" type="curve" smooth="yes"/>
      <point x="254" y="-19"/>
      <point x="208" y="20"/>
      <point x="208" y="80" type="curve" smooth="yes"/>
      <point x="208" y="123"/>
      <point x="233" y="160"/>
      <point x="270" y="181" type="curve" smooth="yes"/>
      <point x="288" y="192"/>
      <point x="307" y="197"/>
      <point x="326" y="197" type="curve" smooth="yes"/>
    </contour>
  </outline>
</glyph>
<glyph name="quotedbl" format="1">
  <advance width="1079"/>
  <unicode hex="0022"/>
  <note>
	quotedbl
  </note>
  <outline>
    <contour>
      <point x="848" y="1482" type="line"/>
      <point x="814" y="846" type="line"/>
      <point x="720" y="846" type="line"/>
      <point x="686" y="1482" type="line"/>
    </contour>
    <contour>
      <point x="394" y="1482" type="line"/>
      <point x="360" y="846" type="line"/>
      <point x="266" y="846" type="line"/>
      <point x="232" y="1482" type="line"/>
    </contour>
  </outline>
</glyph>
<glyph name="numbersign" format="1">
  <advance width="1340"/>
  <unicode hex="0023"/>
  <note>
	numbersign
  </note>
  <outline>
    <contour>
      <point x="153" y="320" type="line"/>
      <point x="153" y="413" type="line"/>
      <point x="362" y="413" type="line"/>
      <point x="399" y="810" type="line"/>
      <point x="183" y="810" type="line"/>
      <point x="183" y="903" type="line"/>
      <point x="407" y="903" type="line"/>
      <point x="433" y="1208" type="line"/>
      <point x="553" y="1208" type="line"/>
      <point x="526" y="903" type="line"/>
      <point x="853" y="903" type="line"/>
      <point x="880" y="1208" type="line"/>
      <point x="999" y="1208" type="line"/>
      <point x="972" y="903" type="line"/>
      <point x="1187" y="903" type="line"/>
      <point x="1187" y="810" type="line"/>
      <point x="963" y="810" type="line"/>
      <point x="928" y="413" type="line"/>
      <point x="1148" y="413" type="line"/>
      <point x="1148" y="320" type="line"/>
      <point x="918" y="320" type="line"/>
      <point x="890" y="0" type="line"/>
      <point x="771" y="0" type="line"/>
      <point x="798" y="320" type="line"/>
      <point x="470" y="320" type="line"/>
      <point x="441" y="0" type="line"/>
      <point x="319" y="0" type="line"/>
      <point x="350" y="320" type="line"/>
    </contour>
    <contour>
      <point x="843" y="810" type="line"/>
      <point x="517" y="810" type="line"/>
      <point x="480" y="413" type="line"/>
      <point x="804" y="413" type="line"/>
    </contour>
  </outline>
</glyph>
<glyph name="dollar" format="1">
  <advance width="1205"/>
  <unicode hex="0024"/>
  <note>
	dollar
  </note>
  <outline>
    <contour>
      <point x="636" y="-227" type="line"/>
      <point x="523" y="-227" type="line"/>
      <point x="524" y="-18" type="line"/>
      <point x="389" y="-9"/>
      <point x="245" y="32"/>
      <point x="185" y="61" type="curve"/>
      <point x="198" y="363" type="line"/>
      <point x="289" y="363" type="line"/>
      <point x="324" y="139" type="line"/>
      <point x="380" y="94"/>
      <point x="474" y="67"/>
      <point x="590" y="67" type="curve" smooth="yes"/>
      <point x="777" y="67"/>
      <point x="879" y="148"/>
      <point x="879" y="308" type="curve" smooth="yes"/>
      <point x="879" y="397"/>
      <point x="819" y="466"/>
      <point x="739" y="517" type="curve" smooth="yes"/>
      <point x="699" y="542"/>
      <point x="644" y="573"/>
      <point x="574" y="610" type="curve" smooth="yes"/>
      <point x="536" y="630" type="line" smooth="yes"/>
      <point x="381" y="711"/>
      <point x="293" y="774"/>
      <point x="242" y="868" type="curve" smooth="yes"/>
      <point x="217" y="915"/>
      <point x="204" y="971"/>
      <point x="204" y="1037" type="curve" smooth="yes"/>
      <point x="204" y="1154"/>
      <point x="271" y="1246"/>
      <point x="377" y="1300" type="curve" smooth="yes"/>
      <point x="430" y="1327"/>
      <point x="488" y="1344"/>
      <point x="553" y="1351" type="curve"/>
      <point x="553" y="1551" type="line"/>
      <point x="668" y="1551" type="line"/>
      <point x="668" y="1353" type="line"/>
      <point x="791" y="1346"/>
      <point x="878" y="1317"/>
      <point x="954" y="1286" type="curve"/>
      <point x="944" y="1000" type="line"/>
      <point x="857" y="1000" type="line"/>
      <point x="816" y="1215" type="line"/>
      <point x="769" y="1251"/>
      <point x="703" y="1269"/>
      <point x="617" y="1269" type="curve" smooth="yes"/>
      <point x="458" y="1269"/>
      <point x="344" y="1203"/>
      <point x="344" y="1059" type="curve" smooth="yes"/>
      <point x="344" y="966"/>
      <point x="396" y="899"/>
      <point x="464" y="853" type="curve" smooth="yes"/>
      <point x="498" y="830"/>
      <point x="544" y="802"/>
      <point x="602" y="771" type="curve" smooth="yes"/>
      <point x="629" y="756" type="line"/>
      <point x="672" y="731" type="line" smooth="yes"/>
      <point x="852" y="631"/>
      <point x="929" y="582"/>
      <point x="984" y="495" type="curve" smooth="yes"/>
      <point x="1011" y="451"/>
      <point x="1025" y="397"/>
      <point x="1025" y="334" type="curve" smooth="yes"/>
      <point x="1025" y="202"/>
      <point x="962" y="98"/>
      <point x="846" y="37" type="curve" smooth="yes"/>
      <point x="788" y="6"/>
      <point x="719" y="-12"/>
      <point x="638" y="-18" type="curve"/>
    </contour>
  </outline>
</glyph>
<glyph name="percent" format="1">
  <advance width="1837"/>
  <unicode hex="0025"/>
  <note>
	percent
  </note>
  <outline>
    <contour>
      <point x="1265" y="1353" type="line"/>
      <point x="688" y="0" type="line"/>
      <point x="570" y="0" type="line"/>
      <point x="1148" y="1353" type="line"/>
    </contour>
    <contour>
      <point x="102" y="1099"/>
      <point x="170" y="1215"/>
      <point x="275" y="1275" type="curve" smooth="yes"/>
      <point x="327" y="1305"/>
      <point x="383" y="1320"/>
      <point x="444" y="1320" type="curve" smooth="yes"/>
      <point x="584" y="1320"/>
      <point x="679" y="1251"/>
      <point x="724" y="1142" type="curve" smooth="yes"/>
      <point x="747" y="1087"/>
      <point x="758" y="1025"/>
      <point x="758" y="955" type="curve" smooth="yes"/>
      <point x="758" y="802"/>
      <point x="688" y="686"/>
      <point x="583" y="627" type="curve" smooth="yes"/>
      <point x="530" y="598"/>
      <point x="474" y="583"/>
      <point x="414" y="583" type="curve" smooth="yes"/>
      <point x="290" y="583"/>
      <point x="193" y="654"/>
      <point x="141" y="764" type="curve" smooth="yes"/>
      <point x="115" y="819"/>
      <point x="102" y="879"/>
      <point x="102" y="944" type="curve" smooth="yes"/>
    </contour>
    <contour>
      <point x="620" y="1120"/>
      <point x="554" y="1232"/>
      <point x="435" y="1232" type="curve" smooth="yes"/>
      <point x="356" y="1232"/>
      <point x="296" y="1185"/>
      <point x="265" y="1101" type="curve" smooth="yes"/>
      <point x="249" y="1059"/>
      <point x="241" y="1009"/>
      <point x="241" y="952" type="curve" smooth="yes"/>
      <point x="241" y="847"/>
      <point x="270" y="757"/>
      <point x="326" y="708" type="curve" smooth="yes"/>
      <point x="354" y="683"/>
      <point x="387" y="671"/>
      <point x="425" y="671" type="curve" smooth="yes"/>
      <point x="504" y="671"/>
      <point x="564" y="716"/>
      <point x="596" y="800" type="curve" smooth="yes"/>
      <point x="612" y="841"/>
      <point x="620" y="891"/>
      <point x="620" y="948" type="curve" smooth="yes"/>
    </contour>
    <contour>
      <point x="1558" y="779"/>
      <point x="1653" y="712"/>
      <point x="1698" y="602" type="curve" smooth="yes"/>
      <point x="1721" y="547"/>
      <point x="1732" y="484"/>
      <point x="1732" y="414" type="curve" smooth="yes"/>
      <point x="1732" y="261"/>
      <point x="1662" y="146"/>
      <point x="1557" y="87" type="curve" smooth="yes"/>
      <point x="1504" y="58"/>
      <point x="1448" y="43"/>
      <point x="1389" y="43" type="curve" smooth="yes"/>
      <point x="1264" y="43"/>
      <point x="1167" y="114"/>
      <point x="1116" y="223" type="curve" smooth="yes"/>
      <point x="1090" y="278"/>
      <point x="1077" y="338"/>
      <point x="1077" y="404" type="curve" smooth="yes"/>
      <point x="1077" y="557"/>
      <point x="1145" y="674"/>
      <point x="1250" y="734" type="curve" smooth="yes"/>
      <point x="1302" y="764"/>
      <point x="1358" y="779"/>
      <point x="1419" y="779" type="curve" smooth="yes"/>
    </contour>
    <contour>
      <point x="1478" y="130"/>
      <point x="1538" y="176"/>
      <point x="1571" y="260" type="curve" smooth="yes"/>
      <point x="1587" y="302"/>
      <point x="1595" y="351"/>
      <point x="1595" y="407" type="curve" smooth="yes"/>
      <point x="1595" y="579"/>
      <point x="1529" y="692"/>
      <point x="1409" y="692" type="curve" smooth="yes"/>
      <point x="1330" y="692"/>
      <point x="1270" y="644"/>
      <point x="1239" y="560" type="curve" smooth="yes"/>
      <point x="1223" y="518"/>
      <point x="1215" y="469"/>
      <point x="1215" y="412" type="curve" smooth="yes"/>
      <point x="1215" y="307"/>
      <point x="1244" y="216"/>
      <point x="1300" y="167" type="curve" smooth="yes"/>
      <point x="1328" y="142"/>
      <point x="1361" y="130"/>
      <point x="1399" y="130" type="curve" smooth="yes"/>
    </contour>
  </outline>
</glyph>
<glyph name="ampersand" format="1">
  <advance width="1356"/>
  <unicode hex="0026"/>
  <note>
	ampersand
  </note>
  <outline>
    <contour>
      <point x="1322" y="730" type="line"/>
      <point x="1322" y="642" type="line"/>
      <point x="1168" y="624" type="line"/>
      <point x="1171" y="452"/>
      <point x="1114" y="288"/>
      <point x="1022" y="192" type="curve"/>
      <point x="1107" y="112"/>
      <point x="1167" y="78"/>
      <point x="1259" y="71" type="curve"/>
      <point x="1259" y="6" type="line"/>
      <point x="1239" y="-5"/>
      <point x="1184" y="-11"/>
      <point x="1149" y="-11" type="curve" smooth="yes"/>
      <point x="1070" y="-11"/>
      <point x="1013" y="21"/>
      <point x="920" y="102" type="curve"/>
      <point x="825" y="19"/>
      <point x="691" y="-15"/>
      <point x="586" y="-15" type="curve" smooth="yes"/>
      <point x="401" y="-15"/>
      <point x="257" y="38"/>
      <point x="180" y="141" type="curve" smooth="yes"/>
      <point x="141" y="192"/>
      <point x="122" y="254"/>
      <point x="122" y="326" type="curve" smooth="yes"/>
      <point x="122" y="429"/>
      <point x="181" y="514"/>
      <point x="257" y="575" type="curve" smooth="yes"/>
      <point x="294" y="605"/>
      <point x="339" y="636"/>
      <point x="392" y="669" type="curve"/>
      <point x="301" y="786"/>
      <point x="232" y="927"/>
      <point x="232" y="1050" type="curve" smooth="yes"/>
      <point x="232" y="1158"/>
      <point x="295" y="1258"/>
      <point x="399" y="1314" type="curve" smooth="yes"/>
      <point x="451" y="1341"/>
      <point x="509" y="1355"/>
      <point x="572" y="1355" type="curve" smooth="yes"/>
      <point x="704" y="1355"/>
      <point x="799" y="1302"/>
      <point x="845" y="1227" type="curve" smooth="yes"/>
      <point x="868" y="1189"/>
      <point x="879" y="1150"/>
      <point x="879" y="1110" type="curve" smooth="yes"/>
      <point x="879" y="986"/>
      <point x="828" y="896"/>
      <point x="761" y="833" type="curve" smooth="yes"/>
      <point x="727" y="801"/>
      <point x="681" y="764"/>
      <point x="623" y="721" type="curve" smooth="yes"/>
      <point x="568" y="679" type="line"/>
      <point x="653" y="576"/>
      <point x="817" y="395"/>
      <point x="906" y="304" type="curve" smooth="yes"/>
      <point x="955" y="256" type="line"/>
      <point x="1022" y="336"/>
      <point x="1053" y="454"/>
      <point x="1053" y="565" type="curve" smooth="yes"/>
      <point x="1053" y="580"/>
      <point x="1052" y="599"/>
      <point x="1050" y="624" type="curve"/>
      <point x="902" y="642" type="line"/>
      <point x="902" y="730" type="line"/>
    </contour>
    <contour>
      <point x="635" y="832"/>
      <point x="692" y="885"/>
      <point x="724" y="961" type="curve" smooth="yes"/>
      <point x="740" y="999"/>
      <point x="748" y="1045"/>
      <point x="748" y="1100" type="curve" smooth="yes"/>
      <point x="748" y="1155"/>
      <point x="730" y="1214"/>
      <point x="677" y="1253" type="curve" smooth="yes"/>
      <point x="650" y="1272"/>
      <point x="614" y="1282"/>
      <point x="568" y="1282" type="curve" smooth="yes"/>
      <point x="497" y="1282"/>
      <point x="435" y="1239"/>
      <point x="401" y="1172" type="curve" smooth="yes"/>
      <point x="384" y="1138"/>
      <point x="375" y="1101"/>
      <point x="375" y="1062" type="curve" smooth="yes"/>
      <point x="375" y="933"/>
      <point x="434" y="840"/>
      <point x="518" y="740" type="curve"/>
    </contour>
    <contour>
      <point x="749" y="260"/>
      <point x="620" y="406"/>
      <point x="444" y="609" type="curve"/>
      <point x="336" y="526"/>
      <point x="268" y="446"/>
      <point x="268" y="341" type="curve" smooth="yes"/>
      <point x="268" y="244"/>
      <point x="317" y="159"/>
      <point x="415" y="112" type="curve" smooth="yes"/>
      <point x="464" y="88"/>
      <point x="523" y="76"/>
      <point x="592" y="76" type="curve" smooth="yes"/>
      <point x="680" y="76"/>
      <point x="783" y="107"/>
      <point x="854" y="163" type="curve"/>
    </contour>
  </outline>
</glyph>
<glyph name="quotesingle" format="1">
  <advance width="626"/>
  <unicode hex="0027"/>
  <note>
	quotesingle
  </note>
  <outline>
    <contour>
      <point x="394" y="1482" type="line"/>
      <point x="360" y="846" type="line"/>
      <point x="266" y="846" type="line"/>
      <point x="232" y="1482" type="line"/>
    </contour>
  </outline>
</glyph>
<glyph name="parenleft" format="1">
  <advance width="762"/>
  <unicode hex="0028"/>
  <note>
	parenleft
  </note>
  <outline>
    <contour>
      <point x="631" y="1447" type="line"/>
      <point x="559" y="1400"/>
      <point x="436" y="1260"/>
      <point x="348" y="1028" type="curve" smooth="yes"/>
      <point x="304" y="912"/>
      <point x="280" y="781"/>
      <point x="277" y="634" type="curve" smooth="yes"/>
      <point x="277" y="600" type="line" smooth="yes"/>
      <point x="277" y="281"/>
      <point x="383" y="26"/>
      <point x="495" y="-124" type="curve" smooth="yes"/>
      <point x="551" y="-199"/>
      <point x="599" y="-251"/>
      <point x="639" y="-280" type="curve"/>
      <point x="566" y="-327" type="line"/>
      <point x="475" y="-274"/>
      <point x="326" y="-130"/>
      <point x="215" y="135" type="curve" smooth="yes"/>
      <point x="160" y="268"/>
      <point x="132" y="423"/>
      <point x="132" y="602" type="curve" smooth="yes"/>
      <point x="132" y="913"/>
      <point x="261" y="1176"/>
      <point x="398" y="1334" type="curve" smooth="yes"/>
      <point x="466" y="1413"/>
      <point x="522" y="1464"/>
      <point x="566" y="1489" type="curve"/>
    </contour>
  </outline>
</glyph>
<glyph name="parenright" format="1">
  <advance width="762"/>
  <unicode hex="0029"/>
  <note>
	parenright
  </note>
  <outline>
    <contour>
      <point x="131" y="-285" type="line"/>
      <point x="203" y="-240"/>
      <point x="326" y="-98"/>
      <point x="414" y="134" type="curve" smooth="yes"/>
      <point x="458" y="249"/>
      <point x="482" y="381"/>
      <point x="485" y="528" type="curve" smooth="yes"/>
      <point x="485" y="561" type="line" smooth="yes"/>
      <point x="485" y="881"/>
      <point x="379" y="1137"/>
      <point x="267" y="1286" type="curve" smooth="yes"/>
      <point x="211" y="1361"/>
      <point x="163" y="1412"/>
      <point x="123" y="1441" type="curve"/>
      <point x="196" y="1489" type="line"/>
      <point x="287" y="1434"/>
      <point x="436" y="1292"/>
      <point x="547" y="1027" type="curve" smooth="yes"/>
      <point x="602" y="894"/>
      <point x="630" y="739"/>
      <point x="630" y="560" type="curve" smooth="yes"/>
      <point x="630" y="248"/>
      <point x="501" y="-15"/>
      <point x="365" y="-172" type="curve" smooth="yes"/>
      <point x="296" y="-251"/>
      <point x="240" y="-302"/>
      <point x="196" y="-327" type="curve"/>
    </contour>
  </outline>
</glyph>
<glyph name="asterisk" format="1">
  <advance width="1141"/>
  <unicode hex="002A"/>
  <note>
	asterisk
  </note>
  <outline>
    <contour>
      <point x="399" y="969" type="line"/>
      <point x="535" y="1016" type="line"/>
      <point x="399" y="1060" type="line"/>
      <point x="145" y="1177" type="line"/>
      <point x="215" y="1300" type="line"/>
      <point x="442" y="1140" type="line"/>
      <point x="553" y="1045" type="line"/>
      <point x="523" y="1188" type="line"/>
      <point x="495" y="1465" type="line"/>
      <point x="637" y="1465" type="line"/>
      <point x="614" y="1189" type="line"/>
      <point x="587" y="1047" type="line"/>
      <point x="694" y="1143" type="line"/>
      <point x="921" y="1305" type="line"/>
      <point x="992" y="1184" type="line"/>
      <point x="743" y="1065" type="line"/>
      <point x="605" y="1016" type="line"/>
      <point x="743" y="972" type="line"/>
      <point x="996" y="858" type="line"/>
      <point x="924" y="732" type="line"/>
      <point x="700" y="891" type="line"/>
      <point x="587" y="986" type="line"/>
      <point x="617" y="843" type="line"/>
      <point x="647" y="566" type="line"/>
      <point x="504" y="565" type="line"/>
      <point x="525" y="843" type="line"/>
      <point x="552" y="986" type="line"/>
      <point x="445" y="888" type="line"/>
      <point x="219" y="726" type="line"/>
      <point x="147" y="848" type="line"/>
    </contour>
  </outline>
</glyph>
<glyph name="plus" format="1">
  <advance width="1190"/>
  <unicode hex="002B"/>
  <note>
	plus
  </note>
  <outline>
    <contour>
      <point x="388" y="597" type="line"/>
      <point x="542" y="587" type="line"/>
      <point x="537" y="745" type="line"/>
      <point x="537" y="946" type="line"/>
      <point x="654" y="946" type="line"/>
      <point x="654" y="745" type="line"/>
      <point x="647" y="587" type="line"/>
      <point x="780" y="597" type="line"/>
      <point x="998" y="597" type="line"/>
      <point x="998" y="480" type="line"/>
      <point x="780" y="480" type="line"/>
      <point x="647" y="485" type="line"/>
      <point x="654" y="329" type="line"/>
      <point x="654" y="118" type="line"/>
      <point x="537" y="118" type="line"/>
      <point x="537" y="329" type="line"/>
      <point x="542" y="485" type="line"/>
      <point x="388" y="480" type="line"/>
      <point x="193" y="480" type="line"/>
      <point x="193" y="597" type="line"/>
    </contour>
  </outline>
</glyph>
<glyph name="comma" format="1">
  <advance width="603"/>
  <unicode hex="002C"/>
  <note>
	comma
  </note>
  <outline>
    <contour>
      <point x="313" y="250" type="line" smooth="yes"/>
      <point x="386" y="250"/>
      <point x="429" y="165"/>
      <point x="429" y="28" type="curve" smooth="yes"/>
      <point x="429" y="-103"/>
      <point x="390" y="-220"/>
      <point x="332" y="-299" type="curve" smooth="yes"/>
      <point x="303" y="-339"/>
      <point x="272" y="-368"/>
      <point x="240" y="-385" type="curve"/>
      <point x="238" y="-385" type="line"/>
      <point x="194" y="-350" type="line"/>
      <point x="194" y="-334" type="line"/>
      <point x="253" y="-286"/>
      <point x="304" y="-208"/>
      <point x="304" y="-77" type="curve" smooth="yes"/>
      <point x="304" y="-12"/>
      <point x="289" y="17"/>
      <point x="257" y="58" type="curve" smooth="yes"/>
      <point x="230" y="93"/>
      <point x="217" y="115"/>
      <point x="217" y="159" type="curve" smooth="yes"/>
      <point x="217" y="215"/>
      <point x="257" y="250"/>
      <point x="306" y="250" type="curve" smooth="yes"/>
    </contour>
  </outline>
</glyph>
<glyph name="hyphen" format="1">
  <advance width="1130"/>
  <unicode hex="002D"/>
  <note>
	hyphen
  </note>
  <outline>
    <contour>
      <point x="928" y="597" type="line"/>
      <point x="928" y="488" type="line"/>
      <point x="202" y="488" type="line"/>
      <point x="202" y="597" type="line"/>
    </contour>
  </outline>
</glyph>
<glyph name="period" format="1">
  <advance width="442"/>
  <unicode hex="002E"/>
  <note>
	period
  </note>
  <outline>
    <contour>
      <point x="114" y="125"/>
      <point x="139" y="164"/>
      <point x="175" y="185" type="curve" smooth="yes"/>
      <point x="193" y="196"/>
      <point x="212" y="201"/>
      <point x="231" y="201" type="curve" smooth="yes"/>
      <point x="295" y="201"/>
      <point x="328" y="158"/>
      <point x="328" y="99" type="curve" smooth="yes"/>
      <point x="328" y="54"/>
      <point x="305" y="16"/>
      <point x="270" y="-4" type="curve" smooth="yes"/>
      <point x="252" y="-14"/>
      <point x="233" y="-19"/>
      <point x="212" y="-19" type="curve" smooth="yes"/>
      <point x="159" y="-19"/>
      <point x="114" y="22"/>
      <point x="114" y="82" type="curve" smooth="yes"/>
    </contour>
  </outline>
</glyph>
<glyph name="slash" format="1">
  <advance width="776"/>
  <unicode hex="002F"/>
  <note>
	slash
  </note>
  <outline>
    <contour>
      <point x="708" y="1407" type="line"/>
      <point x="203" y="-319" type="line"/>
      <point x="69" y="-319" type="line"/>
      <point x="573" y="1407" type="line"/>
    </contour>
  </outline>
</glyph>
<glyph name="zero" format="1">
  <advance width="1143"/>
  <unicode hex="0030"/>
  <note>
	zero
  </note>
  <outline>
    <contour>
      <point x="117" y="788"/>
      <point x="207" y="970"/>
      <point x="351" y="1066" type="curve" smooth="yes"/>
      <point x="422" y="1113"/>
      <point x="501" y="1137"/>
      <point x="587" y="1137" type="curve" smooth="yes"/>
      <point x="906" y="1137"/>
      <point x="1030" y="911"/>
      <point x="1027" y="566" type="curve" smooth="yes"/>
      <point x="1026" y="346"/>
      <point x="940" y="161"/>
      <point x="800" y="60" type="curve" smooth="yes"/>
      <point x="729" y="9"/>
      <point x="650" y="-16"/>
      <point x="563" y="-16" type="curve" smooth="yes"/>
      <point x="355" y="-16"/>
      <point x="223" y="99"/>
      <point x="163" y="275" type="curve" smooth="yes"/>
      <point x="132" y="362"/>
      <point x="117" y="458"/>
      <point x="117" y="563" type="curve" smooth="yes"/>
    </contour>
    <contour>
      <point x="869" y="862"/>
      <point x="785" y="1055"/>
      <point x="576" y="1055" type="curve" smooth="yes"/>
      <point x="371" y="1055"/>
      <point x="275" y="880"/>
      <point x="275" y="584" type="curve" smooth="yes"/>
      <point x="275" y="397"/>
      <point x="312" y="234"/>
      <point x="400" y="138" type="curve" smooth="yes"/>
      <point x="444" y="90"/>
      <point x="501" y="66"/>
      <point x="570" y="66" type="curve" smooth="yes"/>
      <point x="777" y="66"/>
      <point x="869" y="248"/>
      <point x="869" y="559" type="curve" smooth="yes"/>
    </contour>
  </outline>
</glyph>
<glyph name="one" format="1">
  <advance width="771"/>
  <unicode hex="0031"/>
  <note>
	one
  </note>
  <outline>
    <contour>
      <point x="349" y="92" type="line"/>
      <point x="349" y="961" type="line"/>
      <point x="300" y="937"/>
      <point x="166" y="900"/>
      <point x="91" y="891" type="curve"/>
      <point x="71" y="975" type="line"/>
      <point x="192" y="1002"/>
      <point x="319" y="1067"/>
      <point x="407" y="1140" type="curve"/>
      <point x="408" y="1140" type="line"/>
      <point x="495" y="1122" type="line"/>
      <point x="495" y="92" type="line"/>
      <point x="731" y="77" type="line"/>
      <point x="731" y="0" type="line"/>
      <point x="108" y="0" type="line"/>
      <point x="108" y="77" type="line"/>
    </contour>
  </outline>
</glyph>
<glyph name="two" format="1">
  <advance width="1070"/>
  <unicode hex="0032"/>
  <note>
	two
  </note>
  <outline>
    <contour>
      <point x="93" y="62" type="line"/>
      <point x="318" y="186"/>
      <point x="523" y="364"/>
      <point x="639" y="546" type="curve" smooth="yes"/>
      <point x="697" y="637"/>
      <point x="726" y="721"/>
      <point x="726" y="798" type="curve" smooth="yes"/>
      <point x="726" y="941"/>
      <point x="639" y="1031"/>
      <point x="483" y="1031" type="curve" smooth="yes"/>
      <point x="339" y="1031"/>
      <point x="236" y="963"/>
      <point x="152" y="882" type="curve"/>
      <point x="101" y="950" type="line"/>
      <point x="157" y="1011"/>
      <point x="241" y="1072"/>
      <point x="350" y="1112" type="curve" smooth="yes"/>
      <point x="404" y="1131"/>
      <point x="461" y="1141"/>
      <point x="522" y="1141" type="curve" smooth="yes"/>
      <point x="686" y="1141"/>
      <point x="800" y="1074"/>
      <point x="854" y="975" type="curve" smooth="yes"/>
      <point x="881" y="925"/>
      <point x="894" y="871"/>
      <point x="894" y="813" type="curve" smooth="yes"/>
      <point x="894" y="648"/>
      <point x="772" y="464"/>
      <point x="589" y="303" type="curve" smooth="yes"/>
      <point x="497" y="222"/>
      <point x="396" y="150"/>
      <point x="286" y="85" type="curve"/>
      <point x="869" y="122" type="line"/>
      <point x="928" y="279" type="line"/>
      <point x="1008" y="262" type="line"/>
      <point x="964" y="0" type="line"/>
      <point x="116" y="0" type="line"/>
    </contour>
  </outline>
</glyph>
<glyph name="three" format="1">
  <advance width="1002"/>
  <unicode hex="0033"/>
  <note>
	three
  </note>
  <outline>
    <contour>
      <point x="451" y="-203"/>
      <point x="603" y="-134"/>
      <point x="681" y="-27" type="curve" smooth="yes"/>
      <point x="720" y="26"/>
      <point x="739" y="85"/>
      <point x="739" y="149" type="curve" smooth="yes"/>
      <point x="739" y="318"/>
      <point x="637" y="416"/>
      <point x="414" y="420" type="curve"/>
      <point x="403" y="415"/>
      <point x="325" y="395"/>
      <point x="297" y="388" type="curve"/>
      <point x="270" y="474" type="line"/>
      <point x="363" y="490"/>
      <point x="503" y="537"/>
      <point x="604" y="649" type="curve" smooth="yes"/>
      <point x="655" y="705"/>
      <point x="680" y="765"/>
      <point x="680" y="830" type="curve" smooth="yes"/>
      <point x="680" y="973"/>
      <point x="585" y="1036"/>
      <point x="450" y="1036" type="curve" smooth="yes"/>
      <point x="341" y="1036"/>
      <point x="229" y="992"/>
      <point x="156" y="932" type="curve"/>
      <point x="115" y="997" type="line"/>
      <point x="158" y="1037"/>
      <point x="236" y="1086"/>
      <point x="336" y="1118" type="curve" smooth="yes"/>
      <point x="386" y="1133"/>
      <point x="437" y="1141"/>
      <point x="488" y="1141" type="curve" smooth="yes"/>
      <point x="699" y="1141"/>
      <point x="841" y="1050"/>
      <point x="841" y="854" type="curve" smooth="yes"/>
      <point x="841" y="742"/>
      <point x="771" y="632"/>
      <point x="668" y="555" type="curve" smooth="yes"/>
      <point x="616" y="516"/>
      <point x="561" y="487"/>
      <point x="504" y="467" type="curve"/>
      <point x="521" y="469"/>
      <point x="538" y="470"/>
      <point x="554" y="470" type="curve" smooth="yes"/>
      <point x="697" y="470"/>
      <point x="807" y="411"/>
      <point x="864" y="320" type="curve" smooth="yes"/>
      <point x="892" y="275"/>
      <point x="906" y="225"/>
      <point x="906" y="171" type="curve" smooth="yes"/>
      <point x="906" y="-8"/>
      <point x="796" y="-153"/>
      <point x="604" y="-231" type="curve" smooth="yes"/>
      <point x="507" y="-270"/>
      <point x="396" y="-290"/>
      <point x="270" y="-290" type="curve" smooth="yes"/>
      <point x="226" y="-290"/>
      <point x="164" y="-284"/>
      <point x="120" y="-275" type="curve"/>
      <point x="120" y="-190" type="line"/>
      <point x="152" y="-199"/>
      <point x="206" y="-203"/>
      <point x="247" y="-203" type="curve" smooth="yes"/>
    </contour>
  </outline>
</glyph>
<glyph name="four" format="1">
  <advance width="1141"/>
  <unicode hex="0034"/>
  <note>
	four
  </note>
  <outline>
    <contour>
      <point x="75" y="71" type="line"/>
      <point x="232" y="366"/>
      <point x="463" y="852"/>
      <point x="631" y="1224" type="curve"/>
      <point x="673" y="1224" type="line"/>
      <point x="780" y="1165" type="line"/>
      <point x="275" y="189" type="line"/>
      <point x="207" y="84" type="line"/>
      <point x="713" y="107" type="line"/>
      <point x="714" y="468" type="line"/>
      <point x="842" y="480" type="line"/>
      <point x="842" y="114" type="line"/>
      <point x="1109" y="127" type="line"/>
      <point x="1109" y="0" type="line"/>
      <point x="842" y="0" type="line"/>
      <point x="842" y="-290" type="line"/>
      <point x="713" y="-290" type="line"/>
      <point x="713" y="0" type="line"/>
      <point x="114" y="0" type="line"/>
    </contour>
  </outline>
</glyph>
<glyph name="five" format="1">
  <advance width="1051"/>
  <unicode hex="0035"/>
  <note>
	five
  </note>
  <outline>
    <contour>
      <point x="458" y="-215"/>
      <point x="611" y="-141"/>
      <point x="696" y="-13" type="curve" smooth="yes"/>
      <point x="738" y="50"/>
      <point x="759" y="123"/>
      <point x="759" y="205" type="curve" smooth="yes"/>
      <point x="759" y="422"/>
      <point x="654" y="519"/>
      <point x="477" y="519" type="curve" smooth="yes"/>
      <point x="397" y="519"/>
      <point x="285" y="494"/>
      <point x="212" y="458" type="curve"/>
      <point x="172" y="489" type="line"/>
      <point x="261" y="1126" type="line"/>
      <point x="745" y="1126" type="line"/>
      <point x="764" y="1160" type="line"/>
      <point x="869" y="1160" type="line"/>
      <point x="840" y="1001" type="line"/>
      <point x="370" y="1001" type="line"/>
      <point x="285" y="551" type="line"/>
      <point x="348" y="586"/>
      <point x="459" y="614"/>
      <point x="556" y="614" type="curve" smooth="yes"/>
      <point x="703" y="614"/>
      <point x="816" y="558"/>
      <point x="877" y="442" type="curve" smooth="yes"/>
      <point x="908" y="384"/>
      <point x="923" y="311"/>
      <point x="923" y="224" type="curve" smooth="yes"/>
      <point x="923" y="48"/>
      <point x="816" y="-120"/>
      <point x="627" y="-217" type="curve" smooth="yes"/>
      <point x="532" y="-266"/>
      <point x="423" y="-290"/>
      <point x="300" y="-290" type="curve" smooth="yes"/>
      <point x="251" y="-290"/>
      <point x="209" y="-286"/>
      <point x="174" y="-278" type="curve"/>
      <point x="175" y="-209" type="line"/>
      <point x="208" y="-213"/>
      <point x="243" y="-215"/>
      <point x="282" y="-215" type="curve" smooth="yes"/>
    </contour>
  </outline>
</glyph>
<glyph name="six" format="1">
  <advance width="1187"/>
  <unicode hex="0036"/>
  <note>
	six
  </note>
  <outline>
    <contour>
      <point x="146" y="820"/>
      <point x="303" y="1090"/>
      <point x="530" y="1257" type="curve" smooth="yes"/>
      <point x="643" y="1340"/>
      <point x="761" y="1394"/>
      <point x="882" y="1417" type="curve"/>
      <point x="915" y="1350" type="line"/>
      <point x="716" y="1286"/>
      <point x="554" y="1159"/>
      <point x="448" y="999" type="curve" smooth="yes"/>
      <point x="395" y="918"/>
      <point x="357" y="833"/>
      <point x="334" y="744" type="curve"/>
      <point x="397" y="823"/>
      <point x="511" y="884"/>
      <point x="659" y="884" type="curve" smooth="yes"/>
      <point x="830" y="884"/>
      <point x="948" y="815"/>
      <point x="1006" y="691" type="curve" smooth="yes"/>
      <point x="1035" y="629"/>
      <point x="1049" y="556"/>
      <point x="1049" y="471" type="curve" smooth="yes"/>
      <point x="1049" y="298"/>
      <point x="976" y="139"/>
      <point x="840" y="49" type="curve" smooth="yes"/>
      <point x="772" y="4"/>
      <point x="692" y="-19"/>
      <point x="601" y="-19" type="curve" smooth="yes"/>
      <point x="410" y="-19"/>
      <point x="270" y="86"/>
      <point x="199" y="250" type="curve" smooth="yes"/>
      <point x="164" y="331"/>
      <point x="146" y="421"/>
      <point x="146" y="520" type="curve" smooth="yes"/>
    </contour>
    <contour>
      <point x="312" y="611"/>
      <point x="311" y="594"/>
      <point x="311" y="577" type="curve" smooth="yes"/>
      <point x="311" y="545" type="line" smooth="yes"/>
      <point x="311" y="265"/>
      <point x="396" y="61"/>
      <point x="611" y="61" type="curve" smooth="yes"/>
      <point x="734" y="61"/>
      <point x="819" y="142"/>
      <point x="860" y="256" type="curve" smooth="yes"/>
      <point x="881" y="313"/>
      <point x="891" y="371"/>
      <point x="891" y="432" type="curve" smooth="yes"/>
      <point x="891" y="680"/>
      <point x="789" y="788"/>
      <point x="625" y="788" type="curve" smooth="yes"/>
      <point x="522" y="788"/>
      <point x="433" y="748"/>
      <point x="374" y="699" type="curve" smooth="yes"/>
      <point x="345" y="674"/>
      <point x="324" y="650"/>
      <point x="313" y="627" type="curve"/>
    </contour>
  </outline>
</glyph>
<glyph name="seven" format="1">
  <advance width="1052"/>
  <unicode hex="0037"/>
  <note>
	seven
  </note>
  <outline>
    <contour>
      <point x="253" y="1005" type="line"/>
      <point x="192" y="780" type="line"/>
      <point x="96" y="796" type="line"/>
      <point x="132" y="1126" type="line"/>
      <point x="928" y="1126" type="line"/>
      <point x="959" y="1087" type="line"/>
      <point x="681" y="305" type="line" smooth="yes"/>
      <point x="630" y="162"/>
      <point x="584" y="34"/>
      <point x="545" y="-77" type="curve" smooth="yes"/>
      <point x="506" y="-189"/>
      <point x="479" y="-265"/>
      <point x="464" y="-304" type="curve"/>
      <point x="304" y="-260" type="line"/>
      <point x="421" y="-3"/>
      <point x="520" y="246"/>
      <point x="692" y="678" type="curve" smooth="yes"/>
      <point x="751" y="827"/>
      <point x="795" y="938"/>
      <point x="824" y="1010" type="curve"/>
    </contour>
  </outline>
</glyph>
<glyph name="eight" format="1">
  <advance width="1130"/>
  <unicode hex="0038"/>
  <note>
	eight
  </note>
  <outline>
    <contour>
      <point x="270" y="782"/>
      <point x="186" y="883"/>
      <point x="186" y="1038" type="curve" smooth="yes"/>
      <point x="186" y="1178"/>
      <point x="267" y="1281"/>
      <point x="387" y="1333" type="curve" smooth="yes"/>
      <point x="447" y="1359"/>
      <point x="511" y="1372"/>
      <point x="579" y="1372" type="curve" smooth="yes"/>
      <point x="723" y="1372"/>
      <point x="841" y="1322"/>
      <point x="906" y="1232" type="curve" smooth="yes"/>
      <point x="938" y="1187"/>
      <point x="954" y="1134"/>
      <point x="954" y="1074" type="curve" smooth="yes"/>
      <point x="954" y="933"/>
      <point x="863" y="800"/>
      <point x="708" y="708" type="curve"/>
      <point x="832" y="639"/>
      <point x="915" y="581"/>
      <point x="969" y="494" type="curve" smooth="yes"/>
      <point x="996" y="451"/>
      <point x="1009" y="402"/>
      <point x="1009" y="347" type="curve" smooth="yes"/>
      <point x="1009" y="203"/>
      <point x="918" y="89"/>
      <point x="781" y="29" type="curve" smooth="yes"/>
      <point x="712" y="-1"/>
      <point x="640" y="-16"/>
      <point x="565" y="-16" type="curve" smooth="yes"/>
      <point x="420" y="-16"/>
      <point x="278" y="30"/>
      <point x="193" y="134" type="curve" smooth="yes"/>
      <point x="150" y="186"/>
      <point x="129" y="252"/>
      <point x="129" y="331" type="curve" smooth="yes"/>
      <point x="129" y="475"/>
      <point x="224" y="608"/>
      <point x="413" y="695" type="curve"/>
    </contour>
    <contour>
      <point x="748" y="810"/>
      <point x="826" y="918"/>
      <point x="826" y="1033" type="curve" smooth="yes"/>
      <point x="826" y="1142"/>
      <point x="782" y="1225"/>
      <point x="706" y="1267" type="curve" smooth="yes"/>
      <point x="667" y="1288"/>
      <point x="623" y="1298"/>
      <point x="572" y="1298" type="curve" smooth="yes"/>
      <point x="477" y="1298"/>
      <point x="396" y="1260"/>
      <point x="349" y="1192" type="curve" smooth="yes"/>
      <point x="326" y="1157"/>
      <point x="314" y="1117"/>
      <point x="314" y="1071" type="curve" smooth="yes"/>
      <point x="314" y="978"/>
      <point x="377" y="904"/>
      <point x="461" y="848" type="curve" smooth="yes"/>
      <point x="503" y="820"/>
      <point x="559" y="788"/>
      <point x="629" y="751" type="curve"/>
    </contour>
    <contour>
      <point x="486" y="654" type="line"/>
      <point x="359" y="594"/>
      <point x="272" y="486"/>
      <point x="272" y="363" type="curve" smooth="yes"/>
      <point x="272" y="240"/>
      <point x="325" y="148"/>
      <point x="418" y="99" type="curve" smooth="yes"/>
      <point x="464" y="74"/>
      <point x="518" y="62"/>
      <point x="581" y="62" type="curve" smooth="yes"/>
      <point x="673" y="62"/>
      <point x="767" y="108"/>
      <point x="821" y="184" type="curve" smooth="yes"/>
      <point x="848" y="222"/>
      <point x="861" y="265"/>
      <point x="861" y="313" type="curve" smooth="yes"/>
      <point x="861" y="406"/>
      <point x="801" y="476"/>
      <point x="723" y="525" type="curve" smooth="yes"/>
      <point x="684" y="550"/>
      <point x="630" y="580"/>
      <point x="561" y="615" type="curve" smooth="yes"/>
    </contour>
  </outline>
</glyph>
<glyph name="nine" format="1">
  <advance width="1187"/>
  <unicode hex="0039"/>
  <note>
	nine
  </note>
  <outline>
    <contour>
      <point x="1057" y="303"/>
      <point x="915" y="31"/>
      <point x="702" y="-137" type="curve" smooth="yes"/>
      <point x="595" y="-221"/>
      <point x="482" y="-275"/>
      <point x="361" y="-299" type="curve"/>
      <point x="326" y="-231" type="line"/>
      <point x="522" y="-166"/>
      <point x="673" y="-40"/>
      <point x="768" y="120" type="curve" smooth="yes"/>
      <point x="815" y="200"/>
      <point x="849" y="286"/>
      <point x="869" y="379" type="curve"/>
      <point x="809" y="300"/>
      <point x="691" y="237"/>
      <point x="567" y="237" type="curve" smooth="yes"/>
      <point x="394" y="237"/>
      <point x="267" y="312"/>
      <point x="200" y="442" type="curve" smooth="yes"/>
      <point x="167" y="507"/>
      <point x="150" y="583"/>
      <point x="150" y="671" type="curve" smooth="yes"/>
      <point x="150" y="838"/>
      <point x="226" y="989"/>
      <point x="364" y="1076" type="curve" smooth="yes"/>
      <point x="433" y="1119"/>
      <point x="513" y="1141"/>
      <point x="605" y="1141" type="curve" smooth="yes"/>
      <point x="805" y="1141"/>
      <point x="942" y="1041"/>
      <point x="1008" y="884" type="curve" smooth="yes"/>
      <point x="1041" y="805"/>
      <point x="1057" y="717"/>
      <point x="1057" y="619" type="curve" smooth="yes"/>
    </contour>
    <contour>
      <point x="890" y="513"/>
      <point x="891" y="534"/>
      <point x="892" y="562" type="curve" smooth="yes"/>
      <point x="893" y="602" type="line" smooth="yes"/>
      <point x="893" y="871"/>
      <point x="814" y="1060"/>
      <point x="595" y="1060" type="curve" smooth="yes"/>
      <point x="471" y="1060"/>
      <point x="383" y="983"/>
      <point x="340" y="873" type="curve" smooth="yes"/>
      <point x="319" y="818"/>
      <point x="308" y="761"/>
      <point x="308" y="702" type="curve" smooth="yes"/>
      <point x="308" y="446"/>
      <point x="414" y="330"/>
      <point x="581" y="330" type="curve" smooth="yes"/>
      <point x="681" y="330"/>
      <point x="772" y="371"/>
      <point x="829" y="423" type="curve" smooth="yes"/>
      <point x="858" y="449"/>
      <point x="878" y="474"/>
      <point x="889" y="499" type="curve"/>
    </contour>
  </outline>
</glyph>
<glyph name="colon" format="1">
  <advance width="622"/>
  <unicode hex="003A"/>
  <note>
	colon
  </note>
  <outline>
    <contour>
      <point x="203" y="874"/>
      <point x="228" y="913"/>
      <point x="264" y="934" type="curve" smooth="yes"/>
      <point x="282" y="945"/>
      <point x="301" y="950"/>
      <point x="320" y="950" type="curve" smooth="yes"/>
      <point x="384" y="950"/>
      <point x="417" y="907"/>
      <point x="417" y="848" type="curve" smooth="yes"/>
      <point x="417" y="803"/>
      <point x="394" y="765"/>
      <point x="359" y="745" type="curve" smooth="yes"/>
      <point x="341" y="735"/>
      <point x="322" y="730"/>
      <point x="301" y="730" type="curve" smooth="yes"/>
      <point x="248" y="730"/>
      <point x="203" y="771"/>
      <point x="203" y="831" type="curve" smooth="yes"/>
    </contour>
    <contour>
      <point x="203" y="125"/>
      <point x="228" y="164"/>
      <point x="264" y="185" type="curve" smooth="yes"/>
      <point x="282" y="196"/>
      <point x="301" y="201"/>
      <point x="320" y="201" type="curve" smooth="yes"/>
      <point x="384" y="201"/>
      <point x="417" y="158"/>
      <point x="417" y="99" type="curve" smooth="yes"/>
      <point x="417" y="54"/>
      <point x="394" y="16"/>
      <point x="359" y="-4" type="curve" smooth="yes"/>
      <point x="341" y="-14"/>
      <point x="322" y="-19"/>
      <point x="301" y="-19" type="curve" smooth="yes"/>
      <point x="248" y="-19"/>
      <point x="203" y="22"/>
      <point x="203" y="82" type="curve" smooth="yes"/>
    </contour>
  </outline>
</glyph>
<glyph name="semicolon" format="1">
  <advance width="622"/>
  <unicode hex="003B"/>
  <note>
	semicolon
  </note>
  <outline>
    <contour>
      <point x="313" y="250" type="line" smooth="yes"/>
      <point x="386" y="250"/>
      <point x="429" y="165"/>
      <point x="429" y="28" type="curve" smooth="yes"/>
      <point x="429" y="-103"/>
      <point x="390" y="-220"/>
      <point x="332" y="-299" type="curve" smooth="yes"/>
      <point x="303" y="-339"/>
      <point x="272" y="-368"/>
      <point x="240" y="-385" type="curve"/>
      <point x="238" y="-385" type="line"/>
      <point x="194" y="-350" type="line"/>
      <point x="194" y="-334" type="line"/>
      <point x="253" y="-286"/>
      <point x="304" y="-208"/>
      <point x="304" y="-77" type="curve" smooth="yes"/>
      <point x="304" y="-12"/>
      <point x="289" y="17"/>
      <point x="257" y="58" type="curve" smooth="yes"/>
      <point x="230" y="93"/>
      <point x="217" y="115"/>
      <point x="217" y="159" type="curve" smooth="yes"/>
      <point x="217" y="215"/>
      <point x="257" y="250"/>
      <point x="306" y="250" type="curve" smooth="yes"/>
    </contour>
    <contour>
      <point x="206" y="874"/>
      <point x="231" y="913"/>
      <point x="267" y="934" type="curve" smooth="yes"/>
      <point x="285" y="945"/>
      <point x="304" y="950"/>
      <point x="323" y="950" type="curve" smooth="yes"/>
      <point x="387" y="950"/>
      <point x="420" y="907"/>
      <point x="420" y="848" type="curve" smooth="yes"/>
      <point x="420" y="803"/>
      <point x="397" y="765"/>
      <point x="362" y="745" type="curve" smooth="yes"/>
      <point x="344" y="735"/>
      <point x="325" y="730"/>
      <point x="304" y="730" type="curve" smooth="yes"/>
      <point x="251" y="730"/>
      <point x="206" y="771"/>
      <point x="206" y="831" type="curve" smooth="yes"/>
    </contour>
  </outline>
</glyph>
<glyph name="equal" format="1">
  <advance width="1176"/>
  <unicode hex="003D"/>
  <note>
	equal
  </note>
  <outline>
    <contour>
      <point x="992" y="847" type="line"/>
      <point x="992" y="736" type="line"/>
      <point x="185" y="736" type="line"/>
      <point x="185" y="847" type="line"/>
    </contour>
    <contour>
      <point x="992" y="348" type="line"/>
      <point x="992" y="237" type="line"/>
      <point x="185" y="237" type="line"/>
      <point x="185" y="348" type="line"/>
    </contour>
  </outline>
</glyph>
<glyph name="greater" format="1">
  <advance width="1205"/>
  <unicode hex="003E"/>
  <note>
	greater
  </note>
  <outline>
    <contour>
      <point x="1058" y="495" type="line"/>
      <point x="206" y="48" type="line"/>
      <point x="206" y="185" type="line"/>
      <point x="927" y="542" type="line"/>
      <point x="206" y="900" type="line"/>
      <point x="206" y="1037" type="line"/>
      <point x="1058" y="590" type="line"/>
    </contour>
  </outline>
</glyph>
<glyph name="question" format="1">
  <advance width="857"/>
  <unicode hex="003F"/>
  <note>
	question
  </note>
  <outline>
    <contour>
      <point x="323" y="907"/>
      <point x="702" y="932"/>
      <point x="702" y="1215" type="curve" smooth="yes"/>
      <point x="702" y="1365"/>
      <point x="608" y="1461"/>
      <point x="417" y="1461" type="curve" smooth="yes"/>
      <point x="333" y="1461"/>
      <point x="234" y="1436"/>
      <point x="158" y="1385" type="curve"/>
      <point x="130" y="1464" type="line"/>
      <point x="191" y="1517"/>
      <point x="278" y="1573"/>
      <point x="438" y="1573" type="curve" smooth="yes"/>
      <point x="684" y="1573"/>
      <point x="838" y="1461"/>
      <point x="838" y="1234" type="curve" smooth="yes"/>
      <point x="838" y="899"/>
      <point x="407" y="838"/>
      <point x="407" y="536" type="curve" smooth="yes"/>
      <point x="407" y="500"/>
      <point x="415" y="467"/>
      <point x="420" y="426" type="curve"/>
      <point x="341" y="426" type="line"/>
      <point x="331" y="472"/>
      <point x="323" y="513"/>
      <point x="323" y="554" type="curve" smooth="yes"/>
    </contour>
    <contour>
      <point x="284" y="125"/>
      <point x="309" y="164"/>
      <point x="345" y="185" type="curve" smooth="yes"/>
      <point x="363" y="196"/>
      <point x="382" y="201"/>
      <point x="401" y="201" type="curve" smooth="yes"/>
      <point x="465" y="201"/>
      <point x="498" y="158"/>
      <point x="498" y="99" type="curve" smooth="yes"/>
      <point x="498" y="54"/>
      <point x="475" y="16"/>
      <point x="440" y="-4" type="curve" smooth="yes"/>
      <point x="422" y="-14"/>
      <point x="403" y="-19"/>
      <point x="382" y="-19" type="curve" smooth="yes"/>
      <point x="329" y="-19"/>
      <point x="284" y="22"/>
      <point x="284" y="82" type="curve" smooth="yes"/>
    </contour>
  </outline>
</glyph>
<glyph name="at" format="1">
  <advance width="1936"/>
  <unicode hex="0040"/>
  <note>
	at
  </note>
  <outline>
    <contour>
      <point x="1354" y="1355"/>
      <point x="1547" y="1256"/>
      <point x="1654" y="1059" type="curve" smooth="yes"/>
      <point x="1707" y="960"/>
      <point x="1734" y="839"/>
      <point x="1734" y="695" type="curve" smooth="yes"/>
      <point x="1734" y="403"/>
      <point x="1604" y="179"/>
      <point x="1452" y="64" type="curve" smooth="yes"/>
      <point x="1376" y="6"/>
      <point x="1310" y="-23"/>
      <point x="1254" y="-23" type="curve" smooth="yes"/>
      <point x="1211" y="-23"/>
      <point x="1170" y="2"/>
      <point x="1144" y="49" type="curve" smooth="yes"/>
      <point x="1131" y="72"/>
      <point x="1123" y="100"/>
      <point x="1121" y="133" type="curve" smooth="yes"/>
      <point x="1120" y="148"/>
      <point x="1119" y="161"/>
      <point x="1119" y="170" type="curve" smooth="yes"/>
      <point x="1119" y="225"/>
      <point x="1128" y="299"/>
      <point x="1145" y="392" type="curve"/>
      <point x="1090" y="245"/>
      <point x="1013" y="114"/>
      <point x="926" y="36" type="curve" smooth="yes"/>
      <point x="883" y="-3"/>
      <point x="839" y="-23"/>
      <point x="796" y="-23" type="curve" smooth="yes"/>
      <point x="716" y="-23"/>
      <point x="635" y="36"/>
      <point x="588" y="144" type="curve" smooth="yes"/>
      <point x="565" y="197"/>
      <point x="553" y="260"/>
      <point x="553" y="332" type="curve" smooth="yes"/>
      <point x="553" y="500"/>
      <point x="632" y="700"/>
      <point x="770" y="823" type="curve" smooth="yes"/>
      <point x="839" y="884"/>
      <point x="918" y="915"/>
      <point x="1007" y="915" type="curve" smooth="yes"/>
      <point x="1075" y="915"/>
      <point x="1159" y="896"/>
      <point x="1218" y="863" type="curve"/>
      <point x="1224" y="879"/>
      <point x="1230" y="891"/>
      <point x="1235" y="899" type="curve"/>
      <point x="1240" y="906"/>
      <point x="1246" y="909"/>
      <point x="1254" y="907" type="curve"/>
      <point x="1272" y="901"/>
      <point x="1288" y="896"/>
      <point x="1303" y="891" type="curve"/>
      <point x="1324" y="882"/>
      <point x="1337" y="877"/>
      <point x="1341" y="876" type="curve"/>
      <point x="1306" y="711"/>
      <point x="1261" y="450"/>
      <point x="1250" y="293" type="curve"/>
      <point x="1247" y="267"/>
      <point x="1246" y="242"/>
      <point x="1246" y="217" type="curve" smooth="yes"/>
      <point x="1246" y="174"/>
      <point x="1250" y="142"/>
      <point x="1258" y="122" type="curve" smooth="yes"/>
      <point x="1266" y="102"/>
      <point x="1276" y="92"/>
      <point x="1289" y="92" type="curve" smooth="yes"/>
      <point x="1380" y="92"/>
      <point x="1500" y="193"/>
      <point x="1576" y="366" type="curve" smooth="yes"/>
      <point x="1613" y="453"/>
      <point x="1632" y="551"/>
      <point x="1632" y="662" type="curve" smooth="yes"/>
      <point x="1632" y="931"/>
      <point x="1518" y="1109"/>
      <point x="1346" y="1191" type="curve" smooth="yes"/>
      <point x="1259" y="1232"/>
      <point x="1164" y="1252"/>
      <point x="1059" y="1252" type="curve" smooth="yes"/>
      <point x="790" y="1252"/>
      <point x="542" y="1099"/>
      <point x="402" y="827" type="curve" smooth="yes"/>
      <point x="331" y="691"/>
      <point x="296" y="533"/>
      <point x="296" y="354" type="curve" smooth="yes"/>
      <point x="296" y="54"/>
      <point x="398" y="-160"/>
      <point x="570" y="-267" type="curve" smooth="yes"/>
      <point x="656" y="-321"/>
      <point x="755" y="-348"/>
      <point x="866" y="-348" type="curve" smooth="yes"/>
      <point x="997" y="-348"/>
      <point x="1163" y="-309"/>
      <point x="1235" y="-260" type="curve"/>
      <point x="1263" y="-322" type="line"/>
      <point x="1172" y="-397"/>
      <point x="1008" y="-451"/>
      <point x="841" y="-451" type="curve" smooth="yes"/>
      <point x="562" y="-451"/>
      <point x="360" y="-318"/>
      <point x="257" y="-85" type="curve" smooth="yes"/>
      <point x="206" y="32"/>
      <point x="180" y="169"/>
      <point x="180" y="326" type="curve" smooth="yes"/>
      <point x="180" y="730"/>
      <point x="365" y="1055"/>
      <point x="650" y="1227" type="curve" smooth="yes"/>
      <point x="793" y="1312"/>
      <point x="946" y="1355"/>
      <point x="1110" y="1355" type="curve" smooth="yes"/>
    </contour>
    <contour>
      <point x="884" y="107"/>
      <point x="961" y="192"/>
      <point x="1033" y="324" type="curve" smooth="yes"/>
      <point x="1105" y="455"/>
      <point x="1162" y="625"/>
      <point x="1182" y="744" type="curve"/>
      <point x="1147" y="779"/>
      <point x="1038" y="809"/>
      <point x="969" y="809" type="curve" smooth="yes"/>
      <point x="856" y="809"/>
      <point x="769" y="716"/>
      <point x="725" y="580" type="curve" smooth="yes"/>
      <point x="702" y="512"/>
      <point x="691" y="440"/>
      <point x="691" y="365" type="curve" smooth="yes"/>
      <point x="691" y="281"/>
      <point x="708" y="197"/>
      <point x="748" y="146" type="curve" smooth="yes"/>
      <point x="768" y="120"/>
      <point x="794" y="107"/>
      <point x="825" y="107" type="curve" smooth="yes"/>
    </contour>
  </outline>
</glyph>
<glyph name="B" format="1">
  <advance width="1210"/>
  <unicode hex="0042"/>
  <note>
	B
  </note>
  <outline>
    <contour>
      <point x="245" y="94" type="line"/>
      <point x="245" y="1242" type="line"/>
      <point x="94" y="1262" type="line"/>
      <point x="94" y="1339" type="line"/>
      <point x="319" y="1339" type="line" smooth="yes"/>
      <point x="364" y="1339"/>
      <point x="416" y="1342"/>
      <point x="473" y="1347" type="curve"/>
      <point x="492" y="1348"/>
      <point x="555" y="1353"/>
      <point x="599" y="1353" type="curve" smooth="yes"/>
      <point x="911" y="1353"/>
      <point x="1045" y="1248"/>
      <point x="1045" y="1051" type="curve" smooth="yes"/>
      <point x="1045" y="940"/>
      <point x="1004" y="843"/>
      <point x="924" y="779" type="curve" smooth="yes"/>
      <point x="884" y="746"/>
      <point x="836" y="724"/>
      <point x="779" y="713" type="curve"/>
      <point x="928" y="718"/>
      <point x="1040" y="665"/>
      <point x="1097" y="568" type="curve" smooth="yes"/>
      <point x="1126" y="519"/>
      <point x="1140" y="463"/>
      <point x="1140" y="400" type="curve" smooth="yes"/>
      <point x="1140" y="248"/>
      <point x="1078" y="121"/>
      <point x="917" y="46" type="curve" smooth="yes"/>
      <point x="836" y="8"/>
      <point x="730" y="-11"/>
      <point x="598" y="-11" type="curve" smooth="yes"/>
      <point x="566" y="-11"/>
      <point x="529" y="-9"/>
      <point x="488" y="-6" type="curve" smooth="yes"/>
      <point x="415" y="-2"/>
      <point x="357" y="0"/>
      <point x="312" y="0" type="curve" smooth="yes"/>
      <point x="91" y="0" type="line"/>
      <point x="91" y="77" type="line"/>
    </contour>
    <contour>
      <point x="393" y="744" type="line"/>
      <point x="417" y="743"/>
      <point x="469" y="742"/>
      <point x="548" y="742" type="curve" smooth="yes"/>
      <point x="615" y="742" type="line" smooth="yes"/>
      <point x="798" y="742"/>
      <point x="896" y="840"/>
      <point x="896" y="1017" type="curve" smooth="yes"/>
      <point x="896" y="1133"/>
      <point x="859" y="1205"/>
      <point x="767" y="1243" type="curve" smooth="yes"/>
      <point x="721" y="1262"/>
      <point x="659" y="1271"/>
      <point x="581" y="1271" type="curve" smooth="yes"/>
      <point x="542" y="1271"/>
      <point x="495" y="1268"/>
      <point x="441" y="1263" type="curve" smooth="yes"/>
      <point x="415" y="1260"/>
      <point x="399" y="1259"/>
      <point x="393" y="1259" type="curve"/>
    </contour>
    <contour>
      <point x="393" y="91" type="line"/>
      <point x="428" y="80"/>
      <point x="496" y="75"/>
      <point x="597" y="75" type="curve" smooth="yes"/>
      <point x="865" y="75"/>
      <point x="979" y="181"/>
      <point x="979" y="372" type="curve" smooth="yes"/>
      <point x="979" y="503"/>
      <point x="936" y="581"/>
      <point x="840" y="620" type="curve" smooth="yes"/>
      <point x="791" y="639"/>
      <point x="728" y="649"/>
      <point x="651" y="649" type="curve" smooth="yes"/>
      <point x="547" y="649" type="line" smooth="yes"/>
      <point x="466" y="649"/>
      <point x="415" y="649"/>
      <point x="393" y="648" type="curve"/>
    </contour>
  </outline>
</glyph>
<glyph name="F" format="1">
  <advance width="1112"/>
  <unicode hex="0046"/>
  <note>
	F
  </note>
  <outline>
    <contour>
      <point x="245" y="93" type="line"/>
      <point x="245" y="1242" type="line"/>
      <point x="87" y="1262" type="line"/>
      <point x="87" y="1339" type="line"/>
      <point x="1030" y="1339" type="line"/>
      <point x="1049" y="1043" type="line"/>
      <point x="950" y="1043" type="line"/>
      <point x="901" y="1248" type="line"/>
      <point x="393" y="1256" type="line"/>
      <point x="393" y="722" type="line"/>
      <point x="753" y="728" type="line"/>
      <point x="783" y="875" type="line"/>
      <point x="867" y="875" type="line"/>
      <point x="867" y="476" type="line"/>
      <point x="783" y="476" type="line"/>
      <point x="753" y="628" type="line"/>
      <point x="393" y="635" type="line"/>
      <point x="393" y="94" type="line"/>
      <point x="675" y="77" type="line"/>
      <point x="675" y="0" type="line"/>
      <point x="98" y="0" type="line"/>
      <point x="98" y="77" type="line"/>
    </contour>
  </outline>
</glyph>
<glyph name="J" format="1">
  <advance width="674"/>
  <unicode hex="004A"/>
  <note>
	J
  </note>
  <outline>
    <contour>
      <point x="-3" y="-247" type="line"/>
      <point x="109" y="-216"/>
      <point x="201" y="-133"/>
      <point x="238" y="-16" type="curve" smooth="yes"/>
      <point x="253" y="33"/>
      <point x="263" y="89"/>
      <point x="268" y="152" type="curve" smooth="yes"/>
      <point x="273" y="214"/>
      <point x="275" y="315"/>
      <point x="275" y="456" type="curve" smooth="yes"/>
      <point x="275" y="1241" type="line"/>
      <point x="94" y="1262" type="line"/>
      <point x="94" y="1339" type="line"/>
      <point x="596" y="1339" type="line"/>
      <point x="596" y="1262" type="line"/>
      <point x="424" y="1241" type="line"/>
      <point x="424" y="495" type="line"/>
      <point x="424" y="385" type="line" smooth="yes"/>
      <point x="424" y="216"/>
      <point x="421" y="119"/>
      <point x="405" y="38" type="curve" smooth="yes"/>
      <point x="378" y="-94"/>
      <point x="298" y="-193"/>
      <point x="196" y="-252" type="curve" smooth="yes"/>
      <point x="145" y="-282"/>
      <point x="92" y="-302"/>
      <point x="37" y="-312" type="curve"/>
    </contour>
  </outline>
</glyph>
<glyph name="K" format="1">
  <advance width="1287"/>
  <unicode hex="004B"/>
  <note>
	K
  </note>
  <outline>
    <contour>
      <point x="1069" y="0" type="line" smooth="yes"/>
      <point x="1053" y="0"/>
      <point x="1034" y="14"/>
      <point x="1011" y="41" type="curve" smooth="yes"/>
      <point x="965" y="96"/>
      <point x="922" y="167"/>
      <point x="839" y="311" type="curve" smooth="yes"/>
      <point x="731" y="498"/>
      <point x="663" y="610"/>
      <point x="594" y="679" type="curve"/>
      <point x="399" y="458" type="line"/>
      <point x="399" y="94" type="line"/>
      <point x="568" y="75" type="line"/>
      <point x="568" y="0" type="line"/>
      <point x="96" y="0" type="line"/>
      <point x="96" y="77" type="line"/>
      <point x="250" y="94" type="line"/>
      <point x="250" y="1242" type="line"/>
      <point x="99" y="1262" type="line"/>
      <point x="99" y="1339" type="line"/>
      <point x="554" y="1339" type="line"/>
      <point x="554" y="1262" type="line"/>
      <point x="399" y="1242" type="line"/>
      <point x="399" y="586" type="line"/>
      <point x="962" y="1243" type="line"/>
      <point x="810" y="1262" type="line"/>
      <point x="810" y="1339" type="line"/>
      <point x="1227" y="1339" type="line"/>
      <point x="1227" y="1262" type="line"/>
      <point x="1096" y="1243" type="line"/>
      <point x="681" y="779" type="line"/>
      <point x="765" y="706"/>
      <point x="852" y="578"/>
      <point x="991" y="366" type="curve" smooth="yes"/>
      <point x="1051" y="274"/>
      <point x="1097" y="206"/>
      <point x="1129" y="163" type="curve" smooth="yes"/>
      <point x="1160" y="120"/>
      <point x="1184" y="97"/>
      <point x="1200" y="95" type="curve"/>
      <point x="1285" y="75" type="line"/>
      <point x="1285" y="0" type="line"/>
    </contour>
  </outline>
</glyph>
<glyph name="L" format="1">
  <advance width="1137"/>
  <unicode hex="004C"/>
  <note>
	L
  </note>
  <outline>
    <contour>
      <point x="250" y="94" type="line"/>
      <point x="250" y="1242" type="line"/>
      <point x="99" y="1262" type="line"/>
      <point x="99" y="1339" type="line"/>
      <point x="578" y="1339" type="line"/>
      <point x="578" y="1262" type="line"/>
      <point x="399" y="1243" type="line"/>
      <point x="399" y="94" type="line"/>
      <point x="912" y="107" type="line"/>
      <point x="1013" y="390" type="line"/>
      <point x="1099" y="375" type="line"/>
      <point x="1033" y="0" type="line"/>
      <point x="96" y="0" type="line"/>
      <point x="96" y="77" type="line"/>
    </contour>
  </outline>
</glyph>
<glyph name="M" format="1">
  <advance width="1778"/>
  <unicode hex="004D"/>
  <note>
	M
  </note>
  <outline>
    <contour>
      <point x="161" y="94" type="line"/>
      <point x="304" y="1243" type="line"/>
      <point x="99" y="1262" type="line"/>
      <point x="99" y="1339" type="line"/>
      <point x="521" y="1339" type="line"/>
      <point x="825" y="507" type="line"/>
      <point x="893" y="266" type="line"/>
      <point x="948" y="507" type="line"/>
      <point x="1209" y="1339" type="line"/>
      <point x="1628" y="1339" type="line"/>
      <point x="1628" y="1262" type="line"/>
      <point x="1421" y="1242" type="line"/>
      <point x="1614" y="95" type="line"/>
      <point x="1775" y="77" type="line"/>
      <point x="1775" y="0" type="line"/>
      <point x="1294" y="0" type="line"/>
      <point x="1294" y="77" type="line"/>
      <point x="1461" y="94" type="line"/>
      <point x="1331" y="915" type="line"/>
      <point x="1285" y="1277" type="line"/>
      <point x="1211" y="1027" type="line"/>
      <point x="914" y="65" type="line"/>
      <point x="851" y="65" type="line"/>
      <point x="513" y="927" type="line"/>
      <point x="400" y="1277" type="line"/>
      <point x="363" y="916" type="line"/>
      <point x="281" y="94" type="line"/>
      <point x="458" y="77" type="line"/>
      <point x="458" y="0" type="line"/>
      <point x="4" y="0" type="line"/>
      <point x="4" y="77" type="line"/>
    </contour>
  </outline>
</glyph>
<glyph name="N" format="1">
  <advance width="1436"/>
  <unicode hex="004E"/>
  <note>
	N
  </note>
  <outline>
    <contour>
      <point x="245" y="95" type="line"/>
      <point x="245" y="1242" type="line"/>
      <point x="101" y="1262" type="line"/>
      <point x="101" y="1339" type="line"/>
      <point x="392" y="1339" type="line"/>
      <point x="1030" y="414" type="line"/>
      <point x="1132" y="234" type="line"/>
      <point x="1132" y="1242" type="line"/>
      <point x="973" y="1262" type="line"/>
      <point x="973" y="1339" type="line"/>
      <point x="1383" y="1339" type="line"/>
      <point x="1383" y="1262" type="line"/>
      <point x="1236" y="1242" type="line"/>
      <point x="1236" y="0" type="line"/>
      <point x="1143" y="0" type="line"/>
      <point x="498" y="928" type="line"/>
      <point x="349" y="1169" type="line"/>
      <point x="349" y="94" type="line"/>
      <point x="514" y="77" type="line"/>
      <point x="514" y="0" type="line"/>
      <point x="101" y="0" type="line"/>
      <point x="101" y="77" type="line"/>
    </contour>
  </outline>
</glyph>
<glyph name="O" format="1">
  <advance width="1296"/>
  <unicode hex="004F"/>
  <note>
	O
  </note>
  <outline>
    <contour>
      <point x="66" y="936"/>
      <point x="178" y="1154"/>
      <point x="362" y="1268" type="curve" smooth="yes"/>
      <point x="453" y="1325"/>
      <point x="555" y="1353"/>
      <point x="666" y="1353" type="curve" smooth="yes"/>
      <point x="906" y="1353"/>
      <point x="1077" y="1239"/>
      <point x="1165" y="1037" type="curve" smooth="yes"/>
      <point x="1208" y="936"/>
      <point x="1230" y="817"/>
      <point x="1230" y="682" type="curve" smooth="yes"/>
      <point x="1230" y="402"/>
      <point x="1116" y="182"/>
      <point x="932" y="67" type="curve" smooth="yes"/>
      <point x="839" y="9"/>
      <point x="737" y="-20"/>
      <point x="624" y="-20" type="curve" smooth="yes"/>
      <point x="391" y="-20"/>
      <point x="219" y="99"/>
      <point x="132" y="304" type="curve" smooth="yes"/>
      <point x="88" y="407"/>
      <point x="66" y="525"/>
      <point x="66" y="659" type="curve" smooth="yes"/>
    </contour>
    <contour>
      <point x="231" y="429"/>
      <point x="297" y="241"/>
      <point x="422" y="141" type="curve" smooth="yes"/>
      <point x="485" y="90"/>
      <point x="559" y="65"/>
      <point x="646" y="65" type="curve" smooth="yes"/>
      <point x="813" y="65"/>
      <point x="942" y="159"/>
      <point x="1012" y="343" type="curve" smooth="yes"/>
      <point x="1047" y="435"/>
      <point x="1064" y="548"/>
      <point x="1064" y="681" type="curve" smooth="yes"/>
      <point x="1064" y="912"/>
      <point x="998" y="1096"/>
      <point x="874" y="1195" type="curve" smooth="yes"/>
      <point x="812" y="1244"/>
      <point x="738" y="1269"/>
      <point x="651" y="1269" type="curve" smooth="yes"/>
      <point x="482" y="1269"/>
      <point x="352" y="1179"/>
      <point x="283" y="997" type="curve" smooth="yes"/>
      <point x="248" y="906"/>
      <point x="231" y="793"/>
      <point x="231" y="660" type="curve" smooth="yes"/>
    </contour>
  </outline>
</glyph>
<glyph name="P" format="1">
  <advance width="1155"/>
  <unicode hex="0050"/>
  <note>
	P
  </note>
  <outline>
    <contour>
      <point x="250" y="94" type="line"/>
      <point x="250" y="1242" type="line"/>
      <point x="106" y="1262" type="line"/>
      <point x="106" y="1339" type="line"/>
      <point x="325" y="1339" type="line" smooth="yes"/>
      <point x="367" y="1339"/>
      <point x="411" y="1341"/>
      <point x="458" y="1346" type="curve" smooth="yes"/>
      <point x="522" y="1351"/>
      <point x="583" y="1353"/>
      <point x="641" y="1353" type="curve" smooth="yes"/>
      <point x="869" y="1353"/>
      <point x="1001" y="1292"/>
      <point x="1060" y="1181" type="curve" smooth="yes"/>
      <point x="1089" y="1125"/>
      <point x="1104" y="1055"/>
      <point x="1104" y="972" type="curve" smooth="yes"/>
      <point x="1104" y="784"/>
      <point x="1008" y="641"/>
      <point x="852" y="567" type="curve" smooth="yes"/>
      <point x="773" y="530"/>
      <point x="686" y="511"/>
      <point x="590" y="511" type="curve" smooth="yes"/>
      <point x="519" y="511"/>
      <point x="415" y="516"/>
      <point x="399" y="519" type="curve"/>
      <point x="399" y="95" type="line"/>
      <point x="649" y="77" type="line"/>
      <point x="649" y="0" type="line"/>
      <point x="96" y="0" type="line"/>
      <point x="96" y="77" type="line"/>
    </contour>
    <contour>
      <point x="799" y="600"/>
      <point x="946" y="708"/>
      <point x="946" y="972" type="curve" smooth="yes"/>
      <point x="946" y="1115"/>
      <point x="896" y="1197"/>
      <point x="793" y="1236" type="curve" smooth="yes"/>
      <point x="742" y="1255"/>
      <point x="675" y="1265"/>
      <point x="594" y="1265" type="curve" smooth="yes"/>
      <point x="557" y="1265"/>
      <point x="516" y="1263"/>
      <point x="469" y="1258" type="curve" smooth="yes"/>
      <point x="440" y="1255"/>
      <point x="416" y="1254"/>
      <point x="399" y="1254" type="curve"/>
      <point x="399" y="608" type="line"/>
      <point x="428" y="603"/>
      <point x="492" y="600"/>
      <point x="592" y="600" type="curve" smooth="yes"/>
    </contour>
  </outline>
</glyph>
<glyph name="Q" format="1">
  <advance width="1306"/>
  <unicode hex="0051"/>
  <note>
	Q
  </note>
  <outline>
    <contour>
      <point x="71" y="936"/>
      <point x="184" y="1154"/>
      <point x="367" y="1268" type="curve" smooth="yes"/>
      <point x="458" y="1325"/>
      <point x="560" y="1353"/>
      <point x="671" y="1353" type="curve" smooth="yes"/>
      <point x="911" y="1353"/>
      <point x="1082" y="1239"/>
      <point x="1170" y="1037" type="curve" smooth="yes"/>
      <point x="1214" y="936"/>
      <point x="1236" y="817"/>
      <point x="1236" y="682" type="curve" smooth="yes"/>
      <point x="1236" y="471"/>
      <point x="1171" y="294"/>
      <point x="1060" y="171" type="curve" smooth="yes"/>
      <point x="1004" y="109"/>
      <point x="939" y="62"/>
      <point x="866" y="29" type="curve"/>
      <point x="947" y="24"/>
      <point x="1029" y="-6"/>
      <point x="1094" y="-40" type="curve" smooth="yes"/>
      <point x="1127" y="-57"/>
      <point x="1169" y="-81"/>
      <point x="1220" y="-110" type="curve" smooth="yes"/>
      <point x="1317" y="-166"/>
      <point x="1372" y="-197"/>
      <point x="1445" y="-220" type="curve" smooth="yes"/>
      <point x="1482" y="-232"/>
      <point x="1519" y="-238"/>
      <point x="1556" y="-238" type="curve" smooth="yes"/>
      <point x="1558" y="-238" type="line" smooth="yes"/>
      <point x="1568" y="-238"/>
      <point x="1581" y="-237"/>
      <point x="1596" y="-236" type="curve"/>
      <point x="1614" y="-311" type="line"/>
      <point x="1590" y="-332"/>
      <point x="1531" y="-363"/>
      <point x="1478" y="-363" type="curve" smooth="yes"/>
      <point x="1468" y="-363" type="line" smooth="yes"/>
      <point x="1359" y="-363"/>
      <point x="1259" y="-322"/>
      <point x="1180" y="-269" type="curve" smooth="yes"/>
      <point x="1141" y="-243"/>
      <point x="1094" y="-208"/>
      <point x="1040" y="-165" type="curve" smooth="yes"/>
      <point x="957" y="-100"/>
      <point x="912" y="-66"/>
      <point x="851" y="-36" type="curve" smooth="yes"/>
      <point x="820" y="-21"/>
      <point x="789" y="-11"/>
      <point x="758" y="-6" type="curve"/>
      <point x="718" y="-15"/>
      <point x="675" y="-20"/>
      <point x="629" y="-20" type="curve" smooth="yes"/>
      <point x="396" y="-20"/>
      <point x="224" y="99"/>
      <point x="137" y="304" type="curve" smooth="yes"/>
      <point x="93" y="407"/>
      <point x="71" y="525"/>
      <point x="71" y="659" type="curve" smooth="yes"/>
    </contour>
    <contour>
      <point x="236" y="429"/>
      <point x="303" y="241"/>
      <point x="428" y="141" type="curve" smooth="yes"/>
      <point x="490" y="90"/>
      <point x="564" y="65"/>
      <point x="651" y="65" type="curve" smooth="yes"/>
      <point x="818" y="65"/>
      <point x="947" y="159"/>
      <point x="1017" y="343" type="curve" smooth="yes"/>
      <point x="1052" y="435"/>
      <point x="1069" y="548"/>
      <point x="1069" y="681" type="curve" smooth="yes"/>
      <point x="1069" y="912"/>
      <point x="1003" y="1096"/>
      <point x="879" y="1195" type="curve" smooth="yes"/>
      <point x="817" y="1244"/>
      <point x="743" y="1269"/>
      <point x="656" y="1269" type="curve" smooth="yes"/>
      <point x="488" y="1269"/>
      <point x="359" y="1179"/>
      <point x="289" y="997" type="curve" smooth="yes"/>
      <point x="254" y="906"/>
      <point x="236" y="793"/>
      <point x="236" y="660" type="curve" smooth="yes"/>
    </contour>
  </outline>
</glyph>
<glyph name="T" format="1">
  <advance width="1223"/>
  <unicode hex="0054"/>
  <note>
	T
  </note>
  <outline>
    <contour>
      <point x="532" y="94" type="line"/>
      <point x="532" y="1258" type="line"/>
      <point x="189" y="1248" type="line"/>
      <point x="131" y="881" type="line"/>
      <point x="33" y="881" type="line"/>
      <point x="62" y="1339" type="line"/>
      <point x="1161" y="1339" type="line"/>
      <point x="1181" y="881" type="line"/>
      <point x="1084" y="881" type="line"/>
      <point x="1034" y="1248" type="line"/>
      <point x="687" y="1258" type="line"/>
      <point x="687" y="94" type="line"/>
      <point x="944" y="77" type="line"/>
      <point x="944" y="0" type="line"/>
      <point x="296" y="0" type="line"/>
      <point x="296" y="77" type="line"/>
    </contour>
  </outline>
</glyph>
<glyph name="U" format="1">
  <advance width="1330"/>
  <unicode hex="0055"/>
  <note>
	U
  </note>
  <outline>
    <contour>
      <point x="183" y="1242" type="line"/>
      <point x="49" y="1262" type="line"/>
      <point x="49" y="1339" type="line"/>
      <point x="490" y="1339" type="line"/>
      <point x="490" y="1262" type="line"/>
      <point x="335" y="1242" type="line"/>
      <point x="335" y="557" type="line" smooth="yes"/>
      <point x="335" y="205"/>
      <point x="467" y="73"/>
      <point x="698" y="73" type="curve" smooth="yes"/>
      <point x="927" y="73"/>
      <point x="1046" y="235"/>
      <point x="1046" y="543" type="curve" smooth="yes"/>
      <point x="1046" y="1241" type="line"/>
      <point x="898" y="1262" type="line"/>
      <point x="898" y="1339" type="line"/>
      <point x="1298" y="1339" type="line"/>
      <point x="1298" y="1262" type="line"/>
      <point x="1160" y="1242" type="line"/>
      <point x="1160" y="550" type="line" smooth="yes"/>
      <point x="1160" y="298"/>
      <point x="1074" y="127"/>
      <point x="932" y="47" type="curve" smooth="yes"/>
      <point x="861" y="6"/>
      <point x="778" y="-14"/>
      <point x="684" y="-14" type="curve" smooth="yes"/>
      <point x="452" y="-14"/>
      <point x="307" y="71"/>
      <point x="236" y="243" type="curve" smooth="yes"/>
      <point x="201" y="329"/>
      <point x="183" y="439"/>
      <point x="183" y="573" type="curve" smooth="yes"/>
    </contour>
  </outline>
</glyph>
<glyph name="V" format="1">
  <advance width="1188"/>
  <unicode hex="0056"/>
  <note>
	V
  </note>
  <outline>
    <contour>
      <point x="-26" y="1262" type="line"/>
      <point x="-26" y="1339" type="line"/>
      <point x="411" y="1339" type="line"/>
      <point x="411" y="1262" type="line"/>
      <point x="245" y="1243" type="line"/>
      <point x="564" y="372" type="line"/>
      <point x="640" y="128" type="line"/>
      <point x="708" y="377" type="line"/>
      <point x="985" y="1242" type="line"/>
      <point x="840" y="1262" type="line"/>
      <point x="840" y="1339" type="line"/>
      <point x="1220" y="1339" type="line"/>
      <point x="1220" y="1262" type="line"/>
      <point x="1105" y="1243" type="line"/>
      <point x="676" y="-14" type="line"/>
      <point x="557" y="-14" type="line"/>
      <point x="85" y="1242" type="line"/>
    </contour>
  </outline>
</glyph>
<glyph name="X" format="1">
  <advance width="1275"/>
  <unicode hex="0058"/>
  <note>
	X
  </note>
  <outline>
    <contour>
      <point x="169" y="93" type="line"/>
      <point x="565" y="678" type="line"/>
      <point x="184" y="1241" type="line"/>
      <point x="45" y="1262" type="line"/>
      <point x="45" y="1339" type="line"/>
      <point x="550" y="1339" type="line"/>
      <point x="550" y="1262" type="line"/>
      <point x="365" y="1241" type="line"/>
      <point x="669" y="755" type="line"/>
      <point x="967" y="1242" type="line"/>
      <point x="806" y="1262" type="line"/>
      <point x="806" y="1339" type="line"/>
      <point x="1236" y="1339" type="line"/>
      <point x="1236" y="1262" type="line"/>
      <point x="1095" y="1241" type="line"/>
      <point x="717" y="695" type="line"/>
      <point x="1127" y="93" type="line"/>
      <point x="1270" y="77" type="line"/>
      <point x="1270" y="0" type="line"/>
      <point x="768" y="0" type="line"/>
      <point x="768" y="77" type="line"/>
      <point x="944" y="94" type="line"/>
      <point x="617" y="617" type="line"/>
      <point x="302" y="93" type="line"/>
      <point x="487" y="77" type="line"/>
      <point x="487" y="0" type="line"/>
      <point x="13" y="0" type="line"/>
      <point x="13" y="77" type="line"/>
    </contour>
  </outline>
</glyph>
<glyph name="Z" format="1">
  <advance width="1177"/>
  <unicode hex="005A"/>
  <note>
	Z
  </note>
  <outline>
    <contour>
      <point x="795" y="1132" type="line"/>
      <point x="897" y="1262" type="line"/>
      <point x="325" y="1243" type="line"/>
      <point x="236" y="1008" type="line"/>
      <point x="153" y="1018" type="line"/>
      <point x="191" y="1345" type="line"/>
      <point x="1040" y="1345" type="line"/>
      <point x="1079" y="1278" type="line"/>
      <point x="373" y="225" type="line"/>
      <point x="256" y="84" type="line"/>
      <point x="923" y="116" type="line"/>
      <point x="1013" y="400" type="line"/>
      <point x="1099" y="381" type="line"/>
      <point x="1057" y="0" type="line"/>
      <point x="119" y="0" type="line"/>
      <point x="77" y="70" type="line"/>
    </contour>
  </outline>
</glyph>
<glyph name="bracketleft" format="1">
  <advance width="767"/>
  <unicode hex="005B"/>
  <note>
	bracketleft
  </note>
  <outline>
    <contour>
      <point x="178" y="1282" type="line" smooth="yes"/>
      <point x="178" y="1377"/>
      <point x="195" y="1420"/>
      <point x="236" y="1437" type="curve" smooth="yes"/>
      <point x="257" y="1445"/>
      <point x="287" y="1449"/>
      <point x="326" y="1449" type="curve" smooth="yes"/>
      <point x="409" y="1449"/>
      <point x="499" y="1439"/>
      <point x="596" y="1418" type="curve"/>
      <point x="596" y="1352" type="line"/>
      <point x="309" y="1352" type="line"/>
      <point x="309" y="-148" type="line"/>
      <point x="596" y="-148" type="line"/>
      <point x="596" y="-215" type="line"/>
      <point x="516" y="-235"/>
      <point x="417" y="-247"/>
      <point x="326" y="-247" type="curve" smooth="yes"/>
      <point x="247" y="-247"/>
      <point x="210" y="-234"/>
      <point x="192" y="-186" type="curve" smooth="yes"/>
      <point x="183" y="-162"/>
      <point x="178" y="-126"/>
      <point x="178" y="-79" type="curve" smooth="yes"/>
    </contour>
  </outline>
</glyph>
<glyph name="backslash" format="1">
  <advance width="776"/>
  <unicode hex="005C"/>
  <note>
	backslash
  </note>
  <outline>
    <contour>
      <point x="703" y="-319" type="line"/>
      <point x="568" y="-319" type="line"/>
      <point x="64" y="1407" type="line"/>
      <point x="199" y="1407" type="line"/>
    </contour>
  </outline>
</glyph>
<glyph name="bracketright" format="1">
  <advance width="767"/>
  <unicode hex="005D"/>
  <note>
	bracketright
  </note>
  <outline>
    <contour>
      <point x="590" y="-79" type="line" smooth="yes"/>
      <point x="590" y="-174"/>
      <point x="572" y="-218"/>
      <point x="532" y="-234" type="curve" smooth="yes"/>
      <point x="511" y="-243"/>
      <point x="481" y="-247"/>
      <point x="442" y="-247" type="curve" smooth="yes"/>
      <point x="350" y="-247"/>
      <point x="251" y="-235"/>
      <point x="172" y="-215" type="curve"/>
      <point x="172" y="-148" type="line"/>
      <point x="458" y="-148" type="line"/>
      <point x="458" y="1352" type="line"/>
      <point x="172" y="1352" type="line"/>
      <point x="172" y="1418" type="line"/>
      <point x="269" y="1439"/>
      <point x="359" y="1449"/>
      <point x="442" y="1449" type="curve" smooth="yes"/>
      <point x="521" y="1449"/>
      <point x="557" y="1436"/>
      <point x="576" y="1389" type="curve" smooth="yes"/>
      <point x="585" y="1365"/>
      <point x="590" y="1329"/>
      <point x="590" y="1282" type="curve" smooth="yes"/>
    </contour>
  </outline>
</glyph>
<glyph name="asciicircum" format="1">
  <advance width="1199"/>
  <unicode hex="005E"/>
  <note>
	asciicircum
  </note>
  <outline>
    <contour>
      <point x="671" y="1347" type="line"/>
      <point x="1037" y="240" type="line"/>
      <point x="919" y="240" type="line"/>
      <point x="598" y="1193" type="line"/>
      <point x="279" y="240" type="line"/>
      <point x="163" y="240" type="line"/>
      <point x="524" y="1347" type="line"/>
    </contour>
  </outline>
</glyph>
<glyph name="underscore" format="1">
  <advance width="1505"/>
  <unicode hex="005F"/>
  <note>
	underscore
  </note>
  <outline>
    <contour>
      <point x="1523" y="-319" type="line"/>
      <point x="-18" y="-319" type="line"/>
      <point x="-18" y="-220" type="line"/>
      <point x="1523" y="-220" type="line"/>
    </contour>
  </outline>
</glyph>
<glyph name="grave" format="1">
  <advance width="599"/>
  <unicode hex="0060"/>
  <note>
	grave
  </note>
  <outline>
    <contour>
      <point x="113" y="1583" type="line"/>
      <point x="114" y="1583" type="line"/>
      <point x="394" y="1236" type="line"/>
      <point x="342" y="1187" type="line"/>
      <point x="341" y="1187" type="line"/>
      <point x="300" y="1204"/>
      <point x="185" y="1296"/>
      <point x="92" y="1385" type="curve" smooth="yes"/>
      <point x="45" y="1429"/>
      <point x="15" y="1462"/>
      <point x="0" y="1485" type="curve"/>
    </contour>
  </outline>
</glyph>
<glyph name="b" format="1">
  <advance width="1080"/>
  <unicode hex="0062"/>
  <note>
	b
  </note>
  <outline>
    <contour>
      <point x="-5" y="1379" type="line"/>
      <point x="-5" y="1445" type="line"/>
      <point x="258" y="1476" type="line"/>
      <point x="261" y="1476" type="line"/>
      <point x="295" y="1450" type="line"/>
      <point x="295" y="903" type="line"/>
      <point x="371" y="975"/>
      <point x="476" y="1028"/>
      <point x="604" y="1028" type="curve" smooth="yes"/>
      <point x="744" y="1028"/>
      <point x="871" y="959"/>
      <point x="944" y="812" type="curve" smooth="yes"/>
      <point x="980" y="739"/>
      <point x="998" y="647"/>
      <point x="998" y="537" type="curve" smooth="yes"/>
      <point x="998" y="332"/>
      <point x="911" y="153"/>
      <point x="755" y="54" type="curve" smooth="yes"/>
      <point x="677" y="5"/>
      <point x="587" y="-20"/>
      <point x="484" y="-20" type="curve" smooth="yes"/>
      <point x="381" y="-20"/>
      <point x="279" y="-1"/>
      <point x="212" y="20" type="curve" smooth="yes"/>
      <point x="179" y="31"/>
      <point x="158" y="40"/>
      <point x="150" y="49" type="curve"/>
      <point x="150" y="1363" type="line"/>
    </contour>
    <contour>
      <point x="295" y="136" type="line"/>
      <point x="314" y="96"/>
      <point x="401" y="71"/>
      <point x="497" y="71" type="curve" smooth="yes"/>
      <point x="632" y="71"/>
      <point x="737" y="137"/>
      <point x="796" y="272" type="curve" smooth="yes"/>
      <point x="825" y="339"/>
      <point x="840" y="423"/>
      <point x="840" y="522" type="curve" smooth="yes"/>
      <point x="840" y="701"/>
      <point x="782" y="819"/>
      <point x="694" y="875" type="curve" smooth="yes"/>
      <point x="649" y="903"/>
      <point x="599" y="917"/>
      <point x="544" y="917" type="curve" smooth="yes"/>
      <point x="443" y="917"/>
      <point x="347" y="859"/>
      <point x="295" y="802" type="curve"/>
    </contour>
  </outline>
</glyph>
<glyph name="f" format="1">
  <advance width="711"/>
  <unicode hex="0066"/>
  <note>
	f
  </note>
  <outline>
    <contour>
      <point x="238" y="92" type="line"/>
      <point x="238" y="892" type="line"/>
      <point x="55" y="892" type="line"/>
      <point x="55" y="964" type="line"/>
      <point x="238" y="999" type="line"/>
      <point x="238" y="1086" type="line" smooth="yes"/>
      <point x="238" y="1230"/>
      <point x="319" y="1360"/>
      <point x="439" y="1432" type="curve" smooth="yes"/>
      <point x="499" y="1467"/>
      <point x="561" y="1485"/>
      <point x="626" y="1485" type="curve" smooth="yes"/>
      <point x="675" y="1485"/>
      <point x="699" y="1480"/>
      <point x="726" y="1471" type="curve"/>
      <point x="726" y="1323" type="line"/>
      <point x="705" y="1338"/>
      <point x="642" y="1355"/>
      <point x="566" y="1355" type="curve" smooth="yes"/>
      <point x="481" y="1355"/>
      <point x="429" y="1329"/>
      <point x="404" y="1265" type="curve" smooth="yes"/>
      <point x="391" y="1232"/>
      <point x="385" y="1189"/>
      <point x="385" y="1134" type="curve" smooth="yes"/>
      <point x="385" y="999" type="line"/>
      <point x="646" y="999" type="line"/>
      <point x="646" y="892" type="line"/>
      <point x="385" y="892" type="line"/>
      <point x="385" y="91" type="line"/>
      <point x="590" y="77" type="line"/>
      <point x="590" y="0" type="line"/>
      <point x="80" y="0" type="line"/>
      <point x="80" y="77" type="line"/>
    </contour>
  </outline>
</glyph>
<glyph name="g" format="1">
  <advance width="1076"/>
  <unicode hex="0067"/>
  <note>
	g
  </note>
  <outline>
    <contour>
      <point x="502" y="358" type="line" smooth="yes"/>
      <point x="453" y="358"/>
      <point x="409" y="364"/>
      <point x="368" y="375" type="curve"/>
      <point x="324" y="340"/>
      <point x="297" y="293"/>
      <point x="297" y="249" type="curve" smooth="yes"/>
      <point x="297" y="186"/>
      <point x="322" y="153"/>
      <point x="379" y="138" type="curve" smooth="yes"/>
      <point x="408" y="130"/>
      <point x="447" y="126"/>
      <point x="496" y="126" type="curve" smooth="yes"/>
      <point x="708" y="126" type="line" smooth="yes"/>
      <point x="931" y="126"/>
      <point x="1036" y="35"/>
      <point x="1036" y="-121" type="curve" smooth="yes"/>
      <point x="1036" y="-249"/>
      <point x="935" y="-368"/>
      <point x="775" y="-435" type="curve" smooth="yes"/>
      <point x="694" y="-469"/>
      <point x="606" y="-486"/>
      <point x="510" y="-486" type="curve" smooth="yes"/>
      <point x="509" y="-486" type="line" smooth="yes"/>
      <point x="209" y="-486"/>
      <point x="84" y="-385"/>
      <point x="84" y="-216" type="curve" smooth="yes"/>
      <point x="84" y="-109"/>
      <point x="161" y="-13"/>
      <point x="250" y="36" type="curve"/>
      <point x="193" y="67"/>
      <point x="165" y="117"/>
      <point x="165" y="186" type="curve" smooth="yes"/>
      <point x="165" y="275"/>
      <point x="223" y="359"/>
      <point x="300" y="400" type="curve"/>
      <point x="188" y="453"/>
      <point x="121" y="553"/>
      <point x="121" y="684" type="curve" smooth="yes"/>
      <point x="121" y="824"/>
      <point x="205" y="931"/>
      <point x="329" y="987" type="curve" smooth="yes"/>
      <point x="390" y="1014"/>
      <point x="455" y="1028"/>
      <point x="522" y="1028" type="curve" smooth="yes"/>
      <point x="523" y="1028" type="line" smooth="yes"/>
      <point x="630" y="1028"/>
      <point x="724" y="1004"/>
      <point x="791" y="953" type="curve"/>
      <point x="828" y="986"/>
      <point x="910" y="1028"/>
      <point x="997" y="1028" type="curve" smooth="yes"/>
      <point x="1056" y="1028" type="line"/>
      <point x="1056" y="894" type="line"/>
      <point x="851" y="894" type="line"/>
      <point x="886" y="845"/>
      <point x="903" y="787"/>
      <point x="903" y="719" type="curve" smooth="yes"/>
      <point x="903" y="576"/>
      <point x="827" y="464"/>
      <point x="704" y="404" type="curve" smooth="yes"/>
      <point x="643" y="373"/>
      <point x="576" y="358"/>
      <point x="503" y="358" type="curve" smooth="yes"/>
    </contour>
    <contour>
      <point x="512" y="939" type="line" smooth="yes"/>
      <point x="353" y="939"/>
      <point x="274" y="860"/>
      <point x="274" y="702" type="curve" smooth="yes"/>
      <point x="274" y="550"/>
      <point x="355" y="447"/>
      <point x="520" y="447" type="curve" smooth="yes"/>
      <point x="521" y="447" type="line" smooth="yes"/>
      <point x="674" y="447"/>
      <point x="750" y="531"/>
      <point x="750" y="700" type="curve" smooth="yes"/>
      <point x="750" y="859"/>
      <point x="671" y="939"/>
      <point x="513" y="939" type="curve" smooth="yes"/>
    </contour>
    <contour>
      <point x="259" y="-45"/>
      <point x="230" y="-111"/>
      <point x="230" y="-187" type="curve" smooth="yes"/>
      <point x="230" y="-279"/>
      <point x="261" y="-338"/>
      <point x="345" y="-370" type="curve" smooth="yes"/>
      <point x="387" y="-386"/>
      <point x="444" y="-394"/>
      <point x="517" y="-394" type="curve" smooth="yes"/>
      <point x="518" y="-394" type="line" smooth="yes"/>
      <point x="647" y="-394"/>
      <point x="772" y="-356"/>
      <point x="844" y="-285" type="curve" smooth="yes"/>
      <point x="880" y="-250"/>
      <point x="898" y="-209"/>
      <point x="898" y="-162" type="curve" smooth="yes"/>
      <point x="898" y="-87"/>
      <point x="882" y="-44"/>
      <point x="816" y="-19" type="curve" smooth="yes"/>
      <point x="783" y="-7"/>
      <point x="734" y="-1"/>
      <point x="671" y="-1" type="curve" smooth="yes"/>
      <point x="448" y="-1" type="line" smooth="yes"/>
      <point x="396" y="-1"/>
      <point x="353" y="3"/>
      <point x="318" y="11" type="curve"/>
    </contour>
  </outline>
</glyph>
<glyph name="h" format="1">
  <advance width="1174"/>
  <unicode hex="0068"/>
  <note>
	h
  </note>
  <outline>
    <contour>
      <point x="185" y="91" type="line"/>
      <point x="185" y="1363" type="line"/>
      <point x="26" y="1379" type="line"/>
      <point x="26" y="1445" type="line"/>
      <point x="291" y="1476" type="line"/>
      <point x="296" y="1476" type="line"/>
      <point x="330" y="1452" type="line"/>
      <point x="330" y="1024" type="line"/>
      <point x="326" y="874" type="line"/>
      <point x="373" y="915"/>
      <point x="456" y="967"/>
      <point x="553" y="1000" type="curve" smooth="yes"/>
      <point x="601" y="1016"/>
      <point x="648" y="1024"/>
      <point x="694" y="1024" type="curve" smooth="yes"/>
      <point x="846" y="1024"/>
      <point x="925" y="967"/>
      <point x="959" y="846" type="curve" smooth="yes"/>
      <point x="976" y="785"/>
      <point x="984" y="704"/>
      <point x="984" y="601" type="curve" smooth="yes"/>
      <point x="984" y="92" type="line"/>
      <point x="1116" y="77" type="line"/>
      <point x="1116" y="0" type="line"/>
      <point x="712" y="0" type="line"/>
      <point x="712" y="77" type="line"/>
      <point x="839" y="92" type="line"/>
      <point x="839" y="602" type="line" smooth="yes"/>
      <point x="839" y="754"/>
      <point x="822" y="836"/>
      <point x="763" y="880" type="curve" smooth="yes"/>
      <point x="733" y="901"/>
      <point x="689" y="912"/>
      <point x="631" y="912" type="curve" smooth="yes"/>
      <point x="536" y="912"/>
      <point x="414" y="857"/>
      <point x="330" y="793" type="curve"/>
      <point x="330" y="92" type="line"/>
      <point x="464" y="77" type="line"/>
      <point x="464" y="0" type="line"/>
      <point x="72" y="0" type="line"/>
      <point x="72" y="77" type="line"/>
    </contour>
  </outline>
</glyph>
<glyph name="j" format="1">
  <advance width="554"/>
  <unicode hex="006A"/>
  <note>
	j
  </note>
  <outline>
    <contour>
      <point x="79" y="906" type="line"/>
      <point x="80" y="994" type="line"/>
      <point x="329" y="1022" type="line"/>
      <point x="334" y="1022" type="line"/>
      <point x="368" y="994" type="line"/>
      <point x="368" y="11" type="line" smooth="yes"/>
      <point x="368" y="-272"/>
      <point x="276" y="-422"/>
      <point x="92" y="-437" type="curve"/>
      <point x="89" y="-438"/>
      <point x="82" y="-438"/>
      <point x="69" y="-438" type="curve" smooth="yes"/>
      <point x="37" y="-438"/>
      <point x="-3" y="-436"/>
      <point x="-11" y="-431" type="curve"/>
      <point x="-18" y="-356" type="line"/>
      <point x="1" y="-359"/>
      <point x="45" y="-351"/>
      <point x="85" y="-339" type="curve" smooth="yes"/>
      <point x="189" y="-307"/>
      <point x="224" y="-171"/>
      <point x="224" y="45" type="curve"/>
      <point x="222" y="875" type="line"/>
    </contour>
    <contour>
      <point x="194" y="1376"/>
      <point x="232" y="1430"/>
      <point x="299" y="1430" type="curve" smooth="yes"/>
      <point x="300" y="1430" type="line" smooth="yes"/>
      <point x="357" y="1430"/>
      <point x="393" y="1382"/>
      <point x="393" y="1326" type="curve" smooth="yes"/>
      <point x="393" y="1257"/>
      <point x="356" y="1207"/>
      <point x="285" y="1207" type="curve" smooth="yes"/>
      <point x="284" y="1207" type="line" smooth="yes"/>
      <point x="229" y="1207"/>
      <point x="194" y="1252"/>
      <point x="194" y="1309" type="curve" smooth="yes"/>
    </contour>
  </outline>
</glyph>
<glyph name="k" format="1">
  <advance width="1046"/>
  <unicode hex="006B"/>
  <note>
	k
  </note>
  <outline>
    <contour>
      <point x="184" y="92" type="line"/>
      <point x="184" y="1363" type="line"/>
      <point x="36" y="1379" type="line"/>
      <point x="36" y="1445" type="line"/>
      <point x="294" y="1476" type="line"/>
      <point x="296" y="1476" type="line"/>
      <point x="330" y="1452" type="line"/>
      <point x="330" y="556" type="line"/>
      <point x="326" y="443" type="line"/>
      <point x="774" y="904" type="line"/>
      <point x="637" y="928" type="line"/>
      <point x="637" y="1000" type="line"/>
      <point x="1053" y="1000" type="line"/>
      <point x="1053" y="928" type="line"/>
      <point x="914" y="903" type="line"/>
      <point x="621" y="616" type="line"/>
      <point x="981" y="91" type="line"/>
      <point x="1099" y="77" type="line"/>
      <point x="1099" y="0" type="line"/>
      <point x="686" y="0" type="line"/>
      <point x="686" y="77" type="line"/>
      <point x="811" y="92" type="line"/>
      <point x="529" y="536" type="line"/>
      <point x="326" y="337" type="line"/>
      <point x="330" y="245" type="line"/>
      <point x="330" y="92" type="line"/>
      <point x="468" y="77" type="line"/>
      <point x="468" y="0" type="line"/>
      <point x="64" y="0" type="line"/>
      <point x="64" y="77" type="line"/>
    </contour>
  </outline>
</glyph>
<glyph name="l" format="1">
  <advance width="592"/>
  <unicode hex="006C"/>
  <note>
	l
  </note>
  <outline>
    <contour>
      <point x="230" y="92" type="line"/>
      <point x="230" y="1363" type="line"/>
      <point x="75" y="1379" type="line"/>
      <point x="75" y="1445" type="line"/>
      <point x="340" y="1477" type="line"/>
      <point x="341" y="1477" type="line"/>
      <point x="376" y="1452" type="line"/>
      <point x="376" y="91" type="line"/>
      <point x="544" y="77" type="line"/>
      <point x="544" y="0" type="line"/>
      <point x="70" y="0" type="line"/>
      <point x="70" y="77" type="line"/>
    </contour>
  </outline>
</glyph>
<glyph name="n" format="1">
  <advance width="1176"/>
  <unicode hex="006E"/>
  <note>
	n
  </note>
  <outline>
    <contour>
      <point x="195" y="92" type="line"/>
      <point x="195" y="881" type="line"/>
      <point x="55" y="913" type="line"/>
      <point x="55" y="994" type="line"/>
      <point x="285" y="1022" type="line"/>
      <point x="290" y="1022" type="line"/>
      <point x="325" y="994" type="line"/>
      <point x="325" y="913" type="line"/>
      <point x="323" y="869" type="line"/>
      <point x="378" y="917"/>
      <point x="470" y="969"/>
      <point x="567" y="1001" type="curve" smooth="yes"/>
      <point x="616" y="1016"/>
      <point x="661" y="1024"/>
      <point x="703" y="1024" type="curve" smooth="yes"/>
      <point x="856" y="1024"/>
      <point x="934" y="965"/>
      <point x="967" y="844" type="curve" smooth="yes"/>
      <point x="983" y="783"/>
      <point x="991" y="702"/>
      <point x="991" y="601" type="curve" smooth="yes"/>
      <point x="991" y="91" type="line"/>
      <point x="1126" y="77" type="line"/>
      <point x="1126" y="0" type="line"/>
      <point x="722" y="0" type="line"/>
      <point x="722" y="77" type="line"/>
      <point x="846" y="91" type="line"/>
      <point x="846" y="602" type="line" smooth="yes"/>
      <point x="846" y="753"/>
      <point x="830" y="835"/>
      <point x="771" y="879" type="curve" smooth="yes"/>
      <point x="742" y="901"/>
      <point x="699" y="912"/>
      <point x="642" y="912" type="curve" smooth="yes"/>
      <point x="545" y="912"/>
      <point x="424" y="856"/>
      <point x="341" y="792" type="curve"/>
      <point x="341" y="92" type="line"/>
      <point x="472" y="77" type="line"/>
      <point x="472" y="0" type="line"/>
      <point x="74" y="0" type="line"/>
      <point x="74" y="77" type="line"/>
    </contour>
  </outline>
</glyph>
<glyph name="p" format="1">
  <advance width="1124"/>
  <unicode hex="0070"/>
  <note>
	p
  </note>
  <outline>
    <contour>
      <point x="468" y="-20"/>
      <point x="383" y="-8"/>
      <point x="335" y="9" type="curve"/>
      <point x="339" y="-144" type="line"/>
      <point x="339" y="-338" type="line"/>
      <point x="539" y="-356" type="line"/>
      <point x="539" y="-436" type="line"/>
      <point x="55" y="-436" type="line"/>
      <point x="55" y="-356" type="line"/>
      <point x="194" y="-339" type="line"/>
      <point x="194" y="881" type="line"/>
      <point x="54" y="913" type="line"/>
      <point x="54" y="994" type="line"/>
      <point x="284" y="1022" type="line"/>
      <point x="289" y="1022" type="line"/>
      <point x="321" y="994" type="line"/>
      <point x="321" y="884" type="line"/>
      <point x="398" y="963"/>
      <point x="510" y="1028"/>
      <point x="647" y="1028" type="curve" smooth="yes"/>
      <point x="787" y="1028"/>
      <point x="913" y="959"/>
      <point x="986" y="812" type="curve" smooth="yes"/>
      <point x="1023" y="738"/>
      <point x="1041" y="646"/>
      <point x="1041" y="537" type="curve" smooth="yes"/>
      <point x="1041" y="330"/>
      <point x="954" y="153"/>
      <point x="800" y="54" type="curve" smooth="yes"/>
      <point x="723" y="5"/>
      <point x="634" y="-20"/>
      <point x="533" y="-20" type="curve" smooth="yes"/>
    </contour>
    <contour>
      <point x="339" y="127" type="line"/>
      <point x="351" y="107"/>
      <point x="393" y="87"/>
      <point x="451" y="75" type="curve" smooth="yes"/>
      <point x="480" y="68"/>
      <point x="510" y="65"/>
      <point x="541" y="65" type="curve" smooth="yes"/>
      <point x="673" y="65"/>
      <point x="778" y="129"/>
      <point x="838" y="263" type="curve" smooth="yes"/>
      <point x="898" y="397"/>
      <point x="898" y="619"/>
      <point x="846" y="741" type="curve" smooth="yes"/>
      <point x="793" y="863"/>
      <point x="699" y="917"/>
      <point x="587" y="917" type="curve" smooth="yes"/>
      <point x="484" y="917"/>
      <point x="390" y="867"/>
      <point x="339" y="812" type="curve"/>
    </contour>
  </outline>
</glyph>
<glyph name="q" format="1">
  <advance width="1090"/>
  <unicode hex="0071"/>
  <note>
	q
  </note>
  <outline>
    <contour>
      <point x="84" y="686"/>
      <point x="170" y="860"/>
      <point x="326" y="956" type="curve" smooth="yes"/>
      <point x="403" y="1004"/>
      <point x="494" y="1028"/>
      <point x="597" y="1028" type="curve" smooth="yes"/>
      <point x="673" y="1028"/>
      <point x="754" y="1015"/>
      <point x="819" y="996" type="curve"/>
      <point x="900" y="1023" type="line"/>
      <point x="901" y="1023" type="line"/>
      <point x="931" y="994" type="line"/>
      <point x="931" y="-344" type="line"/>
      <point x="1058" y="-363" type="line"/>
      <point x="1058" y="-436" type="line"/>
      <point x="584" y="-436" type="line"/>
      <point x="584" y="-363" type="line"/>
      <point x="786" y="-344" type="line"/>
      <point x="786" y="-42" type="line"/>
      <point x="791" y="114" type="line"/>
      <point x="714" y="38"/>
      <point x="608" y="-20"/>
      <point x="479" y="-20" type="curve" smooth="yes"/>
      <point x="339" y="-20"/>
      <point x="212" y="53"/>
      <point x="139" y="204" type="curve" smooth="yes"/>
      <point x="102" y="279"/>
      <point x="84" y="372"/>
      <point x="84" y="481" type="curve" smooth="yes"/>
    </contour>
    <contour>
      <point x="785" y="884" type="line"/>
      <point x="776" y="904"/>
      <point x="732" y="926"/>
      <point x="673" y="939" type="curve" smooth="yes"/>
      <point x="643" y="946"/>
      <point x="613" y="949"/>
      <point x="583" y="949" type="curve" smooth="yes"/>
      <point x="451" y="949"/>
      <point x="347" y="887"/>
      <point x="288" y="755" type="curve" smooth="yes"/>
      <point x="228" y="623"/>
      <point x="227" y="401"/>
      <point x="280" y="274" type="curve" smooth="yes"/>
      <point x="332" y="147"/>
      <point x="426" y="85"/>
      <point x="539" y="85" type="curve" smooth="yes"/>
      <point x="643" y="85"/>
      <point x="733" y="138"/>
      <point x="785" y="193" type="curve"/>
    </contour>
  </outline>
</glyph>
<glyph name="r" format="1">
  <advance width="811"/>
  <unicode hex="0072"/>
  <note>
	r
  </note>
  <outline>
    <contour>
      <point x="233" y="87" type="line"/>
      <point x="233" y="881" type="line"/>
      <point x="94" y="913" type="line"/>
      <point x="94" y="994" type="line"/>
      <point x="322" y="1022" type="line"/>
      <point x="326" y="1022" type="line"/>
      <point x="361" y="994" type="line"/>
      <point x="361" y="930" type="line"/>
      <point x="360" y="828" type="line"/>
      <point x="361" y="828" type="line"/>
      <point x="362" y="831"/>
      <point x="378" y="849"/>
      <point x="407" y="883" type="curve" smooth="yes"/>
      <point x="466" y="951"/>
      <point x="597" y="1028"/>
      <point x="716" y="1028" type="curve" smooth="yes"/>
      <point x="736" y="1028"/>
      <point x="754" y="1025"/>
      <point x="770" y="1020" type="curve"/>
      <point x="770" y="862" type="line"/>
      <point x="761" y="869"/>
      <point x="723" y="877"/>
      <point x="687" y="877" type="curve" smooth="yes"/>
      <point x="550" y="877"/>
      <point x="455" y="830"/>
      <point x="379" y="771" type="curve"/>
      <point x="379" y="88" type="line"/>
      <point x="619" y="74" type="line"/>
      <point x="619" y="0" type="line"/>
      <point x="89" y="0" type="line"/>
      <point x="89" y="75" type="line"/>
    </contour>
  </outline>
</glyph>
<glyph name="t" format="1">
  <advance width="731"/>
  <unicode hex="0074"/>
  <note>
	t
  </note>
  <outline>
    <contour>
      <point x="63" y="893" type="line"/>
      <point x="63" y="964" type="line"/>
      <point x="82" y="969"/>
      <point x="102" y="974"/>
      <point x="125" y="979" type="curve" smooth="yes"/>
      <point x="169" y="990"/>
      <point x="179" y="997"/>
      <point x="192" y="1015" type="curve"/>
      <point x="198" y="1024"/>
      <point x="203" y="1035"/>
      <point x="208" y="1049" type="curve" smooth="yes"/>
      <point x="221" y="1086"/>
      <point x="255" y="1218"/>
      <point x="262" y="1257" type="curve"/>
      <point x="346" y="1257" type="line"/>
      <point x="346" y="1000" type="line"/>
      <point x="665" y="1000" type="line"/>
      <point x="665" y="893" type="line"/>
      <point x="346" y="893" type="line"/>
      <point x="346" y="311" type="line" smooth="yes"/>
      <point x="346" y="240"/>
      <point x="349" y="191"/>
      <point x="354" y="163" type="curve" smooth="yes"/>
      <point x="364" y="106"/>
      <point x="386" y="95"/>
      <point x="458" y="95" type="curve"/>
      <point x="458" y="95" type="line"/>
      <point x="527" y="95"/>
      <point x="627" y="119"/>
      <point x="672" y="140" type="curve"/>
      <point x="673" y="140" type="line"/>
      <point x="696" y="72" type="line"/>
      <point x="661" y="45"/>
      <point x="582" y="14"/>
      <point x="501" y="-5" type="curve" smooth="yes"/>
      <point x="460" y="-15"/>
      <point x="424" y="-20"/>
      <point x="392" y="-20" type="curve" smooth="yes"/>
      <point x="391" y="-20" type="line" smooth="yes"/>
      <point x="266" y="-20"/>
      <point x="200" y="33"/>
      <point x="200" y="181" type="curve" smooth="yes"/>
      <point x="200" y="893" type="line"/>
    </contour>
  </outline>
</glyph>
<glyph name="v" format="1">
  <advance width="1020"/>
  <unicode hex="0076"/>
  <note>
	v
  </note>
  <outline>
    <contour>
      <point x="4" y="926" type="line"/>
      <point x="4" y="1000" type="line"/>
      <point x="386" y="1000" type="line"/>
      <point x="386" y="926" type="line"/>
      <point x="252" y="904" type="line"/>
      <point x="444" y="368" type="line"/>
      <point x="534" y="112" type="line"/>
      <point x="610" y="358" type="line"/>
      <point x="802" y="904" type="line"/>
      <point x="675" y="926" type="line"/>
      <point x="675" y="1000" type="line"/>
      <point x="1020" y="1000" type="line"/>
      <point x="1020" y="926" type="line"/>
      <point x="928" y="903" type="line"/>
      <point x="574" y="-15" type="line"/>
      <point x="452" y="-15" type="line"/>
      <point x="88" y="904" type="line"/>
    </contour>
  </outline>
</glyph>
<glyph name="w" format="1">
  <advance width="1510"/>
  <unicode hex="0077"/>
  <note>
	w
  </note>
  <outline>
    <contour>
      <point x="-5" y="926" type="line"/>
      <point x="-5" y="1000" type="line"/>
      <point x="385" y="1000" type="line"/>
      <point x="385" y="926" type="line"/>
      <point x="242" y="905" type="line"/>
      <point x="402" y="344" type="line"/>
      <point x="462" y="94" type="line"/>
      <point x="521" y="346" type="line"/>
      <point x="701" y="1000" type="line"/>
      <point x="851" y="1000" type="line"/>
      <point x="1031" y="347" type="line"/>
      <point x="1089" y="92" type="line"/>
      <point x="1154" y="344" type="line"/>
      <point x="1312" y="903" type="line"/>
      <point x="1173" y="926" type="line"/>
      <point x="1173" y="1000" type="line"/>
      <point x="1526" y="1000" type="line"/>
      <point x="1526" y="926" type="line"/>
      <point x="1426" y="904" type="line"/>
      <point x="1147" y="-15" type="line"/>
      <point x="1000" y="-15" type="line"/>
      <point x="804" y="656" type="line"/>
      <point x="753" y="884" type="line"/>
      <point x="709" y="656" type="line"/>
      <point x="520" y="-15" type="line"/>
      <point x="379" y="-15" type="line"/>
      <point x="90" y="905" type="line"/>
    </contour>
  </outline>
</glyph>
<glyph name="x" format="1">
  <advance width="1061"/>
  <unicode hex="0078"/>
  <note>
	x
  </note>
  <outline>
    <contour>
      <point x="138" y="92" type="line"/>
      <point x="458" y="502" type="line"/>
      <point x="150" y="905" type="line"/>
      <point x="43" y="926" type="line"/>
      <point x="43" y="1000" type="line"/>
      <point x="459" y="1000" type="line"/>
      <point x="459" y="926" type="line"/>
      <point x="328" y="905" type="line"/>
      <point x="506" y="652" type="line"/>
      <point x="560" y="573" type="line"/>
      <point x="609" y="651" type="line"/>
      <point x="799" y="905" type="line"/>
      <point x="660" y="926" type="line"/>
      <point x="660" y="1000" type="line"/>
      <point x="1033" y="1000" type="line"/>
      <point x="1033" y="926" type="line"/>
      <point x="920" y="905" type="line"/>
      <point x="613" y="519" type="line"/>
      <point x="936" y="90" type="line"/>
      <point x="1045" y="77" type="line"/>
      <point x="1045" y="0" type="line"/>
      <point x="618" y="0" type="line"/>
      <point x="618" y="77" type="line"/>
      <point x="746" y="92" type="line"/>
      <point x="566" y="357" type="line"/>
      <point x="510" y="438" type="line"/>
      <point x="459" y="359" type="line"/>
      <point x="268" y="92" type="line"/>
      <point x="427" y="77" type="line"/>
      <point x="427" y="0" type="line"/>
      <point x="15" y="0" type="line"/>
      <point x="15" y="77" type="line"/>
    </contour>
  </outline>
</glyph>
<glyph name="z" format="1">
  <advance width="992"/>
  <unicode hex="007A"/>
  <note>
	z
  </note>
  <outline>
    <contour>
      <point x="739" y="907" type="line"/>
      <point x="249" y="893" type="line"/>
      <point x="223" y="724" type="line"/>
      <point x="125" y="724" type="line"/>
      <point x="125" y="1000" type="line"/>
      <point x="875" y="1000" type="line"/>
      <point x="906" y="933" type="line"/>
      <point x="341" y="194" type="line"/>
      <point x="226" y="92" type="line"/>
      <point x="765" y="108" type="line"/>
      <point x="822" y="305" type="line"/>
      <point x="913" y="293" type="line"/>
      <point x="887" y="0" type="line"/>
      <point x="89" y="0" type="line"/>
      <point x="56" y="68" type="line"/>
      <point x="627" y="802" type="line"/>
    </contour>
  </outline>
</glyph>
<glyph name="braceleft" format="1">
  <advance width="903"/>
  <unicode hex="007B"/>
  <note>
	braceleft
  </note>
  <outline>
    <contour>
      <point x="384" y="470"/>
      <point x="367" y="510"/>
      <point x="299" y="532" type="curve" smooth="yes"/>
      <point x="264" y="543"/>
      <point x="213" y="548"/>
      <point x="146" y="548" type="curve"/>
      <point x="146" y="673" type="line"/>
      <point x="215" y="673"/>
      <point x="266" y="678"/>
      <point x="300" y="687" type="curve" smooth="yes"/>
      <point x="368" y="705"/>
      <point x="384" y="736"/>
      <point x="384" y="800" type="curve" smooth="yes"/>
      <point x="384" y="857"/>
      <point x="366" y="907"/>
      <point x="331" y="990" type="curve" smooth="yes"/>
      <point x="290" y="1086"/>
      <point x="268" y="1147"/>
      <point x="268" y="1226" type="curve" smooth="yes"/>
      <point x="268" y="1327"/>
      <point x="298" y="1391"/>
      <point x="377" y="1424" type="curve" smooth="yes"/>
      <point x="416" y="1441"/>
      <point x="470" y="1449"/>
      <point x="539" y="1449" type="curve" smooth="yes"/>
      <point x="612" y="1449"/>
      <point x="685" y="1439"/>
      <point x="757" y="1419" type="curve"/>
      <point x="757" y="1348" type="line"/>
      <point x="745" y="1352"/>
      <point x="637" y="1354"/>
      <point x="598" y="1354" type="curve" smooth="yes"/>
      <point x="477" y="1354"/>
      <point x="414" y="1316"/>
      <point x="414" y="1199" type="curve" smooth="yes"/>
      <point x="414" y="1150"/>
      <point x="429" y="1097"/>
      <point x="458" y="1006" type="curve" smooth="yes"/>
      <point x="491" y="906"/>
      <point x="507" y="851"/>
      <point x="507" y="791" type="curve" smooth="yes"/>
      <point x="507" y="682"/>
      <point x="429" y="625"/>
      <point x="304" y="606" type="curve"/>
      <point x="427" y="589"/>
      <point x="507" y="522"/>
      <point x="507" y="414" type="curve" smooth="yes"/>
      <point x="507" y="354"/>
      <point x="490" y="297"/>
      <point x="458" y="200" type="curve" smooth="yes"/>
      <point x="429" y="109"/>
      <point x="414" y="56"/>
      <point x="414" y="5" type="curve" smooth="yes"/>
      <point x="414" y="-75"/>
      <point x="444" y="-119"/>
      <point x="497" y="-136" type="curve" smooth="yes"/>
      <point x="524" y="-145"/>
      <point x="557" y="-149"/>
      <point x="598" y="-149" type="curve" smooth="yes"/>
      <point x="637" y="-149"/>
      <point x="745" y="-146"/>
      <point x="757" y="-143" type="curve"/>
      <point x="757" y="-215" type="line"/>
      <point x="685" y="-235"/>
      <point x="612" y="-245"/>
      <point x="539" y="-245" type="curve" smooth="yes"/>
      <point x="402" y="-245"/>
      <point x="326" y="-210"/>
      <point x="293" y="-146" type="curve" smooth="yes"/>
      <point x="276" y="-114"/>
      <point x="268" y="-72"/>
      <point x="268" y="-21" type="curve" smooth="yes"/>
      <point x="268" y="58"/>
      <point x="290" y="119"/>
      <point x="331" y="215" type="curve" smooth="yes"/>
      <point x="366" y="298"/>
      <point x="384" y="348"/>
      <point x="384" y="405" type="curve" smooth="yes"/>
    </contour>
  </outline>
</glyph>
<glyph name="bar" format="1">
  <advance width="761"/>
  <unicode hex="007C"/>
  <note>
	bar
  </note>
  <outline>
    <contour>
      <point x="445" y="1566" type="line"/>
      <point x="445" y="-164" type="line"/>
      <point x="316" y="-164" type="line"/>
      <point x="316" y="1566" type="line"/>
    </contour>
  </outline>
</glyph>
<glyph name="braceright" format="1">
  <advance width="903"/>
  <unicode hex="007D"/>
  <note>
	braceright
  </note>
  <outline>
    <contour>
      <point x="635" y="-124"/>
      <point x="606" y="-185"/>
      <point x="527" y="-219" type="curve" smooth="yes"/>
      <point x="488" y="-236"/>
      <point x="433" y="-245"/>
      <point x="364" y="-245" type="curve" smooth="yes"/>
      <point x="291" y="-245"/>
      <point x="219" y="-235"/>
      <point x="147" y="-215" type="curve"/>
      <point x="147" y="-143" type="line"/>
      <point x="159" y="-146"/>
      <point x="266" y="-149"/>
      <point x="306" y="-149" type="curve" smooth="yes"/>
      <point x="387" y="-149"/>
      <point x="440" y="-134"/>
      <point x="469" y="-89" type="curve" smooth="yes"/>
      <point x="483" y="-66"/>
      <point x="490" y="-35"/>
      <point x="490" y="5" type="curve" smooth="yes"/>
      <point x="490" y="56"/>
      <point x="474" y="109"/>
      <point x="445" y="200" type="curve" smooth="yes"/>
      <point x="414" y="297"/>
      <point x="397" y="354"/>
      <point x="397" y="414" type="curve" smooth="yes"/>
      <point x="397" y="522"/>
      <point x="477" y="589"/>
      <point x="600" y="606" type="curve"/>
      <point x="475" y="625"/>
      <point x="397" y="682"/>
      <point x="397" y="791" type="curve" smooth="yes"/>
      <point x="397" y="851"/>
      <point x="413" y="906"/>
      <point x="445" y="1006" type="curve" smooth="yes"/>
      <point x="476" y="1097"/>
      <point x="490" y="1150"/>
      <point x="490" y="1199" type="curve" smooth="yes"/>
      <point x="490" y="1316"/>
      <point x="427" y="1354"/>
      <point x="306" y="1354" type="curve" smooth="yes"/>
      <point x="267" y="1354"/>
      <point x="159" y="1352"/>
      <point x="147" y="1348" type="curve"/>
      <point x="147" y="1419" type="line"/>
      <point x="219" y="1439"/>
      <point x="291" y="1449"/>
      <point x="364" y="1449" type="curve" smooth="yes"/>
      <point x="503" y="1449"/>
      <point x="578" y="1415"/>
      <point x="611" y="1351" type="curve" smooth="yes"/>
      <point x="627" y="1318"/>
      <point x="635" y="1277"/>
      <point x="635" y="1226" type="curve" smooth="yes"/>
      <point x="635" y="1147"/>
      <point x="614" y="1086"/>
      <point x="573" y="990" type="curve" smooth="yes"/>
      <point x="537" y="907"/>
      <point x="520" y="857"/>
      <point x="520" y="800" type="curve" smooth="yes"/>
      <point x="520" y="736"/>
      <point x="536" y="705"/>
      <point x="604" y="687" type="curve" smooth="yes"/>
      <point x="638" y="678"/>
      <point x="689" y="673"/>
      <point x="758" y="673" type="curve"/>
      <point x="758" y="548" type="line"/>
      <point x="690" y="548"/>
      <point x="639" y="543"/>
      <point x="605" y="532" type="curve" smooth="yes"/>
      <point x="537" y="510"/>
      <point x="520" y="470"/>
      <point x="520" y="405" type="curve" smooth="yes"/>
      <point x="520" y="348"/>
      <point x="537" y="298"/>
      <point x="573" y="215" type="curve" smooth="yes"/>
      <point x="614" y="119"/>
      <point x="635" y="58"/>
      <point x="635" y="-21" type="curve" smooth="yes"/>
    </contour>
  </outline>
</glyph>
<glyph name="asciitilde" format="1">
  <advance width="1241"/>
  <unicode hex="007E"/>
  <note>
	asciitilde
  </note>
  <outline>
    <contour>
      <point x="198" y="518" type="line"/>
      <point x="229" y="571"/>
      <point x="283" y="622"/>
      <point x="355" y="652" type="curve" smooth="yes"/>
      <point x="390" y="667"/>
      <point x="428" y="674"/>
      <point x="468" y="674" type="curve" smooth="yes"/>
      <point x="543" y="674"/>
      <point x="589" y="645"/>
      <point x="656" y="592" type="curve" smooth="yes"/>
      <point x="715" y="548"/>
      <point x="747" y="526"/>
      <point x="795" y="526" type="curve" smooth="yes"/>
      <point x="874" y="526"/>
      <point x="938" y="571"/>
      <point x="982" y="631" type="curve"/>
      <point x="1043" y="565" type="line"/>
      <point x="994" y="478"/>
      <point x="891" y="408"/>
      <point x="774" y="408" type="curve" smooth="yes"/>
      <point x="702" y="408"/>
      <point x="655" y="437"/>
      <point x="590" y="489" type="curve" smooth="yes"/>
      <point x="531" y="536"/>
      <point x="499" y="556"/>
      <point x="448" y="556" type="curve" smooth="yes"/>
      <point x="369" y="556"/>
      <point x="305" y="510"/>
      <point x="260" y="451" type="curve"/>
    </contour>
  </outline>
</glyph>
<glyph name="exclamdown" format="1">
  <advance width="640"/>
  <unicode hex="00A1"/>
  <note>
	exclamdown
  </note>
  <outline>
    <contour>
      <point x="246" y="1049"/>
      <point x="212" y="1091"/>
      <point x="212" y="1148" type="curve" smooth="yes"/>
      <point x="212" y="1195"/>
      <point x="237" y="1231"/>
      <point x="274" y="1251" type="curve" smooth="yes"/>
      <point x="292" y="1260"/>
      <point x="311" y="1265"/>
      <point x="332" y="1265" type="curve" smooth="yes"/>
      <point x="387" y="1265"/>
      <point x="433" y="1226"/>
      <point x="433" y="1166" type="curve" smooth="yes"/>
      <point x="433" y="1123"/>
      <point x="408" y="1086"/>
      <point x="371" y="1065" type="curve" smooth="yes"/>
      <point x="352" y="1054"/>
      <point x="333" y="1049"/>
      <point x="314" y="1049" type="curve" smooth="yes"/>
    </contour>
    <contour>
      <point x="246" y="-320" type="line"/>
      <point x="284" y="831" type="line"/>
      <point x="376" y="831" type="line"/>
      <point x="417" y="-320" type="line"/>
    </contour>
  </outline>
</glyph>
<glyph name="cent" format="1">
  <advance width="1048"/>
  <unicode hex="00A2"/>
  <note>
	cent
  </note>
  <outline>
    <contour>
      <point x="565" y="1210" type="line"/>
      <point x="666" y="1210" type="line"/>
      <point x="656" y="1025" type="line"/>
      <point x="732" y="1018"/>
      <point x="806" y="996"/>
      <point x="859" y="973" type="curve"/>
      <point x="851" y="716" type="line"/>
      <point x="761" y="716" type="line"/>
      <point x="723" y="888" type="line" smooth="yes"/>
      <point x="715" y="924"/>
      <point x="663" y="942"/>
      <point x="568" y="942" type="curve" smooth="yes"/>
      <point x="444" y="942"/>
      <point x="349" y="876"/>
      <point x="298" y="754" type="curve" smooth="yes"/>
      <point x="273" y="693"/>
      <point x="260" y="621"/>
      <point x="260" y="538" type="curve" smooth="yes"/>
      <point x="260" y="338"/>
      <point x="321" y="202"/>
      <point x="418" y="135" type="curve" smooth="yes"/>
      <point x="467" y="102"/>
      <point x="522" y="85"/>
      <point x="584" y="85" type="curve" smooth="yes"/>
      <point x="687" y="85"/>
      <point x="789" y="124"/>
      <point x="849" y="168" type="curve"/>
      <point x="878" y="108" type="line"/>
      <point x="815" y="44"/>
      <point x="692" y="-11"/>
      <point x="579" y="-19" type="curve"/>
      <point x="568" y="-214" type="line"/>
      <point x="467" y="-214" type="line"/>
      <point x="478" y="-15" type="line"/>
      <point x="318" y="8"/>
      <point x="204" y="107"/>
      <point x="148" y="252" type="curve" smooth="yes"/>
      <point x="119" y="324"/>
      <point x="105" y="404"/>
      <point x="105" y="492" type="curve" smooth="yes"/>
      <point x="105" y="676"/>
      <point x="172" y="839"/>
      <point x="308" y="940" type="curve" smooth="yes"/>
      <point x="375" y="990"/>
      <point x="457" y="1019"/>
      <point x="554" y="1026" type="curve"/>
    </contour>
  </outline>
</glyph>
<glyph name="sterling" format="1">
  <advance width="1312"/>
  <unicode hex="00A3"/>
  <note>
	sterling
  </note>
  <outline>
    <contour>
      <point x="355" y="775" type="line"/>
      <point x="355" y="898" type="line" smooth="yes"/>
      <point x="355" y="1078"/>
      <point x="439" y="1222"/>
      <point x="569" y="1298" type="curve" smooth="yes"/>
      <point x="634" y="1335"/>
      <point x="705" y="1354"/>
      <point x="782" y="1354" type="curve" smooth="yes"/>
      <point x="891" y="1354"/>
      <point x="991" y="1324"/>
      <point x="1054" y="1268" type="curve"/>
      <point x="972" y="1150" type="line"/>
      <point x="960" y="1175"/>
      <point x="910" y="1213"/>
      <point x="841" y="1238" type="curve" smooth="yes"/>
      <point x="806" y="1250"/>
      <point x="769" y="1256"/>
      <point x="730" y="1256" type="curve" smooth="yes"/>
      <point x="602" y="1256"/>
      <point x="508" y="1178"/>
      <point x="508" y="934" type="curve" smooth="yes"/>
      <point x="508" y="775" type="line"/>
      <point x="794" y="775" type="line"/>
      <point x="794" y="689" type="line"/>
      <point x="508" y="689" type="line"/>
      <point x="508" y="491" type="line" smooth="yes"/>
      <point x="508" y="351"/>
      <point x="467" y="255"/>
      <point x="400" y="175" type="curve"/>
      <point x="464" y="171"/>
      <point x="513" y="161"/>
      <point x="612" y="140" type="curve" smooth="yes"/>
      <point x="720" y="116"/>
      <point x="787" y="104"/>
      <point x="862" y="104" type="curve" smooth="yes"/>
      <point x="959" y="104"/>
      <point x="1012" y="129"/>
      <point x="1035" y="180" type="curve" smooth="yes"/>
      <point x="1046" y="205"/>
      <point x="1052" y="239"/>
      <point x="1052" y="282" type="curve" smooth="yes"/>
      <point x="1052" y="350"/>
      <point x="1034" y="423"/>
      <point x="1011" y="446" type="curve"/>
      <point x="1170" y="446" type="line"/>
      <point x="1189" y="423"/>
      <point x="1202" y="373"/>
      <point x="1202" y="305" type="curve" smooth="yes"/>
      <point x="1202" y="197"/>
      <point x="1139" y="92"/>
      <point x="1035" y="32" type="curve" smooth="yes"/>
      <point x="983" y="2"/>
      <point x="925" y="-13"/>
      <point x="861" y="-13" type="curve" smooth="yes"/>
      <point x="764" y="-13"/>
      <point x="692" y="8"/>
      <point x="577" y="48" type="curve" smooth="yes"/>
      <point x="476" y="84"/>
      <point x="416" y="101"/>
      <point x="341" y="102" type="curve"/>
      <point x="284" y="34"/>
      <point x="228" y="0"/>
      <point x="174" y="0" type="curve" smooth="yes"/>
      <point x="134" y="0"/>
      <point x="95" y="20"/>
      <point x="95" y="67" type="curve" smooth="yes"/>
      <point x="95" y="110"/>
      <point x="135" y="152"/>
      <point x="199" y="176" type="curve" smooth="yes"/>
      <point x="230" y="188"/>
      <point x="264" y="193"/>
      <point x="301" y="191" type="curve"/>
      <point x="329" y="235"/>
      <point x="355" y="373"/>
      <point x="355" y="473" type="curve" smooth="yes"/>
      <point x="355" y="689" type="line"/>
      <point x="171" y="689" type="line"/>
      <point x="171" y="775" type="line"/>
    </contour>
  </outline>
</glyph>
<glyph name="currency" format="1">
  <advance width="1361"/>
  <unicode hex="00A4"/>
  <note>
	currency
  </note>
  <outline>
    <contour>
      <point x="371" y="442" type="line"/>
      <point x="324" y="509"/>
      <point x="300" y="585"/>
      <point x="300" y="671" type="curve" smooth="yes"/>
      <point x="300" y="760"/>
      <point x="327" y="845"/>
      <point x="376" y="913" type="curve"/>
      <point x="189" y="1100" type="line"/>
      <point x="279" y="1192" type="line"/>
      <point x="466" y="1003" type="line"/>
      <point x="529" y="1048"/>
      <point x="599" y="1070"/>
      <point x="678" y="1070" type="curve" smooth="yes"/>
      <point x="757" y="1070"/>
      <point x="831" y="1048"/>
      <point x="894" y="1008" type="curve"/>
      <point x="1081" y="1193" type="line"/>
      <point x="1172" y="1102" type="line"/>
      <point x="989" y="920" type="line"/>
      <point x="1037" y="855"/>
      <point x="1065" y="776"/>
      <point x="1065" y="689" type="curve" smooth="yes"/>
      <point x="1065" y="600"/>
      <point x="1036" y="515"/>
      <point x="985" y="446" type="curve"/>
      <point x="1169" y="262" type="line"/>
      <point x="1078" y="171" type="line"/>
      <point x="891" y="356" type="line"/>
      <point x="830" y="315"/>
      <point x="755" y="290"/>
      <point x="678" y="290" type="curve" smooth="yes"/>
      <point x="600" y="290"/>
      <point x="529" y="311"/>
      <point x="466" y="352" type="curve"/>
      <point x="280" y="167" type="line"/>
      <point x="189" y="259" type="line"/>
    </contour>
    <contour>
      <point x="941" y="777"/>
      <point x="890" y="870"/>
      <point x="807" y="922" type="curve" smooth="yes"/>
      <point x="766" y="947"/>
      <point x="721" y="960"/>
      <point x="673" y="960" type="curve" smooth="yes"/>
      <point x="565" y="960"/>
      <point x="487" y="903"/>
      <point x="447" y="816" type="curve" smooth="yes"/>
      <point x="427" y="773"/>
      <point x="417" y="725"/>
      <point x="417" y="674" type="curve" smooth="yes"/>
      <point x="417" y="573"/>
      <point x="467" y="485"/>
      <point x="547" y="437" type="curve" smooth="yes"/>
      <point x="586" y="412"/>
      <point x="630" y="400"/>
      <point x="678" y="400" type="curve" smooth="yes"/>
      <point x="794" y="400"/>
      <point x="873" y="452"/>
      <point x="912" y="536" type="curve" smooth="yes"/>
      <point x="931" y="578"/>
      <point x="941" y="625"/>
      <point x="941" y="678" type="curve" smooth="yes"/>
    </contour>
  </outline>
</glyph>
<glyph name="yen" format="1">
  <advance width="1378"/>
  <unicode hex="00A5"/>
  <note>
	yen
  </note>
  <outline>
    <contour>
      <point x="576" y="747" type="line"/>
      <point x="229" y="1250" type="line"/>
      <point x="114" y="1272" type="line"/>
      <point x="114" y="1339" type="line"/>
      <point x="544" y="1339" type="line"/>
      <point x="544" y="1272" type="line"/>
      <point x="410" y="1254" type="line"/>
      <point x="657" y="864" type="line"/>
      <point x="709" y="756" type="line"/>
      <point x="784" y="868" type="line"/>
      <point x="1001" y="1254" type="line"/>
      <point x="867" y="1272" type="line"/>
      <point x="867" y="1339" type="line"/>
      <point x="1259" y="1339" type="line"/>
      <point x="1259" y="1272" type="line"/>
      <point x="1134" y="1250" type="line"/>
      <point x="804" y="747" type="line"/>
      <point x="1170" y="747" type="line"/>
      <point x="1170" y="662" type="line"/>
      <point x="759" y="662" type="line"/>
      <point x="759" y="411" type="line"/>
      <point x="1170" y="411" type="line"/>
      <point x="1170" y="325" type="line"/>
      <point x="759" y="325" type="line"/>
      <point x="759" y="88" type="line"/>
      <point x="970" y="69" type="line"/>
      <point x="970" y="0" type="line"/>
      <point x="424" y="0" type="line"/>
      <point x="424" y="69" type="line"/>
      <point x="632" y="89" type="line"/>
      <point x="632" y="325" type="line"/>
      <point x="221" y="325" type="line"/>
      <point x="221" y="411" type="line"/>
      <point x="632" y="411" type="line"/>
      <point x="632" y="662" type="line"/>
      <point x="221" y="662" type="line"/>
      <point x="221" y="747" type="line"/>
    </contour>
  </outline>
</glyph>
<glyph name="brokenbar" format="1">
  <advance width="761"/>
  <unicode hex="00A6"/>
  <note>
	brokenbar
  </note>
  <outline>
    <contour>
      <point x="445" y="1566" type="line"/>
      <point x="445" y="836" type="line"/>
      <point x="316" y="836" type="line"/>
      <point x="316" y="1566" type="line"/>
    </contour>
    <contour>
      <point x="445" y="564" type="line"/>
      <point x="445" y="-164" type="line"/>
      <point x="316" y="-164" type="line"/>
      <point x="316" y="564" type="line"/>
    </contour>
  </outline>
</glyph>
<glyph name="section" format="1">
  <advance width="1200"/>
  <unicode hex="00A7"/>
  <note>
	section
  </note>
  <outline>
    <contour>
      <point x="282" y="216" type="line"/>
      <point x="308" y="-11" type="line"/>
      <point x="353" y="-52"/>
      <point x="467" y="-88"/>
      <point x="583" y="-88" type="curve" smooth="yes"/>
      <point x="782" y="-88"/>
      <point x="883" y="-16"/>
      <point x="883" y="89" type="curve" smooth="yes"/>
      <point x="883" y="174"/>
      <point x="818" y="235"/>
      <point x="731" y="276" type="curve" smooth="yes"/>
      <point x="687" y="297"/>
      <point x="627" y="321"/>
      <point x="551" y="350" type="curve" smooth="yes"/>
      <point x="534" y="356" type="line" smooth="yes"/>
      <point x="398" y="408"/>
      <point x="292" y="468"/>
      <point x="221" y="569" type="curve" smooth="yes"/>
      <point x="185" y="620"/>
      <point x="167" y="680"/>
      <point x="167" y="750" type="curve" smooth="yes"/>
      <point x="167" y="850"/>
      <point x="211" y="920"/>
      <point x="296" y="981" type="curve"/>
      <point x="231" y="1043"/>
      <point x="199" y="1113"/>
      <point x="199" y="1192" type="curve" smooth="yes"/>
      <point x="199" y="1307"/>
      <point x="271" y="1397"/>
      <point x="399" y="1445" type="curve" smooth="yes"/>
      <point x="463" y="1469"/>
      <point x="538" y="1481"/>
      <point x="624" y="1481" type="curve" smooth="yes"/>
      <point x="728" y="1481"/>
      <point x="806" y="1462"/>
      <point x="905" y="1433" type="curve" smooth="yes"/>
      <point x="937" y="1424"/>
      <point x="957" y="1418"/>
      <point x="964" y="1417" type="curve"/>
      <point x="953" y="1130" type="line"/>
      <point x="866" y="1130" type="line"/>
      <point x="824" y="1344" type="line"/>
      <point x="818" y="1350"/>
      <point x="805" y="1357"/>
      <point x="786" y="1364" type="curve" smooth="yes"/>
      <point x="747" y="1379"/>
      <point x="687" y="1390"/>
      <point x="619" y="1390" type="curve" smooth="yes"/>
      <point x="436" y="1390"/>
      <point x="337" y="1332"/>
      <point x="337" y="1221" type="curve" smooth="yes"/>
      <point x="337" y="1130"/>
      <point x="389" y="1072"/>
      <point x="461" y="1033" type="curve" smooth="yes"/>
      <point x="497" y="1014"/>
      <point x="548" y="991"/>
      <point x="614" y="964" type="curve" smooth="yes"/>
      <point x="657" y="946" type="line" smooth="yes"/>
      <point x="797" y="889"/>
      <point x="900" y="837"/>
      <point x="980" y="739" type="curve" smooth="yes"/>
      <point x="1020" y="690"/>
      <point x="1040" y="632"/>
      <point x="1040" y="567" type="curve" smooth="yes"/>
      <point x="1040" y="476"/>
      <point x="997" y="394"/>
      <point x="912" y="323" type="curve"/>
      <point x="987" y="263"/>
      <point x="1024" y="198"/>
      <point x="1024" y="127" type="curve" smooth="yes"/>
      <point x="1024" y="22"/>
      <point x="961" y="-77"/>
      <point x="826" y="-135" type="curve" smooth="yes"/>
      <point x="758" y="-164"/>
      <point x="674" y="-179"/>
      <point x="574" y="-179" type="curve" smooth="yes"/>
      <point x="449" y="-179"/>
      <point x="355" y="-153"/>
      <point x="244" y="-117" type="curve" smooth="yes"/>
      <point x="207" y="-104"/>
      <point x="181" y="-97"/>
      <point x="167" y="-96" type="curve"/>
      <point x="188" y="216" type="line"/>
    </contour>
    <contour>
      <point x="873" y="423"/>
      <point x="896" y="475"/>
      <point x="896" y="535" type="curve" smooth="yes"/>
      <point x="896" y="628"/>
      <point x="841" y="696"/>
      <point x="750" y="748" type="curve" smooth="yes"/>
      <point x="704" y="773"/>
      <point x="646" y="799"/>
      <point x="576" y="825" type="curve" smooth="yes"/>
      <point x="489" y="858"/>
      <point x="421" y="891"/>
      <point x="370" y="924" type="curve"/>
      <point x="322" y="883"/>
      <point x="298" y="841"/>
      <point x="298" y="782" type="curve" smooth="yes"/>
      <point x="298" y="681"/>
      <point x="354" y="611"/>
      <point x="442" y="559" type="curve" smooth="yes"/>
      <point x="486" y="533"/>
      <point x="544" y="505"/>
      <point x="615" y="476" type="curve" smooth="yes"/>
      <point x="707" y="439"/>
      <point x="765" y="415"/>
      <point x="828" y="379" type="curve"/>
    </contour>
  </outline>
</glyph>
<glyph name="dieresis" format="1">
  <advance width="899"/>
  <unicode hex="00A8"/>
  <note>
	dieresis
  </note>
  <outline>
    <contour>
      <point x="154" y="1376"/>
      <point x="192" y="1429"/>
      <point x="260" y="1429" type="curve"/>
      <point x="260" y="1429" type="line"/>
      <point x="319" y="1429"/>
      <point x="355" y="1381"/>
      <point x="355" y="1325" type="curve" smooth="yes"/>
      <point x="355" y="1257"/>
      <point x="315" y="1207"/>
      <point x="246" y="1207" type="curve" smooth="yes"/>
      <point x="245" y="1207" type="line" smooth="yes"/>
      <point x="189" y="1207"/>
      <point x="154" y="1252"/>
      <point x="154" y="1309" type="curve" smooth="yes"/>
    </contour>
    <contour>
      <point x="548" y="1376"/>
      <point x="587" y="1429"/>
      <point x="654" y="1429" type="curve" smooth="yes"/>
      <point x="655" y="1429" type="line" smooth="yes"/>
      <point x="714" y="1429"/>
      <point x="749" y="1381"/>
      <point x="749" y="1325" type="curve" smooth="yes"/>
      <point x="749" y="1257"/>
      <point x="711" y="1207"/>
      <point x="640" y="1207" type="curve" smooth="yes"/>
      <point x="639" y="1207" type="line" smooth="yes"/>
      <point x="584" y="1207"/>
      <point x="548" y="1252"/>
      <point x="548" y="1309" type="curve" smooth="yes"/>
    </contour>
  </outline>
</glyph>
<glyph name="copyright" format="1">
  <advance width="1873"/>
  <unicode hex="00A9"/>
  <note>
	copyright
  </note>
  <outline>
    <contour>
      <point x="1217" y="1654"/>
      <point x="1465" y="1507"/>
      <point x="1601" y="1271" type="curve" smooth="yes"/>
      <point x="1669" y="1152"/>
      <point x="1703" y="1023"/>
      <point x="1703" y="883" type="curve" smooth="yes"/>
      <point x="1703" y="600"/>
      <point x="1557" y="351"/>
      <point x="1323" y="212" type="curve" smooth="yes"/>
      <point x="1206" y="142"/>
      <point x="1077" y="107"/>
      <point x="936" y="107" type="curve" smooth="yes"/>
      <point x="656" y="107"/>
      <point x="409" y="257"/>
      <point x="273" y="494" type="curve" smooth="yes"/>
      <point x="205" y="612"/>
      <point x="171" y="742"/>
      <point x="171" y="883" type="curve" smooth="yes"/>
      <point x="171" y="1163"/>
      <point x="317" y="1414"/>
      <point x="551" y="1551" type="curve" smooth="yes"/>
      <point x="668" y="1620"/>
      <point x="796" y="1654"/>
      <point x="936" y="1654" type="curve" smooth="yes"/>
    </contour>
    <contour>
      <point x="1183" y="195"/>
      <point x="1398" y="329"/>
      <point x="1515" y="540" type="curve" smooth="yes"/>
      <point x="1574" y="645"/>
      <point x="1603" y="760"/>
      <point x="1603" y="883" type="curve" smooth="yes"/>
      <point x="1603" y="1128"/>
      <point x="1478" y="1351"/>
      <point x="1274" y="1476" type="curve" smooth="yes"/>
      <point x="1172" y="1538"/>
      <point x="1059" y="1569"/>
      <point x="936" y="1569" type="curve" smooth="yes"/>
      <point x="691" y="1569"/>
      <point x="474" y="1435"/>
      <point x="357" y="1225" type="curve" smooth="yes"/>
      <point x="298" y="1120"/>
      <point x="269" y="1006"/>
      <point x="269" y="883" type="curve" smooth="yes"/>
      <point x="269" y="636"/>
      <point x="394" y="413"/>
      <point x="599" y="289" type="curve" smooth="yes"/>
      <point x="701" y="226"/>
      <point x="813" y="195"/>
      <point x="936" y="195" type="curve" smooth="yes"/>
    </contour>
    <contour>
      <point x="547" y="1036"/>
      <point x="630" y="1180"/>
      <point x="766" y="1258" type="curve" smooth="yes"/>
      <point x="834" y="1297"/>
      <point x="910" y="1316"/>
      <point x="994" y="1316" type="curve" smooth="yes"/>
      <point x="1079" y="1316"/>
      <point x="1186" y="1295"/>
      <point x="1219" y="1263" type="curve"/>
      <point x="1218" y="1074" type="line"/>
      <point x="1133" y="1074" type="line"/>
      <point x="1097" y="1190" type="line"/>
      <point x="1068" y="1211"/>
      <point x="1026" y="1221"/>
      <point x="939" y="1221" type="curve" smooth="yes"/>
      <point x="836" y="1221"/>
      <point x="759" y="1168"/>
      <point x="719" y="1073" type="curve" smooth="yes"/>
      <point x="699" y="1025"/>
      <point x="689" y="968"/>
      <point x="689" y="903" type="curve" smooth="yes"/>
      <point x="689" y="768"/>
      <point x="741" y="663"/>
      <point x="833" y="608" type="curve" smooth="yes"/>
      <point x="878" y="581"/>
      <point x="931" y="567"/>
      <point x="992" y="567" type="curve" smooth="yes"/>
      <point x="1072" y="567"/>
      <point x="1140" y="597"/>
      <point x="1192" y="649" type="curve"/>
      <point x="1228" y="588" type="line"/>
      <point x="1192" y="543"/>
      <point x="1132" y="500"/>
      <point x="1057" y="474" type="curve" smooth="yes"/>
      <point x="1020" y="461"/>
      <point x="981" y="454"/>
      <point x="942" y="454" type="curve" smooth="yes"/>
      <point x="773" y="454"/>
      <point x="652" y="529"/>
      <point x="592" y="656" type="curve" smooth="yes"/>
      <point x="562" y="719"/>
      <point x="547" y="792"/>
      <point x="547" y="875" type="curve" smooth="yes"/>
    </contour>
  </outline>
</glyph>
<glyph name="ordfeminine" format="1">
  <advance width="906"/>
  <unicode hex="00AA"/>
  <note>
	ordfeminine
  </note>
  <outline>
    <contour>
      <point x="114" y="985"/>
      <point x="288" y="1069"/>
      <point x="631" y="1078" type="curve"/>
      <point x="631" y="1104" type="line" smooth="yes"/>
      <point x="631" y="1213"/>
      <point x="610" y="1267"/>
      <point x="555" y="1291" type="curve" smooth="yes"/>
      <point x="527" y="1303"/>
      <point x="488" y="1309"/>
      <point x="437" y="1309" type="curve" smooth="yes"/>
      <point x="348" y="1309"/>
      <point x="250" y="1276"/>
      <point x="173" y="1237" type="curve"/>
      <point x="130" y="1315" type="line"/>
      <point x="177" y="1344"/>
      <point x="261" y="1377"/>
      <point x="349" y="1397" type="curve" smooth="yes"/>
      <point x="392" y="1407"/>
      <point x="432" y="1412"/>
      <point x="467" y="1412" type="curve" smooth="yes"/>
      <point x="607" y="1412"/>
      <point x="691" y="1377"/>
      <point x="734" y="1293" type="curve" smooth="yes"/>
      <point x="755" y="1250"/>
      <point x="766" y="1193"/>
      <point x="766" y="1121" type="curve" smooth="yes"/>
      <point x="766" y="675" type="line"/>
      <point x="868" y="675" type="line"/>
      <point x="868" y="613" type="line"/>
      <point x="810" y="598"/>
      <point x="761" y="590"/>
      <point x="722" y="590" type="curve" smooth="yes"/>
      <point x="682" y="590"/>
      <point x="660" y="594"/>
      <point x="648" y="611" type="curve" smooth="yes"/>
      <point x="642" y="620"/>
      <point x="639" y="633"/>
      <point x="639" y="651" type="curve" smooth="yes"/>
      <point x="639" y="711" type="line"/>
      <point x="552" y="630"/>
      <point x="459" y="589"/>
      <point x="360" y="589" type="curve" smooth="yes"/>
      <point x="267" y="589"/>
      <point x="189" y="628"/>
      <point x="146" y="696" type="curve" smooth="yes"/>
      <point x="125" y="729"/>
      <point x="114" y="767"/>
      <point x="114" y="810" type="curve" smooth="yes"/>
    </contour>
    <contour>
      <point x="631" y="777" type="line"/>
      <point x="631" y="1002" type="line"/>
      <point x="450" y="997"/>
      <point x="346" y="971"/>
      <point x="298" y="921" type="curve" smooth="yes"/>
      <point x="273" y="896"/>
      <point x="261" y="862"/>
      <point x="261" y="821" type="curve" smooth="yes"/>
      <point x="261" y="740"/>
      <point x="319" y="685"/>
      <point x="418" y="685" type="curve" smooth="yes"/>
      <point x="470" y="685"/>
      <point x="533" y="709"/>
      <point x="581" y="739" type="curve" smooth="yes"/>
      <point x="604" y="754"/>
      <point x="621" y="767"/>
      <point x="630" y="778" type="curve"/>
    </contour>
  </outline>
</glyph>
<glyph name="guillemotleft" format="1">
  <advance width="1672"/>
  <unicode hex="00AB"/>
  <note>
	guillemotleft
  </note>
  <outline>
    <contour>
      <point x="1437" y="986" type="line"/>
      <point x="1481" y="909" type="line"/>
      <point x="1030" y="541" type="line"/>
      <point x="1486" y="182" type="line"/>
      <point x="1437" y="102" type="line"/>
      <point x="859" y="479" type="line"/>
      <point x="859" y="598" type="line"/>
    </contour>
    <contour>
      <point x="792" y="986" type="line"/>
      <point x="836" y="909" type="line"/>
      <point x="385" y="541" type="line"/>
      <point x="841" y="182" type="line"/>
      <point x="792" y="102" type="line"/>
      <point x="214" y="479" type="line"/>
      <point x="214" y="598" type="line"/>
    </contour>
  </outline>
</glyph>
<glyph name="uni00AD" format="1">
  <advance width="1183"/>
  <unicode hex="00AD"/>
  <note>
	uni00AD
  </note>
  <outline>
    <contour>
      <point x="981" y="597" type="line"/>
      <point x="981" y="488" type="line"/>
      <point x="202" y="488" type="line"/>
      <point x="202" y="597" type="line"/>
    </contour>
  </outline>
</glyph>
<glyph name="registered" format="1">
  <advance width="1873"/>
  <unicode hex="00AE"/>
  <note>
	registered
  </note>
  <outline>
    <contour>
      <point x="1217" y="1654"/>
      <point x="1465" y="1507"/>
      <point x="1601" y="1271" type="curve" smooth="yes"/>
      <point x="1669" y="1152"/>
      <point x="1703" y="1023"/>
      <point x="1703" y="883" type="curve" smooth="yes"/>
      <point x="1703" y="600"/>
      <point x="1557" y="351"/>
      <point x="1323" y="212" type="curve" smooth="yes"/>
      <point x="1206" y="142"/>
      <point x="1077" y="107"/>
      <point x="936" y="107" type="curve" smooth="yes"/>
      <point x="656" y="107"/>
      <point x="409" y="257"/>
      <point x="273" y="494" type="curve" smooth="yes"/>
      <point x="205" y="612"/>
      <point x="171" y="742"/>
      <point x="171" y="883" type="curve" smooth="yes"/>
      <point x="171" y="1163"/>
      <point x="317" y="1414"/>
      <point x="551" y="1551" type="curve" smooth="yes"/>
      <point x="668" y="1620"/>
      <point x="796" y="1654"/>
      <point x="936" y="1654" type="curve" smooth="yes"/>
    </contour>
    <contour>
      <point x="1183" y="195"/>
      <point x="1398" y="329"/>
      <point x="1515" y="540" type="curve" smooth="yes"/>
      <point x="1574" y="645"/>
      <point x="1603" y="760"/>
      <point x="1603" y="883" type="curve" smooth="yes"/>
      <point x="1603" y="1128"/>
      <point x="1478" y="1351"/>
      <point x="1274" y="1476" type="curve" smooth="yes"/>
      <point x="1172" y="1538"/>
      <point x="1059" y="1569"/>
      <point x="936" y="1569" type="curve" smooth="yes"/>
      <point x="691" y="1569"/>
      <point x="474" y="1435"/>
      <point x="357" y="1225" type="curve" smooth="yes"/>
      <point x="298" y="1120"/>
      <point x="269" y="1006"/>
      <point x="269" y="883" type="curve" smooth="yes"/>
      <point x="269" y="636"/>
      <point x="394" y="413"/>
      <point x="599" y="289" type="curve" smooth="yes"/>
      <point x="701" y="226"/>
      <point x="813" y="195"/>
      <point x="936" y="195" type="curve" smooth="yes"/>
    </contour>
    <contour>
      <point x="676" y="543" type="line"/>
      <point x="676" y="1212" type="line"/>
      <point x="590" y="1229" type="line"/>
      <point x="590" y="1303" type="line"/>
      <point x="725" y="1303" type="line"/>
      <point x="752" y="1302"/>
      <point x="778" y="1303"/>
      <point x="803" y="1304" type="curve" smooth="yes"/>
      <point x="828" y="1305"/>
      <point x="845" y="1305"/>
      <point x="854" y="1305" type="curve" smooth="yes"/>
      <point x="862" y="1305"/>
      <point x="876" y="1306"/>
      <point x="895" y="1307" type="curve" smooth="yes"/>
      <point x="914" y="1308"/>
      <point x="933" y="1308"/>
      <point x="952" y="1308" type="curve" smooth="yes"/>
      <point x="1159" y="1308"/>
      <point x="1272" y="1227"/>
      <point x="1272" y="1091" type="curve" smooth="yes"/>
      <point x="1272" y="954"/>
      <point x="1194" y="856"/>
      <point x="1074" y="829" type="curve"/>
      <point x="1123" y="805"/>
      <point x="1154" y="768"/>
      <point x="1173" y="733" type="curve" smooth="yes"/>
      <point x="1182" y="715"/>
      <point x="1193" y="692"/>
      <point x="1204" y="664" type="curve" smooth="yes"/>
      <point x="1227" y="607"/>
      <point x="1242" y="578"/>
      <point x="1275" y="555" type="curve" smooth="yes"/>
      <point x="1291" y="543"/>
      <point x="1312" y="536"/>
      <point x="1338" y="534" type="curve"/>
      <point x="1338" y="457" type="line"/>
      <point x="1221" y="457" type="line" smooth="yes"/>
      <point x="1166" y="457"/>
      <point x="1134" y="487"/>
      <point x="1116" y="527" type="curve" smooth="yes"/>
      <point x="1107" y="547"/>
      <point x="1097" y="575"/>
      <point x="1086" y="611" type="curve" smooth="yes"/>
      <point x="1066" y="679"/>
      <point x="1052" y="720"/>
      <point x="1018" y="760" type="curve" smooth="yes"/>
      <point x="1001" y="779"/>
      <point x="978" y="794"/>
      <point x="951" y="805" type="curve"/>
      <point x="795" y="807" type="line"/>
      <point x="795" y="539" type="line"/>
      <point x="892" y="523" type="line"/>
      <point x="892" y="457" type="line"/>
      <point x="590" y="457" type="line"/>
      <point x="590" y="523" type="line"/>
    </contour>
    <contour>
      <point x="1022" y="896"/>
      <point x="1079" y="929"/>
      <point x="1111" y="981" type="curve" smooth="yes"/>
      <point x="1126" y="1007"/>
      <point x="1134" y="1036"/>
      <point x="1134" y="1067" type="curve" smooth="yes"/>
      <point x="1134" y="1180"/>
      <point x="1067" y="1225"/>
      <point x="928" y="1225" type="curve" smooth="yes"/>
      <point x="876" y="1225"/>
      <point x="843" y="1224"/>
      <point x="795" y="1216" type="curve"/>
      <point x="795" y="902" type="line"/>
      <point x="814" y="898"/>
      <point x="868" y="896"/>
      <point x="957" y="896" type="curve" smooth="yes"/>
    </contour>
  </outline>
</glyph>
<glyph name="macron" format="1">
  <advance width="599"/>
  <unicode hex="00AF"/>
  <note>
	macron
  </note>
  <outline>
    <contour>
      <point x="534" y="1370" type="line"/>
      <point x="534" y="1259" type="line"/>
      <point x="63" y="1259" type="line"/>
      <point x="63" y="1370" type="line"/>
    </contour>
  </outline>
</glyph>
<glyph name="degree" format="1">
  <advance width="806"/>
  <unicode hex="00B0"/>
  <note>
	degree
  </note>
  <outline>
    <contour>
      <point x="101" y="1250"/>
      <point x="159" y="1347"/>
      <point x="251" y="1399" type="curve" smooth="yes"/>
      <point x="297" y="1425"/>
      <point x="347" y="1438"/>
      <point x="402" y="1438" type="curve" smooth="yes"/>
      <point x="517" y="1438"/>
      <point x="614" y="1380"/>
      <point x="667" y="1288" type="curve" smooth="yes"/>
      <point x="693" y="1242"/>
      <point x="706" y="1192"/>
      <point x="706" y="1138" type="curve" smooth="yes"/>
      <point x="706" y="1023"/>
      <point x="648" y="928"/>
      <point x="556" y="876" type="curve" smooth="yes"/>
      <point x="509" y="850"/>
      <point x="458" y="837"/>
      <point x="402" y="837" type="curve" smooth="yes"/>
      <point x="294" y="837"/>
      <point x="197" y="896"/>
      <point x="142" y="988" type="curve" smooth="yes"/>
      <point x="115" y="1034"/>
      <point x="101" y="1084"/>
      <point x="101" y="1138" type="curve" smooth="yes"/>
    </contour>
    <contour>
      <point x="600" y="1210"/>
      <point x="562" y="1275"/>
      <point x="502" y="1311" type="curve" smooth="yes"/>
      <point x="472" y="1329"/>
      <point x="438" y="1338"/>
      <point x="401" y="1338" type="curve" smooth="yes"/>
      <point x="326" y="1338"/>
      <point x="265" y="1302"/>
      <point x="231" y="1241" type="curve" smooth="yes"/>
      <point x="214" y="1210"/>
      <point x="205" y="1176"/>
      <point x="205" y="1138" type="curve" smooth="yes"/>
      <point x="205" y="1066"/>
      <point x="245" y="1001"/>
      <point x="305" y="965" type="curve" smooth="yes"/>
      <point x="335" y="946"/>
      <point x="368" y="937"/>
      <point x="404" y="937" type="curve" smooth="yes"/>
      <point x="480" y="937"/>
      <point x="542" y="973"/>
      <point x="575" y="1034" type="curve" smooth="yes"/>
      <point x="592" y="1064"/>
      <point x="600" y="1099"/>
      <point x="600" y="1138" type="curve" smooth="yes"/>
    </contour>
  </outline>
</glyph>
<glyph name="plusminus" format="1">
  <advance width="1190"/>
  <unicode hex="00B1"/>
  <note>
	plusminus
  </note>
  <outline>
    <contour>
      <point x="388" y="649" type="line"/>
      <point x="541" y="641" type="line"/>
      <point x="537" y="798" type="line"/>
      <point x="537" y="999" type="line"/>
      <point x="654" y="999" type="line"/>
      <point x="654" y="798" type="line"/>
      <point x="648" y="641" type="line"/>
      <point x="780" y="649" type="line"/>
      <point x="998" y="649" type="line"/>
      <point x="998" y="532" type="line"/>
      <point x="780" y="532" type="line"/>
      <point x="648" y="537" type="line"/>
      <point x="654" y="382" type="line"/>
      <point x="654" y="180" type="line"/>
      <point x="537" y="180" type="line"/>
      <point x="537" y="382" type="line"/>
      <point x="541" y="537" type="line"/>
      <point x="388" y="532" type="line"/>
      <point x="193" y="532" type="line"/>
      <point x="193" y="649" type="line"/>
    </contour>
    <contour>
      <point x="984" y="110" type="line"/>
      <point x="984" y="0" type="line"/>
      <point x="205" y="0" type="line"/>
      <point x="205" y="110" type="line"/>
    </contour>
  </outline>
</glyph>
<glyph name="acute" format="1">
  <advance width="599"/>
  <unicode hex="00B4"/>
  <note>
	acute
  </note>
  <outline>
    <contour>
      <point x="485" y="1583" type="line"/>
      <point x="486" y="1583" type="line"/>
      <point x="598" y="1485" type="line"/>
      <point x="569" y="1441"/>
      <point x="464" y="1343"/>
      <point x="366" y="1264" type="curve" smooth="yes"/>
      <point x="317" y="1225"/>
      <point x="280" y="1199"/>
      <point x="256" y="1187" type="curve"/>
      <point x="254" y="1187" type="line"/>
      <point x="203" y="1236" type="line"/>
    </contour>
  </outline>
</glyph>
<glyph name="paragraph" format="1">
  <advance width="1255"/>
  <unicode hex="00B6"/>
  <note>
	paragraph
  </note>
  <outline>
    <contour>
      <point x="466" y="92" type="line"/>
      <point x="466" y="722" type="line"/>
      <point x="211" y="722"/>
      <point x="81" y="864"/>
      <point x="81" y="1119" type="curve" smooth="yes"/>
      <point x="81" y="1268"/>
      <point x="155" y="1389"/>
      <point x="300" y="1456" type="curve" smooth="yes"/>
      <point x="372" y="1489"/>
      <point x="460" y="1506"/>
      <point x="563" y="1506" type="curve" smooth="yes"/>
      <point x="615" y="1506"/>
      <point x="679" y="1503"/>
      <point x="755" y="1497" type="curve" smooth="yes"/>
      <point x="837" y="1491"/>
      <point x="910" y="1488"/>
      <point x="973" y="1488" type="curve" smooth="yes"/>
      <point x="1140" y="1488" type="line"/>
      <point x="1140" y="1410" type="line"/>
      <point x="984" y="1392" type="line"/>
      <point x="984" y="92" type="line"/>
      <point x="1119" y="76" type="line"/>
      <point x="1119" y="0" type="line"/>
      <point x="847" y="0" type="line"/>
      <point x="847" y="1385" type="line"/>
      <point x="761" y="1394"/>
      <point x="691" y="1398"/>
      <point x="636" y="1398" type="curve" smooth="yes"/>
      <point x="627" y="1398"/>
      <point x="616" y="1398"/>
      <point x="605" y="1397" type="curve"/>
      <point x="605" y="0" type="line"/>
      <point x="290" y="0" type="line"/>
      <point x="290" y="76" type="line"/>
    </contour>
  </outline>
</glyph>
<glyph name="periodcentered" format="1">
  <advance width="616"/>
  <unicode hex="00B7"/>
  <note>
	periodcentered
  </note>
  <outline>
    <contour>
      <point x="203" y="631"/>
      <point x="228" y="670"/>
      <point x="264" y="691" type="curve" smooth="yes"/>
      <point x="282" y="702"/>
      <point x="301" y="707"/>
      <point x="320" y="707" type="curve" smooth="yes"/>
      <point x="384" y="707"/>
      <point x="417" y="664"/>
      <point x="417" y="605" type="curve" smooth="yes"/>
      <point x="417" y="560"/>
      <point x="394" y="522"/>
      <point x="359" y="502" type="curve" smooth="yes"/>
      <point x="341" y="492"/>
      <point x="322" y="487"/>
      <point x="301" y="487" type="curve" smooth="yes"/>
      <point x="248" y="487"/>
      <point x="203" y="528"/>
      <point x="203" y="588" type="curve" smooth="yes"/>
    </contour>
  </outline>
</glyph>
<glyph name="cedilla" format="1">
  <advance width="541"/>
  <unicode hex="00B8"/>
  <note>
	cedilla
  </note>
  <outline>
    <contour>
      <point x="235" y="1" type="line"/>
      <point x="264" y="-26"/>
      <point x="304" y="-80"/>
      <point x="329" y="-147" type="curve" smooth="yes"/>
      <point x="342" y="-181"/>
      <point x="348" y="-215"/>
      <point x="348" y="-248" type="curve" smooth="yes"/>
      <point x="348" y="-373"/>
      <point x="275" y="-423"/>
      <point x="128" y="-423" type="curve" smooth="yes"/>
      <point x="128" y="-423" type="line" smooth="yes"/>
      <point x="87" y="-423"/>
      <point x="32" y="-413"/>
      <point x="1" y="-400" type="curve"/>
      <point x="2" y="-294" type="line"/>
      <point x="25" y="-302"/>
      <point x="65" y="-308"/>
      <point x="84" y="-308" type="curve" smooth="yes"/>
      <point x="85" y="-308" type="line" smooth="yes"/>
      <point x="150" y="-308"/>
      <point x="186" y="-298"/>
      <point x="207" y="-261" type="curve" smooth="yes"/>
      <point x="217" y="-242"/>
      <point x="222" y="-215"/>
      <point x="222" y="-180" type="curve" smooth="yes"/>
      <point x="222" y="-115"/>
      <point x="187" y="-38"/>
      <point x="160" y="1" type="curve"/>
      <point x="202" y="11" type="line"/>
    </contour>
  </outline>
</glyph>
<glyph name="ordmasculine" format="1">
  <advance width="914"/>
  <unicode hex="00BA"/>
  <note>
	ordmasculine
  </note>
  <outline>
    <contour>
      <point x="95" y="1185"/>
      <point x="179" y="1308"/>
      <point x="293" y="1366" type="curve" smooth="yes"/>
      <point x="350" y="1395"/>
      <point x="408" y="1409"/>
      <point x="467" y="1409" type="curve" smooth="yes"/>
      <point x="612" y="1409"/>
      <point x="721" y="1346"/>
      <point x="778" y="1226" type="curve" smooth="yes"/>
      <point x="806" y="1166"/>
      <point x="820" y="1093"/>
      <point x="820" y="1008" type="curve" smooth="yes"/>
      <point x="820" y="821"/>
      <point x="738" y="696"/>
      <point x="627" y="639" type="curve" smooth="yes"/>
      <point x="571" y="610"/>
      <point x="514" y="596"/>
      <point x="456" y="596" type="curve" smooth="yes"/>
      <point x="319" y="596"/>
      <point x="203" y="656"/>
      <point x="140" y="780" type="curve" smooth="yes"/>
      <point x="108" y="842"/>
      <point x="93" y="918"/>
      <point x="94" y="1009" type="curve" smooth="yes"/>
    </contour>
    <contour>
      <point x="673" y="1131"/>
      <point x="638" y="1236"/>
      <point x="574" y="1290" type="curve" smooth="yes"/>
      <point x="542" y="1317"/>
      <point x="505" y="1330"/>
      <point x="462" y="1330" type="curve" smooth="yes"/>
      <point x="330" y="1330"/>
      <point x="241" y="1229"/>
      <point x="241" y="1016" type="curve" smooth="yes"/>
      <point x="241" y="876"/>
      <point x="283" y="769"/>
      <point x="348" y="715" type="curve" smooth="yes"/>
      <point x="413" y="661"/>
      <point x="508" y="666"/>
      <point x="572" y="702" type="curve" smooth="yes"/>
      <point x="636" y="738"/>
      <point x="673" y="828"/>
      <point x="673" y="992" type="curve" smooth="yes"/>
    </contour>
  </outline>
</glyph>
<glyph name="guillemotright" format="1">
  <advance width="1669"/>
  <unicode hex="00BB"/>
  <note>
	guillemotright
  </note>
  <outline>
    <contour>
      <point x="832" y="479" type="line"/>
      <point x="254" y="102" type="line"/>
      <point x="205" y="182" type="line"/>
      <point x="661" y="541" type="line"/>
      <point x="210" y="909" type="line"/>
      <point x="254" y="986" type="line"/>
      <point x="832" y="598" type="line"/>
    </contour>
    <contour>
      <point x="1458" y="479" type="line"/>
      <point x="880" y="102" type="line"/>
      <point x="831" y="182" type="line"/>
      <point x="1287" y="541" type="line"/>
      <point x="836" y="909" type="line"/>
      <point x="880" y="986" type="line"/>
      <point x="1458" y="598" type="line"/>
    </contour>
  </outline>
</glyph>
<glyph name="onequarter" format="1">
  <advance width="2095"/>
  <unicode hex="00BC"/>
  <note>
	onequarter
  </note>
  <outline>
    <contour>
      <point x="1309" y="1469" type="line"/>
      <point x="1416" y="1456" type="line"/>
      <point x="750" y="-128" type="line"/>
      <point x="641" y="-120" type="line"/>
    </contour>
    <contour>
      <point x="414" y="574" type="line"/>
      <point x="414" y="1231" type="line"/>
      <point x="359" y="1208"/>
      <point x="280" y="1185"/>
      <point x="178" y="1164" type="curve"/>
      <point x="160" y="1245" type="line"/>
      <point x="280" y="1281"/>
      <point x="372" y="1318"/>
      <point x="464" y="1387" type="curve"/>
      <point x="466" y="1387" type="line"/>
      <point x="542" y="1374" type="line"/>
      <point x="542" y="575" type="line"/>
      <point x="741" y="556" type="line"/>
      <point x="741" y="483" type="line"/>
      <point x="183" y="483" type="line"/>
      <point x="183" y="556" type="line"/>
    </contour>
    <contour>
      <point x="1352" y="417" type="line" smooth="yes"/>
      <point x="1380" y="466"/>
      <point x="1438" y="568"/>
      <point x="1525" y="721" type="curve" smooth="yes"/>
      <point x="1612" y="874"/>
      <point x="1656" y="952"/>
      <point x="1657" y="956" type="curve"/>
      <point x="1777" y="956" type="line"/>
      <point x="1802" y="926" type="line"/>
      <point x="1438" y="331" type="line"/>
      <point x="1378" y="250" type="line"/>
      <point x="1742" y="267" type="line"/>
      <point x="1755" y="516" type="line"/>
      <point x="1867" y="524" type="line"/>
      <point x="1867" y="273" type="line"/>
      <point x="2032" y="281" type="line"/>
      <point x="2032" y="177" type="line"/>
      <point x="1867" y="177" type="line"/>
      <point x="1867" y="0" type="line"/>
      <point x="1742" y="0" type="line"/>
      <point x="1742" y="177" type="line"/>
      <point x="1295" y="177" type="line"/>
      <point x="1249" y="238" type="line"/>
    </contour>
  </outline>
</glyph>
<glyph name="onehalf" format="1">
  <advance width="2083"/>
  <unicode hex="00BD"/>
  <note>
	onehalf
  </note>
  <outline>
    <contour>
      <point x="414" y="574" type="line"/>
      <point x="414" y="1231" type="line"/>
      <point x="359" y="1208"/>
      <point x="280" y="1185"/>
      <point x="178" y="1164" type="curve"/>
      <point x="160" y="1245" type="line"/>
      <point x="280" y="1281"/>
      <point x="372" y="1318"/>
      <point x="464" y="1387" type="curve"/>
      <point x="466" y="1387" type="line"/>
      <point x="542" y="1374" type="line"/>
      <point x="542" y="575" type="line"/>
      <point x="741" y="556" type="line"/>
      <point x="741" y="483" type="line"/>
      <point x="183" y="483" type="line"/>
      <point x="183" y="556" type="line"/>
    </contour>
    <contour>
      <point x="1309" y="1469" type="line"/>
      <point x="1416" y="1456" type="line"/>
      <point x="750" y="-128" type="line"/>
      <point x="641" y="-120" type="line"/>
    </contour>
    <contour>
      <point x="1322" y="71" type="line"/>
      <point x="1433" y="140"/>
      <point x="1592" y="264"/>
      <point x="1706" y="410" type="curve" smooth="yes"/>
      <point x="1763" y="483"/>
      <point x="1791" y="552"/>
      <point x="1791" y="617" type="curve" smooth="yes"/>
      <point x="1791" y="729"/>
      <point x="1725" y="804"/>
      <point x="1606" y="804" type="curve" smooth="yes"/>
      <point x="1505" y="804"/>
      <point x="1409" y="752"/>
      <point x="1361" y="700" type="curve"/>
      <point x="1311" y="753" type="line"/>
      <point x="1342" y="797"/>
      <point x="1410" y="848"/>
      <point x="1497" y="880" type="curve" smooth="yes"/>
      <point x="1540" y="896"/>
      <point x="1585" y="904"/>
      <point x="1632" y="904" type="curve" smooth="yes"/>
      <point x="1757" y="904"/>
      <point x="1845" y="853"/>
      <point x="1889" y="774" type="curve" smooth="yes"/>
      <point x="1911" y="735"/>
      <point x="1922" y="690"/>
      <point x="1922" y="641" type="curve" smooth="yes"/>
      <point x="1922" y="526"/>
      <point x="1828" y="385"/>
      <point x="1688" y="256" type="curve" smooth="yes"/>
      <point x="1618" y="191"/>
      <point x="1543" y="134"/>
      <point x="1464" y="85" type="curve"/>
      <point x="1854" y="108" type="line"/>
      <point x="1919" y="247" type="line"/>
      <point x="1996" y="232" type="line"/>
      <point x="1951" y="0" type="line"/>
      <point x="1350" y="0" type="line"/>
    </contour>
  </outline>
</glyph>
<glyph name="Agrave" format="1">
  <advance width="1236"/>
  <unicode hex="00C0"/>
  <note>
	Agrave
  </note>
  <outline>
    <contour>
      <point x="96" y="94" type="line"/>
      <point x="545" y="1353" type="line"/>
      <point x="693" y="1353" type="line"/>
      <point x="1142" y="94" type="line"/>
      <point x="1260" y="77" type="line"/>
      <point x="1260" y="0" type="line"/>
      <point x="820" y="0" type="line"/>
      <point x="820" y="77" type="line"/>
      <point x="979" y="94" type="line"/>
      <point x="883" y="381" type="line"/>
      <point x="320" y="381" type="line"/>
      <point x="226" y="95" type="line"/>
      <point x="385" y="77" type="line"/>
      <point x="385" y="0" type="line"/>
      <point x="-20" y="0" type="line"/>
      <point x="-20" y="77" type="line"/>
    </contour>
    <contour>
      <point x="851" y="474" type="line"/>
      <point x="649" y="1074" type="line"/>
      <point x="598" y="1245" type="line"/>
      <point x="549" y="1068" type="line"/>
      <point x="351" y="474" type="line"/>
    </contour>
    <contour>
      <point x="462" y="1767" type="line"/>
      <point x="463" y="1767" type="line"/>
      <point x="760" y="1495" type="line"/>
      <point x="712" y="1448" type="line"/>
      <point x="711" y="1448" type="line"/>
      <point x="648" y="1475"/>
      <point x="542" y="1532"/>
      <point x="455" y="1593" type="curve" smooth="yes"/>
      <point x="411" y="1623"/>
      <point x="380" y="1650"/>
      <point x="361" y="1674" type="curve"/>
    </contour>
  </outline>
</glyph>
<glyph name="Aacute" format="1">
  <advance width="1236"/>
  <unicode hex="00C1"/>
  <note>
	Aacute
  </note>
  <outline>
    <contour>
      <point x="96" y="94" type="line"/>
      <point x="545" y="1353" type="line"/>
      <point x="693" y="1353" type="line"/>
      <point x="1142" y="94" type="line"/>
      <point x="1260" y="77" type="line"/>
      <point x="1260" y="0" type="line"/>
      <point x="820" y="0" type="line"/>
      <point x="820" y="77" type="line"/>
      <point x="979" y="94" type="line"/>
      <point x="883" y="381" type="line"/>
      <point x="320" y="381" type="line"/>
      <point x="226" y="95" type="line"/>
      <point x="385" y="77" type="line"/>
      <point x="385" y="0" type="line"/>
      <point x="-20" y="0" type="line"/>
      <point x="-20" y="77" type="line"/>
    </contour>
    <contour>
      <point x="851" y="474" type="line"/>
      <point x="649" y="1074" type="line"/>
      <point x="598" y="1245" type="line"/>
      <point x="549" y="1068" type="line"/>
      <point x="351" y="474" type="line"/>
    </contour>
    <contour>
      <point x="797" y="1767" type="line"/>
      <point x="798" y="1767" type="line"/>
      <point x="898" y="1674" type="line"/>
      <point x="861" y="1626"/>
      <point x="764" y="1560"/>
      <point x="667" y="1508" type="curve" smooth="yes"/>
      <point x="618" y="1481"/>
      <point x="579" y="1461"/>
      <point x="549" y="1448" type="curve"/>
      <point x="548" y="1448" type="line"/>
      <point x="498" y="1495" type="line"/>
    </contour>
  </outline>
</glyph>
<glyph name="Acircumflex" format="1">
  <advance width="1236"/>
  <unicode hex="00C2"/>
  <note>
	Acircumflex
  </note>
  <outline>
    <contour>
      <point x="96" y="94" type="line"/>
      <point x="545" y="1353" type="line"/>
      <point x="693" y="1353" type="line"/>
      <point x="1142" y="94" type="line"/>
      <point x="1260" y="77" type="line"/>
      <point x="1260" y="0" type="line"/>
      <point x="820" y="0" type="line"/>
      <point x="820" y="77" type="line"/>
      <point x="979" y="94" type="line"/>
      <point x="883" y="381" type="line"/>
      <point x="320" y="381" type="line"/>
      <point x="226" y="95" type="line"/>
      <point x="385" y="77" type="line"/>
      <point x="385" y="0" type="line"/>
      <point x="-20" y="0" type="line"/>
      <point x="-20" y="77" type="line"/>
    </contour>
    <contour>
      <point x="851" y="474" type="line"/>
      <point x="649" y="1074" type="line"/>
      <point x="598" y="1245" type="line"/>
      <point x="549" y="1068" type="line"/>
      <point x="351" y="474" type="line"/>
    </contour>
    <contour>
      <point x="550" y="1772" type="line"/>
      <point x="685" y="1772" type="line"/>
      <point x="918" y="1512" type="line"/>
      <point x="852" y="1472" type="line"/>
      <point x="618" y="1663" type="line"/>
      <point x="379" y="1472" type="line"/>
      <point x="319" y="1510" type="line"/>
    </contour>
  </outline>
</glyph>
<glyph name="Atilde" format="1">
  <advance width="1236"/>
  <unicode hex="00C3"/>
  <note>
	Atilde
  </note>
  <outline>
    <contour>
      <point x="96" y="94" type="line"/>
      <point x="545" y="1353" type="line"/>
      <point x="693" y="1353" type="line"/>
      <point x="1142" y="94" type="line"/>
      <point x="1260" y="77" type="line"/>
      <point x="1260" y="0" type="line"/>
      <point x="820" y="0" type="line"/>
      <point x="820" y="77" type="line"/>
      <point x="979" y="94" type="line"/>
      <point x="883" y="381" type="line"/>
      <point x="320" y="381" type="line"/>
      <point x="226" y="95" type="line"/>
      <point x="385" y="77" type="line"/>
      <point x="385" y="0" type="line"/>
      <point x="-20" y="0" type="line"/>
      <point x="-20" y="77" type="line"/>
    </contour>
    <contour>
      <point x="851" y="474" type="line"/>
      <point x="649" y="1074" type="line"/>
      <point x="598" y="1245" type="line"/>
      <point x="549" y="1068" type="line"/>
      <point x="351" y="474" type="line"/>
    </contour>
    <contour>
      <point x="425" y="1654"/>
      <point x="388" y="1623"/>
      <point x="368" y="1592" type="curve" smooth="yes"/>
      <point x="358" y="1577"/>
      <point x="348" y="1559"/>
      <point x="339" y="1539" type="curve"/>
      <point x="264" y="1580" type="line"/>
      <point x="279" y="1636"/>
      <point x="323" y="1697"/>
      <point x="390" y="1735" type="curve" smooth="yes"/>
      <point x="423" y="1754"/>
      <point x="460" y="1763"/>
      <point x="500" y="1763" type="curve" smooth="yes"/>
      <point x="548" y="1763"/>
      <point x="586" y="1745"/>
      <point x="614" y="1722" type="curve"/>
      <point x="627" y="1710"/>
      <point x="642" y="1695"/>
      <point x="659" y="1676" type="curve" smooth="yes"/>
      <point x="703" y="1629"/>
      <point x="728" y="1609"/>
      <point x="769" y="1609" type="curve" smooth="yes"/>
      <point x="821" y="1609"/>
      <point x="856" y="1640"/>
      <point x="872" y="1668" type="curve" smooth="yes"/>
      <point x="880" y="1681"/>
      <point x="889" y="1700"/>
      <point x="900" y="1725" type="curve"/>
      <point x="975" y="1683" type="line"/>
      <point x="943" y="1579"/>
      <point x="868" y="1500"/>
      <point x="759" y="1500" type="curve" smooth="yes"/>
      <point x="712" y="1500"/>
      <point x="673" y="1519"/>
      <point x="647" y="1541" type="curve" smooth="yes"/>
      <point x="634" y="1552"/>
      <point x="617" y="1566"/>
      <point x="598" y="1585" type="curve" smooth="yes"/>
      <point x="550" y="1632"/>
      <point x="523" y="1654"/>
      <point x="476" y="1654" type="curve" smooth="yes"/>
    </contour>
  </outline>
</glyph>
<glyph name="Aring" format="1">
  <advance width="1236"/>
  <unicode hex="00C5"/>
  <note>
	Aring
  </note>
  <outline>
    <contour>
      <point x="1260" y="77" type="line"/>
      <point x="1260" y="0" type="line"/>
      <point x="820" y="0" type="line"/>
      <point x="820" y="77" type="line"/>
      <point x="979" y="94" type="line"/>
      <point x="883" y="381" type="line"/>
      <point x="320" y="381" type="line"/>
      <point x="226" y="95" type="line"/>
      <point x="385" y="77" type="line"/>
      <point x="385" y="0" type="line"/>
      <point x="-20" y="0" type="line"/>
      <point x="-20" y="77" type="line"/>
      <point x="96" y="94" type="line"/>
      <point x="540" y="1340" type="line"/>
      <point x="407" y="1361"/>
      <point x="336" y="1443"/>
      <point x="336" y="1551" type="curve" smooth="yes"/>
      <point x="336" y="1647"/>
      <point x="398" y="1714"/>
      <point x="487" y="1747" type="curve" smooth="yes"/>
      <point x="532" y="1764"/>
      <point x="579" y="1772"/>
      <point x="628" y="1772" type="curve" smooth="yes"/>
      <point x="629" y="1772" type="line" smooth="yes"/>
      <point x="745" y="1772"/>
      <point x="829" y="1735"/>
      <point x="871" y="1669" type="curve" smooth="yes"/>
      <point x="892" y="1636"/>
      <point x="902" y="1597"/>
      <point x="902" y="1553" type="curve" smooth="yes"/>
      <point x="902" y="1440"/>
      <point x="818" y="1365"/>
      <point x="697" y="1341" type="curve"/>
      <point x="1142" y="94" type="line"/>
    </contour>
    <contour>
      <point x="448" y="1469"/>
      <point x="506" y="1404"/>
      <point x="621" y="1404" type="curve" smooth="yes"/>
      <point x="622" y="1404" type="line" smooth="yes"/>
      <point x="735" y="1404"/>
      <point x="791" y="1453"/>
      <point x="791" y="1545" type="curve" smooth="yes"/>
      <point x="791" y="1640"/>
      <point x="737" y="1699"/>
      <point x="624" y="1699" type="curve" smooth="yes"/>
      <point x="623" y="1699" type="line" smooth="yes"/>
      <point x="511" y="1699"/>
      <point x="448" y="1649"/>
      <point x="448" y="1557" type="curve" smooth="yes"/>
    </contour>
    <contour>
      <point x="851" y="474" type="line"/>
      <point x="649" y="1074" type="line"/>
      <point x="598" y="1245" type="line"/>
      <point x="549" y="1068" type="line"/>
      <point x="351" y="474" type="line"/>
    </contour>
  </outline>
</glyph>
<glyph name="Eacute" format="1">
  <advance width="1171"/>
  <unicode hex="00C9"/>
  <note>
	Eacute
  </note>
  <outline>
    <contour>
      <point x="792" y="1767" type="line"/>
      <point x="793" y="1767" type="line"/>
      <point x="893" y="1674" type="line"/>
      <point x="856" y="1626"/>
      <point x="759" y="1560"/>
      <point x="662" y="1508" type="curve" smooth="yes"/>
      <point x="613" y="1481"/>
      <point x="574" y="1461"/>
      <point x="544" y="1448" type="curve"/>
      <point x="543" y="1448" type="line"/>
      <point x="493" y="1495" type="line"/>
    </contour>
    <contour>
      <point x="245" y="94" type="line"/>
      <point x="245" y="1242" type="line"/>
      <point x="94" y="1262" type="line"/>
      <point x="94" y="1339" type="line"/>
      <point x="986" y="1339" type="line"/>
      <point x="1010" y="1074" type="line"/>
      <point x="925" y="1074" type="line"/>
      <point x="876" y="1248" type="line"/>
      <point x="393" y="1256" type="line"/>
      <point x="393" y="731" type="line"/>
      <point x="725" y="737" type="line"/>
      <point x="747" y="886" type="line"/>
      <point x="839" y="886" type="line"/>
      <point x="839" y="488" type="line"/>
      <point x="747" y="488" type="line"/>
      <point x="725" y="642" type="line"/>
      <point x="393" y="647" type="line"/>
      <point x="393" y="92" type="line"/>
      <point x="945" y="106" type="line"/>
      <point x="1037" y="332" type="line"/>
      <point x="1122" y="304" type="line"/>
      <point x="1067" y="0" type="line"/>
      <point x="91" y="0" type="line"/>
      <point x="91" y="77" type="line"/>
    </contour>
  </outline>
</glyph>
<glyph name="Ecircumflex" format="1">
  <advance width="1170"/>
  <unicode hex="00CA"/>
  <note>
	Ecircumflex
  </note>
  <outline>
    <contour>
      <point x="245" y="94" type="line"/>
      <point x="245" y="1242" type="line"/>
      <point x="94" y="1262" type="line"/>
      <point x="94" y="1339" type="line"/>
      <point x="986" y="1339" type="line"/>
      <point x="1010" y="1074" type="line"/>
      <point x="925" y="1074" type="line"/>
      <point x="876" y="1248" type="line"/>
      <point x="393" y="1256" type="line"/>
      <point x="393" y="731" type="line"/>
      <point x="725" y="737" type="line"/>
      <point x="747" y="886" type="line"/>
      <point x="839" y="886" type="line"/>
      <point x="839" y="488" type="line"/>
      <point x="747" y="488" type="line"/>
      <point x="725" y="642" type="line"/>
      <point x="393" y="647" type="line"/>
      <point x="393" y="92" type="line"/>
      <point x="945" y="106" type="line"/>
      <point x="1037" y="332" type="line"/>
      <point x="1122" y="304" type="line"/>
      <point x="1067" y="0" type="line"/>
      <point x="91" y="0" type="line"/>
      <point x="91" y="77" type="line"/>
    </contour>
    <contour>
      <point x="543" y="1772" type="line"/>
      <point x="678" y="1772" type="line"/>
      <point x="911" y="1512" type="line"/>
      <point x="845" y="1472" type="line"/>
      <point x="611" y="1663" type="line"/>
      <point x="372" y="1472" type="line"/>
      <point x="312" y="1510" type="line"/>
    </contour>
  </outline>
</glyph>
<glyph name="Igrave" format="1">
  <advance width="716"/>
  <unicode hex="00CC"/>
  <note>
	Igrave
  </note>
  <outline>
    <contour>
      <point x="283" y="94" type="line"/>
      <point x="283" y="1242" type="line"/>
      <point x="107" y="1262" type="line"/>
      <point x="107" y="1339" type="line"/>
      <point x="608" y="1339" type="line"/>
      <point x="608" y="1262" type="line"/>
      <point x="433" y="1243" type="line"/>
      <point x="433" y="94" type="line"/>
      <point x="608" y="77" type="line"/>
      <point x="608" y="0" type="line"/>
      <point x="107" y="0" type="line"/>
      <point x="107" y="77" type="line"/>
    </contour>
    <contour>
      <point x="204" y="1767" type="line"/>
      <point x="205" y="1767" type="line"/>
      <point x="502" y="1495" type="line"/>
      <point x="454" y="1448" type="line"/>
      <point x="453" y="1448" type="line"/>
      <point x="390" y="1475"/>
      <point x="284" y="1532"/>
      <point x="197" y="1593" type="curve" smooth="yes"/>
      <point x="153" y="1623"/>
      <point x="122" y="1650"/>
      <point x="103" y="1674" type="curve"/>
    </contour>
  </outline>
</glyph>
<glyph name="Iacute" format="1">
  <advance width="716"/>
  <unicode hex="00CD"/>
  <note>
	Iacute
  </note>
  <outline>
    <contour>
      <point x="283" y="94" type="line"/>
      <point x="283" y="1242" type="line"/>
      <point x="107" y="1262" type="line"/>
      <point x="107" y="1339" type="line"/>
      <point x="608" y="1339" type="line"/>
      <point x="608" y="1262" type="line"/>
      <point x="433" y="1243" type="line"/>
      <point x="433" y="94" type="line"/>
      <point x="608" y="77" type="line"/>
      <point x="608" y="0" type="line"/>
      <point x="107" y="0" type="line"/>
      <point x="107" y="77" type="line"/>
    </contour>
    <contour>
      <point x="540" y="1767" type="line"/>
      <point x="541" y="1767" type="line"/>
      <point x="641" y="1674" type="line"/>
      <point x="604" y="1626"/>
      <point x="507" y="1560"/>
      <point x="410" y="1508" type="curve" smooth="yes"/>
      <point x="361" y="1481"/>
      <point x="322" y="1461"/>
      <point x="292" y="1448" type="curve"/>
      <point x="291" y="1448" type="line"/>
      <point x="241" y="1495" type="line"/>
    </contour>
  </outline>
</glyph>
<glyph name="Icircumflex" format="1">
  <advance width="716"/>
  <unicode hex="00CE"/>
  <note>
	Icircumflex
  </note>
  <outline>
    <contour>
      <point x="283" y="94" type="line"/>
      <point x="283" y="1242" type="line"/>
      <point x="107" y="1262" type="line"/>
      <point x="107" y="1339" type="line"/>
      <point x="608" y="1339" type="line"/>
      <point x="608" y="1262" type="line"/>
      <point x="433" y="1243" type="line"/>
      <point x="433" y="94" type="line"/>
      <point x="608" y="77" type="line"/>
      <point x="608" y="0" type="line"/>
      <point x="107" y="0" type="line"/>
      <point x="107" y="77" type="line"/>
    </contour>
    <contour>
      <point x="292" y="1772" type="line"/>
      <point x="427" y="1772" type="line"/>
      <point x="660" y="1512" type="line"/>
      <point x="594" y="1472" type="line"/>
      <point x="360" y="1663" type="line"/>
      <point x="121" y="1472" type="line"/>
      <point x="61" y="1510" type="line"/>
    </contour>
  </outline>
</glyph>
<glyph name="Ntilde" format="1">
  <advance width="1437"/>
  <unicode hex="00D1"/>
  <note>
	Ntilde
  </note>
  <outline>
    <contour>
      <point x="527" y="1654"/>
      <point x="490" y="1623"/>
      <point x="470" y="1592" type="curve" smooth="yes"/>
      <point x="460" y="1577"/>
      <point x="450" y="1559"/>
      <point x="441" y="1539" type="curve"/>
      <point x="366" y="1580" type="line"/>
      <point x="381" y="1636"/>
      <point x="425" y="1697"/>
      <point x="492" y="1735" type="curve" smooth="yes"/>
      <point x="525" y="1754"/>
      <point x="562" y="1763"/>
      <point x="602" y="1763" type="curve" smooth="yes"/>
      <point x="650" y="1763"/>
      <point x="688" y="1745"/>
      <point x="716" y="1722" type="curve"/>
      <point x="729" y="1710"/>
      <point x="744" y="1695"/>
      <point x="761" y="1676" type="curve" smooth="yes"/>
      <point x="805" y="1629"/>
      <point x="830" y="1609"/>
      <point x="871" y="1609" type="curve" smooth="yes"/>
      <point x="923" y="1609"/>
      <point x="958" y="1640"/>
      <point x="974" y="1668" type="curve" smooth="yes"/>
      <point x="982" y="1681"/>
      <point x="991" y="1700"/>
      <point x="1002" y="1725" type="curve"/>
      <point x="1077" y="1683" type="line"/>
      <point x="1045" y="1579"/>
      <point x="970" y="1500"/>
      <point x="861" y="1500" type="curve" smooth="yes"/>
      <point x="814" y="1500"/>
      <point x="775" y="1519"/>
      <point x="749" y="1541" type="curve" smooth="yes"/>
      <point x="736" y="1552"/>
      <point x="719" y="1566"/>
      <point x="700" y="1585" type="curve" smooth="yes"/>
      <point x="652" y="1632"/>
      <point x="625" y="1654"/>
      <point x="578" y="1654" type="curve" smooth="yes"/>
    </contour>
    <contour>
      <point x="245" y="95" type="line"/>
      <point x="245" y="1242" type="line"/>
      <point x="101" y="1262" type="line"/>
      <point x="101" y="1339" type="line"/>
      <point x="392" y="1339" type="line"/>
      <point x="1030" y="414" type="line"/>
      <point x="1132" y="234" type="line"/>
      <point x="1132" y="1242" type="line"/>
      <point x="973" y="1262" type="line"/>
      <point x="973" y="1339" type="line"/>
      <point x="1383" y="1339" type="line"/>
      <point x="1383" y="1262" type="line"/>
      <point x="1236" y="1242" type="line"/>
      <point x="1236" y="0" type="line"/>
      <point x="1143" y="0" type="line"/>
      <point x="498" y="928" type="line"/>
      <point x="349" y="1169" type="line"/>
      <point x="349" y="94" type="line"/>
      <point x="514" y="77" type="line"/>
      <point x="514" y="0" type="line"/>
      <point x="101" y="0" type="line"/>
      <point x="101" y="77" type="line"/>
    </contour>
  </outline>
</glyph>
<glyph name="Otilde" format="1">
  <advance width="1296"/>
  <unicode hex="00D5"/>
  <note>
	Otilde
  </note>
  <outline>
    <contour>
      <point x="458" y="1654"/>
      <point x="421" y="1623"/>
      <point x="401" y="1592" type="curve" smooth="yes"/>
      <point x="391" y="1577"/>
      <point x="381" y="1559"/>
      <point x="372" y="1539" type="curve"/>
      <point x="297" y="1580" type="line"/>
      <point x="312" y="1636"/>
      <point x="356" y="1697"/>
      <point x="423" y="1735" type="curve" smooth="yes"/>
      <point x="456" y="1754"/>
      <point x="493" y="1763"/>
      <point x="533" y="1763" type="curve" smooth="yes"/>
      <point x="581" y="1763"/>
      <point x="619" y="1745"/>
      <point x="647" y="1722" type="curve"/>
      <point x="660" y="1710"/>
      <point x="675" y="1695"/>
      <point x="692" y="1676" type="curve" smooth="yes"/>
      <point x="736" y="1629"/>
      <point x="761" y="1609"/>
      <point x="802" y="1609" type="curve" smooth="yes"/>
      <point x="854" y="1609"/>
      <point x="889" y="1640"/>
      <point x="905" y="1668" type="curve" smooth="yes"/>
      <point x="913" y="1681"/>
      <point x="922" y="1700"/>
      <point x="933" y="1725" type="curve"/>
      <point x="1008" y="1683" type="line"/>
      <point x="976" y="1579"/>
      <point x="901" y="1500"/>
      <point x="792" y="1500" type="curve" smooth="yes"/>
      <point x="745" y="1500"/>
      <point x="706" y="1519"/>
      <point x="680" y="1541" type="curve" smooth="yes"/>
      <point x="667" y="1552"/>
      <point x="650" y="1566"/>
      <point x="631" y="1585" type="curve" smooth="yes"/>
      <point x="583" y="1632"/>
      <point x="556" y="1654"/>
      <point x="509" y="1654" type="curve" smooth="yes"/>
    </contour>
    <contour>
      <point x="66" y="936"/>
      <point x="178" y="1154"/>
      <point x="362" y="1268" type="curve" smooth="yes"/>
      <point x="453" y="1325"/>
      <point x="555" y="1353"/>
      <point x="666" y="1353" type="curve" smooth="yes"/>
      <point x="906" y="1353"/>
      <point x="1077" y="1239"/>
      <point x="1165" y="1037" type="curve" smooth="yes"/>
      <point x="1208" y="936"/>
      <point x="1230" y="817"/>
      <point x="1230" y="682" type="curve" smooth="yes"/>
      <point x="1230" y="402"/>
      <point x="1116" y="182"/>
      <point x="932" y="67" type="curve" smooth="yes"/>
      <point x="839" y="9"/>
      <point x="737" y="-20"/>
      <point x="624" y="-20" type="curve" smooth="yes"/>
      <point x="391" y="-20"/>
      <point x="219" y="99"/>
      <point x="132" y="304" type="curve" smooth="yes"/>
      <point x="88" y="407"/>
      <point x="66" y="525"/>
      <point x="66" y="659" type="curve" smooth="yes"/>
    </contour>
    <contour>
      <point x="231" y="429"/>
      <point x="297" y="241"/>
      <point x="422" y="141" type="curve" smooth="yes"/>
      <point x="485" y="90"/>
      <point x="559" y="65"/>
      <point x="646" y="65" type="curve" smooth="yes"/>
      <point x="813" y="65"/>
      <point x="942" y="159"/>
      <point x="1012" y="343" type="curve" smooth="yes"/>
      <point x="1047" y="435"/>
      <point x="1064" y="548"/>
      <point x="1064" y="681" type="curve" smooth="yes"/>
      <point x="1064" y="912"/>
      <point x="998" y="1096"/>
      <point x="874" y="1195" type="curve" smooth="yes"/>
      <point x="812" y="1244"/>
      <point x="738" y="1269"/>
      <point x="651" y="1269" type="curve" smooth="yes"/>
      <point x="482" y="1269"/>
      <point x="352" y="1179"/>
      <point x="283" y="997" type="curve" smooth="yes"/>
      <point x="248" y="906"/>
      <point x="231" y="793"/>
      <point x="231" y="660" type="curve" smooth="yes"/>
    </contour>
  </outline>
</glyph>
<glyph name="Odieresis" format="1">
  <advance width="1296"/>
  <unicode hex="00D6"/>
  <note>
	Odieresis
  </note>
  <outline>
    <contour>
      <point x="339" y="1671"/>
      <point x="376" y="1726"/>
      <point x="443" y="1726" type="curve" smooth="yes"/>
      <point x="444" y="1726" type="line" smooth="yes"/>
      <point x="501" y="1726"/>
      <point x="539" y="1676"/>
      <point x="539" y="1621" type="curve" smooth="yes"/>
      <point x="539" y="1554"/>
      <point x="499" y="1503"/>
      <point x="430" y="1503" type="curve" smooth="yes"/>
      <point x="429" y="1503" type="line" smooth="yes"/>
      <point x="374" y="1503"/>
      <point x="339" y="1547"/>
      <point x="339" y="1606" type="curve" smooth="yes"/>
    </contour>
    <contour>
      <point x="766" y="1671"/>
      <point x="805" y="1726"/>
      <point x="872" y="1726" type="curve" smooth="yes"/>
      <point x="873" y="1726" type="line" smooth="yes"/>
      <point x="932" y="1726"/>
      <point x="967" y="1676"/>
      <point x="967" y="1621" type="curve" smooth="yes"/>
      <point x="967" y="1553"/>
      <point x="929" y="1503"/>
      <point x="858" y="1503" type="curve" smooth="yes"/>
      <point x="857" y="1503" type="line" smooth="yes"/>
      <point x="801" y="1503"/>
      <point x="766" y="1547"/>
      <point x="766" y="1606" type="curve" smooth="yes"/>
    </contour>
    <contour>
      <point x="66" y="936"/>
      <point x="178" y="1154"/>
      <point x="362" y="1268" type="curve" smooth="yes"/>
      <point x="453" y="1325"/>
      <point x="555" y="1353"/>
      <point x="666" y="1353" type="curve" smooth="yes"/>
      <point x="906" y="1353"/>
      <point x="1077" y="1239"/>
      <point x="1165" y="1037" type="curve" smooth="yes"/>
      <point x="1208" y="936"/>
      <point x="1230" y="817"/>
      <point x="1230" y="682" type="curve" smooth="yes"/>
      <point x="1230" y="402"/>
      <point x="1116" y="182"/>
      <point x="932" y="67" type="curve" smooth="yes"/>
      <point x="839" y="9"/>
      <point x="737" y="-20"/>
      <point x="624" y="-20" type="curve" smooth="yes"/>
      <point x="391" y="-20"/>
      <point x="219" y="99"/>
      <point x="132" y="304" type="curve" smooth="yes"/>
      <point x="88" y="407"/>
      <point x="66" y="525"/>
      <point x="66" y="659" type="curve" smooth="yes"/>
    </contour>
    <contour>
      <point x="231" y="429"/>
      <point x="297" y="241"/>
      <point x="422" y="141" type="curve" smooth="yes"/>
      <point x="485" y="90"/>
      <point x="559" y="65"/>
      <point x="646" y="65" type="curve" smooth="yes"/>
      <point x="813" y="65"/>
      <point x="942" y="159"/>
      <point x="1012" y="343" type="curve" smooth="yes"/>
      <point x="1047" y="435"/>
      <point x="1064" y="548"/>
      <point x="1064" y="681" type="curve" smooth="yes"/>
      <point x="1064" y="912"/>
      <point x="998" y="1096"/>
      <point x="874" y="1195" type="curve" smooth="yes"/>
      <point x="812" y="1244"/>
      <point x="738" y="1269"/>
      <point x="651" y="1269" type="curve" smooth="yes"/>
      <point x="482" y="1269"/>
      <point x="352" y="1179"/>
      <point x="283" y="997" type="curve" smooth="yes"/>
      <point x="248" y="906"/>
      <point x="231" y="793"/>
      <point x="231" y="660" type="curve" smooth="yes"/>
    </contour>
  </outline>
</glyph>
<glyph name="multiply" format="1">
  <advance width="1091"/>
  <unicode hex="00D7"/>
  <note>
	multiply
  </note>
  <outline>
    <contour>
      <point x="470" y="542" type="line"/>
      <point x="163" y="840" type="line"/>
      <point x="251" y="932" type="line"/>
      <point x="546" y="618" type="line"/>
      <point x="840" y="931" type="line"/>
      <point x="928" y="839" type="line"/>
      <point x="621" y="542" type="line"/>
      <point x="928" y="246" type="line"/>
      <point x="840" y="153" type="line"/>
      <point x="546" y="466" type="line"/>
      <point x="250" y="153" type="line"/>
      <point x="163" y="246" type="line"/>
    </contour>
  </outline>
</glyph>
<glyph name="Oslash" format="1">
  <advance width="1297"/>
  <unicode hex="00D8"/>
  <note>
	Oslash
  </note>
  <outline>
    <contour>
      <point x="369" y="38" type="line"/>
      <point x="174" y="139"/>
      <point x="67" y="364"/>
      <point x="67" y="659" type="curve" smooth="yes"/>
      <point x="67" y="936"/>
      <point x="179" y="1154"/>
      <point x="363" y="1268" type="curve" smooth="yes"/>
      <point x="454" y="1325"/>
      <point x="556" y="1353"/>
      <point x="667" y="1353" type="curve" smooth="yes"/>
      <point x="738" y="1353"/>
      <point x="804" y="1343"/>
      <point x="863" y="1323" type="curve"/>
      <point x="933" y="1502" type="line"/>
      <point x="1002" y="1477" type="line"/>
      <point x="928" y="1295" type="line"/>
      <point x="1124" y="1196"/>
      <point x="1231" y="977"/>
      <point x="1231" y="682" type="curve" smooth="yes"/>
      <point x="1231" y="405"/>
      <point x="1119" y="187"/>
      <point x="939" y="71" type="curve" smooth="yes"/>
      <point x="758" y="-46"/>
      <point x="559" y="-31"/>
      <point x="435" y="10" type="curve"/>
      <point x="356" y="-179" type="line"/>
      <point x="286" y="-156" type="line"/>
    </contour>
    <contour>
      <point x="231" y="431"/>
      <point x="296" y="247"/>
      <point x="416" y="147" type="curve"/>
      <point x="822" y="1228" type="line"/>
      <point x="771" y="1255"/>
      <point x="715" y="1269"/>
      <point x="652" y="1269" type="curve" smooth="yes"/>
      <point x="483" y="1269"/>
      <point x="354" y="1179"/>
      <point x="284" y="997" type="curve" smooth="yes"/>
      <point x="249" y="906"/>
      <point x="231" y="793"/>
      <point x="231" y="660" type="curve" smooth="yes"/>
    </contour>
    <contour>
      <point x="475" y="106" type="line"/>
      <point x="526" y="79"/>
      <point x="583" y="65"/>
      <point x="647" y="65" type="curve" smooth="yes"/>
      <point x="814" y="65"/>
      <point x="943" y="159"/>
      <point x="1013" y="343" type="curve" smooth="yes"/>
      <point x="1048" y="435"/>
      <point x="1065" y="548"/>
      <point x="1065" y="681" type="curve" smooth="yes"/>
      <point x="1065" y="908"/>
      <point x="1000" y="1089"/>
      <point x="883" y="1188" type="curve"/>
    </contour>
  </outline>
</glyph>
<glyph name="Ugrave" format="1">
  <advance width="1330"/>
  <unicode hex="00D9"/>
  <note>
	Ugrave
  </note>
  <outline>
    <contour>
      <point x="549" y="1767" type="line"/>
      <point x="550" y="1767" type="line"/>
      <point x="847" y="1495" type="line"/>
      <point x="799" y="1448" type="line"/>
      <point x="798" y="1448" type="line"/>
      <point x="735" y="1475"/>
      <point x="629" y="1532"/>
      <point x="542" y="1593" type="curve" smooth="yes"/>
      <point x="498" y="1623"/>
      <point x="467" y="1650"/>
      <point x="448" y="1674" type="curve"/>
    </contour>
    <contour>
      <point x="183" y="1242" type="line"/>
      <point x="49" y="1262" type="line"/>
      <point x="49" y="1339" type="line"/>
      <point x="490" y="1339" type="line"/>
      <point x="490" y="1262" type="line"/>
      <point x="335" y="1242" type="line"/>
      <point x="335" y="557" type="line" smooth="yes"/>
      <point x="335" y="205"/>
      <point x="467" y="73"/>
      <point x="698" y="73" type="curve" smooth="yes"/>
      <point x="927" y="73"/>
      <point x="1046" y="235"/>
      <point x="1046" y="543" type="curve" smooth="yes"/>
      <point x="1046" y="1241" type="line"/>
      <point x="898" y="1262" type="line"/>
      <point x="898" y="1339" type="line"/>
      <point x="1298" y="1339" type="line"/>
      <point x="1298" y="1262" type="line"/>
      <point x="1160" y="1242" type="line"/>
      <point x="1160" y="550" type="line" smooth="yes"/>
      <point x="1160" y="298"/>
      <point x="1074" y="127"/>
      <point x="932" y="47" type="curve" smooth="yes"/>
      <point x="861" y="6"/>
      <point x="778" y="-14"/>
      <point x="684" y="-14" type="curve" smooth="yes"/>
      <point x="452" y="-14"/>
      <point x="307" y="71"/>
      <point x="236" y="243" type="curve" smooth="yes"/>
      <point x="201" y="329"/>
      <point x="183" y="439"/>
      <point x="183" y="573" type="curve" smooth="yes"/>
    </contour>
  </outline>
</glyph>
<glyph name="Udieresis" format="1">
  <advance width="1330"/>
  <unicode hex="00DC"/>
  <note>
	Udieresis
  </note>
  <outline>
    <contour>
      <point x="389" y="1671"/>
      <point x="426" y="1726"/>
      <point x="493" y="1726" type="curve" smooth="yes"/>
      <point x="494" y="1726" type="line" smooth="yes"/>
      <point x="551" y="1726"/>
      <point x="589" y="1676"/>
      <point x="589" y="1621" type="curve" smooth="yes"/>
      <point x="589" y="1554"/>
      <point x="549" y="1503"/>
      <point x="480" y="1503" type="curve" smooth="yes"/>
      <point x="479" y="1503" type="line" smooth="yes"/>
      <point x="424" y="1503"/>
      <point x="389" y="1547"/>
      <point x="389" y="1606" type="curve" smooth="yes"/>
    </contour>
    <contour>
      <point x="816" y="1671"/>
      <point x="855" y="1726"/>
      <point x="922" y="1726" type="curve" smooth="yes"/>
      <point x="923" y="1726" type="line" smooth="yes"/>
      <point x="982" y="1726"/>
      <point x="1017" y="1676"/>
      <point x="1017" y="1621" type="curve" smooth="yes"/>
      <point x="1017" y="1553"/>
      <point x="979" y="1503"/>
      <point x="908" y="1503" type="curve" smooth="yes"/>
      <point x="907" y="1503" type="line" smooth="yes"/>
      <point x="851" y="1503"/>
      <point x="816" y="1547"/>
      <point x="816" y="1606" type="curve" smooth="yes"/>
    </contour>
    <contour>
      <point x="183" y="1242" type="line"/>
      <point x="49" y="1262" type="line"/>
      <point x="49" y="1339" type="line"/>
      <point x="490" y="1339" type="line"/>
      <point x="490" y="1262" type="line"/>
      <point x="335" y="1242" type="line"/>
      <point x="335" y="557" type="line" smooth="yes"/>
      <point x="335" y="205"/>
      <point x="467" y="73"/>
      <point x="698" y="73" type="curve" smooth="yes"/>
      <point x="927" y="73"/>
      <point x="1046" y="235"/>
      <point x="1046" y="543" type="curve" smooth="yes"/>
      <point x="1046" y="1241" type="line"/>
      <point x="898" y="1262" type="line"/>
      <point x="898" y="1339" type="line"/>
      <point x="1298" y="1339" type="line"/>
      <point x="1298" y="1262" type="line"/>
      <point x="1160" y="1242" type="line"/>
      <point x="1160" y="550" type="line" smooth="yes"/>
      <point x="1160" y="298"/>
      <point x="1074" y="127"/>
      <point x="932" y="47" type="curve" smooth="yes"/>
      <point x="861" y="6"/>
      <point x="778" y="-14"/>
      <point x="684" y="-14" type="curve" smooth="yes"/>
      <point x="452" y="-14"/>
      <point x="307" y="71"/>
      <point x="236" y="243" type="curve" smooth="yes"/>
      <point x="201" y="329"/>
      <point x="183" y="439"/>
      <point x="183" y="573" type="curve" smooth="yes"/>
    </contour>
  </outline>
</glyph>
<glyph name="Thorn" format="1">
  <advance width="1144"/>
  <unicode hex="00DE"/>
  <note>
	Thorn
  </note>
  <outline>
    <contour>
      <point x="244" y="93" type="line"/>
      <point x="244" y="1243" type="line"/>
      <point x="93" y="1264" type="line"/>
      <point x="93" y="1340" type="line"/>
      <point x="552" y="1340" type="line"/>
      <point x="552" y="1264" type="line"/>
      <point x="390" y="1243" type="line"/>
      <point x="390" y="1026" type="line"/>
      <point x="445" y="1030" type="line" smooth="yes"/>
      <point x="520" y="1038"/>
      <point x="608" y="1044"/>
      <point x="677" y="1044" type="curve" smooth="yes"/>
      <point x="938" y="1044"/>
      <point x="1088" y="923"/>
      <point x="1088" y="691" type="curve" smooth="yes"/>
      <point x="1088" y="427"/>
      <point x="915" y="296"/>
      <point x="616" y="296" type="curve" smooth="yes"/>
      <point x="503" y="296"/>
      <point x="442" y="296"/>
      <point x="390" y="303" type="curve"/>
      <point x="390" y="93" type="line"/>
      <point x="585" y="77" type="line"/>
      <point x="585" y="0" type="line"/>
      <point x="91" y="0" type="line"/>
      <point x="91" y="77" type="line"/>
    </contour>
    <contour>
      <point x="925" y="865"/>
      <point x="823" y="957"/>
      <point x="619" y="957" type="curve" smooth="yes"/>
      <point x="552" y="957"/>
      <point x="476" y="951"/>
      <point x="390" y="939" type="curve"/>
      <point x="390" y="385" type="line"/>
      <point x="432" y="380"/>
      <point x="487" y="377"/>
      <point x="555" y="377" type="curve" smooth="yes"/>
      <point x="611" y="377" type="line" smooth="yes"/>
      <point x="804" y="377"/>
      <point x="925" y="467"/>
      <point x="925" y="682" type="curve" smooth="yes"/>
    </contour>
  </outline>
</glyph>
